<svg width="64" height="64" viewBox="0 0 64 64" fill="none" xmlns="http://www.w3.org/2000/svg">
<g filter="url(#filter0_d_5383_2190)">
<path d="M32.0015 8.00001C31.1894 7.99822 30.398 8.25025 29.7428 8.71933C29.0875 9.1884 28.6027 9.84997 28.3591 10.6075C28.1155 11.365 28.1259 12.1788 28.3886 12.9302C28.6514 13.6816 29.1529 14.3312 29.8198 14.7842V17.7709C27.8563 18.0483 26.0237 18.6669 24.3656 19.6056L21.9439 16.2135C22.3585 15.1042 22.2494 13.8242 21.5076 12.8001C20.744 11.7548 19.5659 11.2001 18.366 11.2001C17.6024 11.2001 16.8388 11.4134 16.1843 11.8828C14.4608 13.0561 14.0244 15.3815 15.2462 17.0669C15.9879 18.1123 17.1661 18.6669 18.366 18.6669L20.9404 22.251C20.0022 23.1684 19.2605 24.1924 18.6278 25.3231C18.1914 25.1524 17.7333 25.0671 17.2751 25.0671C16.2934 25.0671 15.3116 25.4298 14.548 26.1338C13.0863 27.6272 13.0863 29.9739 14.548 31.4673C15.1807 32.0433 15.9443 32.3633 16.7297 32.534C16.7297 33.686 16.8824 34.7954 17.1224 35.862L14.2644 36.6087C13.5881 36.0541 12.7154 35.734 11.8209 35.734C11.4937 35.734 11.1446 35.734 10.8174 35.862C9.83967 36.1226 9.00778 36.7521 8.50457 37.6122C8.00137 38.4723 7.86804 39.4926 8.13389 40.4488C8.59205 42.1342 10.1847 43.2009 11.8209 43.2009C12.1482 43.2009 12.4754 43.2009 12.8245 43.0729C14.0681 42.7316 15.0062 41.8355 15.3989 40.7262L18.6932 39.8515C19.675 41.5369 20.984 43.0302 22.5112 44.2676L20.1113 48.5344C18.9114 48.705 17.8206 49.3664 17.1879 50.4971C16.9501 50.9285 16.8015 51.4015 16.7507 51.8891C16.6998 52.3767 16.7477 52.8693 16.8915 53.3388C17.0353 53.8084 17.2723 54.2456 17.589 54.6255C17.9056 55.0054 18.2957 55.3207 18.7369 55.5532C19.1781 55.7857 19.6618 55.931 20.1604 55.9807C20.6591 56.0305 21.1628 55.9837 21.643 55.843C22.1231 55.7024 22.5702 55.4706 22.9587 55.161C23.3473 54.8514 23.6697 54.4699 23.9075 54.0385C24.5183 52.9291 24.4965 51.6491 23.9511 50.6037L26.2855 46.401C28.0526 47.0837 29.9725 47.4677 32.0015 47.4677H32.3942C32.1106 48.0224 32.0015 48.6624 32.0015 49.345C32.176 51.3078 33.8341 52.8011 35.8194 52.8011H36.1031C38.2193 52.6305 39.7901 50.8384 39.6374 48.7904C39.5501 47.7237 39.0047 46.785 38.2193 46.1663C39.2447 45.7183 40.2264 45.1423 41.1427 44.4809L46.2479 49.4731C46.0297 50.6678 46.3788 51.8838 47.2733 52.8011C48.0368 53.5052 49.0186 53.8678 50.0004 53.8678C50.9821 53.8678 51.9639 53.5052 52.7275 52.8011C54.1892 51.3078 54.1892 48.961 52.7275 47.4677C51.9639 46.7637 50.9821 46.401 50.0004 46.401C49.7822 46.401 49.564 46.401 49.324 46.465L44.2189 41.4729C45.2879 40.0862 46.117 38.5074 46.6406 36.8007H49.0622C49.5255 37.4529 50.1898 37.9433 50.9582 38.2002C51.7266 38.4572 52.5588 38.4673 53.3335 38.2291C54.1082 37.9909 54.7847 37.5168 55.2644 36.8761C55.7441 36.2353 56.0018 35.4614 56 34.6673C56.0018 33.8733 55.7441 33.0994 55.2644 32.4586C54.7847 31.8179 54.1082 31.3438 53.3335 31.1056C52.5588 30.8674 51.7266 30.8775 50.9582 31.1345C50.1898 31.3914 49.5255 31.8818 49.0622 32.534H47.2733C47.2733 29.1845 46.1824 26.1338 44.2189 23.5951L47.1424 20.7363C47.3823 20.8003 47.6005 20.8003 47.8187 20.8003C48.8004 20.8003 49.7822 20.4377 50.5458 19.7336C52.0075 18.2616 52.0075 15.8935 50.5458 14.4002C49.7822 13.6962 48.8004 13.3335 47.8187 13.3335C46.8369 13.3335 45.8552 13.6962 45.0916 14.4002C44.1971 15.3175 43.848 16.5336 44.0662 17.7283L41.1427 20.587C39.1356 19.115 36.7794 18.1336 34.1832 17.7709V14.7842C34.8501 14.3312 35.3516 13.6816 35.6144 12.9302C35.8771 12.1788 35.8875 11.365 35.6439 10.6075C35.4002 9.84997 34.9155 9.1884 34.2602 8.71933C33.605 8.25025 32.8136 7.99822 32.0015 8.00001ZM32.0015 43.2009C25.9801 43.2009 21.0931 38.4221 21.0931 32.534C21.0931 26.6458 25.9801 21.867 32.0015 21.867C38.0229 21.867 42.9099 26.6458 42.9099 32.534C42.9099 38.4221 38.0229 43.2009 32.0015 43.2009ZM28.729 26.1338C26.9182 26.1338 25.4564 27.5632 25.4564 29.3339C25.4564 31.1046 26.9182 32.534 28.729 32.534C30.5398 32.534 32.0015 31.1046 32.0015 29.3339C32.0015 27.5632 30.5398 26.1338 28.729 26.1338ZM36.3649 34.6673C35.1649 34.6673 34.1832 35.6274 34.1832 36.8007C34.1832 37.9741 35.1649 38.9341 36.3649 38.9341C37.5648 38.9341 38.5465 37.9741 38.5465 36.8007C38.5465 35.6274 37.5648 34.6673 36.3649 34.6673Z" fill="#22C55E"/>
</g>
<defs>
<filter id="filter0_d_5383_2190" x="0" y="0" width="64" height="64" filterUnits="userSpaceOnUse" color-interpolation-filters="sRGB">
<feFlood flood-opacity="0" result="BackgroundImageFix"/>
<feColorMatrix in="SourceAlpha" type="matrix" values="0 0 0 0 0 0 0 0 0 0 0 0 0 0 0 0 0 0 127 0" result="hardAlpha"/>
<feOffset/>
<feGaussianBlur stdDeviation="4"/>
<feComposite in2="hardAlpha" operator="out"/>
<feColorMatrix type="matrix" values="0 0 0 0 0.133333 0 0 0 0 0.772549 0 0 0 0 0.368627 0 0 0 1 0"/>
<feBlend mode="normal" in2="BackgroundImageFix" result="effect1_dropShadow_5383_2190"/>
<feBlend mode="normal" in="SourceGraphic" in2="effect1_dropShadow_5383_2190" result="shape"/>
</filter>
</defs>
</svg>
