<?xml version="1.0" encoding="UTF-8"?>
<svg id="katman_2" data-name="katman 2" xmlns="http://www.w3.org/2000/svg" viewBox="0 0 100 100">
  <defs>
    <style>
      .cls-1 {
        fill: none;
      }

      .cls-1, .cls-2 {
        stroke-width: 0px;
      }

      .cls-2 {
        fill: #36a9e1;
      }
    </style>
  </defs>
  <g id="katman_1" data-name="katman 1">
    <g>
      <g>
        <path class="cls-2" d="m35.79,4.02c-.11-.07-.21-.14-.32-.22-.14-.09-.24-.22-.27-.36-.03-.19.09-.37.3-.45,0,0,0,0,0,0C40.46.95,45.58.02,51.25,0c5.71,0,11.78,1.03,17.36,4.03.03.02.06.03.1.05.03.03.05.05.08.08.26.26.32.67.14.91-.15.2-.42.22-.66.08-5.34-2.96-11.18-4.13-16.73-4.16-5.52-.03-10.54.9-15.39,2.89-.12.05-.24.1-.36.15"/>
        <path class="cls-2" d="m75.4,14.78c-.12,0-.25-.04-.35-.15-3-2.97-6.59-5.69-10.5-7.47-3.9-1.81-8.08-2.76-12.2-2.93-4.1-.18-7.96.35-11.65,1.44-3.69,1.12-7.23,2.81-10.74,5.44-.27.2-.68.21-.92.01-.24-.2-.22-.52.05-.73,3.5-2.68,7.09-4.41,10.83-5.6,3.88-1.21,7.91-1.79,12.19-1.66,4.29.13,8.7,1.04,12.88,2.96,4.04,1.83,7.69,4.56,10.71,7.52.01.01.02.03.04.04.21.25.23.66.03.93-.1.13-.22.2-.35.21"/>
        <path class="cls-2" d="m80.38,26.44c-.16.06-.32.01-.42-.14-2.68-4.33-6.33-8.84-11.04-12.32-4.68-3.48-10.3-5.85-15.92-6.24-3.8-.32-7.47.06-11.01,1.04-.31.09-.68-.07-.84-.35-.16-.28-.04-.57.27-.66,3.65-1.05,7.44-1.49,11.39-1.21,2.98.21,5.99.86,8.89,1.98,2.81,1.08,5.52,2.62,7.96,4.46,4.81,3.65,8.51,8.09,11.14,12.35.14.23.07.64-.15.9-.08.09-.17.16-.26.19"/>
        <path class="cls-2" d="m23.14,23.15c-.12.04-.24.05-.34.03-.3-.06-.38-.37-.19-.71,4.08-6.96,9.69-11.1,15.3-13.45.29-.12.69-.01.87.24.19.26.1.57-.19.69-5.47,2.24-10.86,6.21-14.89,12.75-.13.21-.34.37-.56.45"/>
        <path class="cls-2" d="m19.64,47.27c-.28.2-.49.1-.49-.23-.06-4.9.74-10.44,2.5-15.54,1.76-5.13,4.55-9.63,7.9-12.96,3.36-3.36,7.17-5.57,11.12-6.93,3.97-1.34,8.08-1.89,12.68-1.39,4.13.46,8.2,1.87,11.92,4.16.29.18.45.59.34.92-.11.33-.43.45-.72.26-3.55-2.22-7.43-3.62-11.39-4.13-4.42-.54-8.41-.06-12.26,1.2-3.82,1.29-7.5,3.4-10.74,6.57-3.23,3.15-5.95,7.38-7.72,12.23-1.78,4.82-2.65,10.12-2.63,14.89,0,.33-.24.75-.52.94"/>
        <path class="cls-2" d="m19.6,67.36c-.26.15-.46.01-.46-.31,0-5.41,0-10.82,0-16.23,0-.33.21-.75.49-.95.27-.19.5-.08.5.25-.03,5.44-.05,10.9-.06,16.37,0,.33-.21.71-.47.87"/>
        <path class="cls-2" d="m79.9,54.68c-.32.15-.58,0-.57-.33.05-1.68.09-3.36.14-5.05.18-8.88-2.41-15.44-6.77-21.61-4.37-5.93-11.07-11.25-18.86-12.48-5.62-.93-11.07-.01-16.1,2.8-.28.16-.7.09-.92-.16-.22-.25-.17-.58.11-.75,5.25-3,10.92-4.02,16.82-3.13,4.04.54,7.87,2.26,11.22,4.54,3.35,2.29,6.2,5.14,8.51,8.21,2.31,3.09,4.08,6.38,5.3,9.96,1.21,3.59,1.9,7.42,1.81,12.09-.03,1.68-.06,3.37-.1,5.04,0,.33-.27.73-.59.88"/>
        <path class="cls-2" d="m22.21,76.08c-.27.09-.49-.11-.49-.44-.05-10.25.1-20.39.31-30.4.08-4.91,1.17-10.26,3.34-15.02,2.15-4.78,5.43-8.84,9.21-11.58.27-.2.69-.18.94.05.25.23.23.57-.04.76-3.64,2.6-6.8,6.41-8.91,10.91-2.13,4.49-3.25,9.57-3.37,14.33-.29,10.01-.53,20.23-.5,30.62,0,.34-.22.69-.49.78"/>
        <path class="cls-2" d="m28.58,32.85c-.08.01-.16.01-.23,0-.34-.05-.5-.35-.35-.67,2.44-5.48,6.38-9.75,10.94-12.19,4.7-2.52,9.83-3.25,15.04-2.23,4.16.81,8.21,2.84,11.62,5.7,3.3,2.76,6.01,6.18,8.01,9.81.15.28.06.68-.2.9s-.6.17-.75-.11c-3.86-7.28-10.74-13.43-18.64-15.06-4.99-1.01-9.8-.38-14.15,1.86-4.33,2.23-8.17,6.14-10.65,11.52-.11.24-.37.42-.64.47"/>
        <path class="cls-2" d="m24.98,82.09c-.28.04-.51-.21-.52-.56-.26-12.96.26-25.52.79-37.62.12-2.76.6-5.59,1.46-8.34.1-.33.47-.61.82-.6.35,0,.54.28.44.61-.85,2.61-1.34,5.31-1.48,7.96-.63,12.08-1.3,24.71-1.02,37.83,0,.36-.21.68-.49.72"/>
        <path class="cls-2" d="m72.22,90.06c-.36.02-.66-.19-.67-.47-.62-11.67.44-24.68,1.49-38.45.45-6.87-1.4-12.71-4.75-17.79-3.38-5-8.28-9.08-14.23-10.54-5.22-1.27-10.48-.38-14.95,2.74-.26.18-.68.14-.92-.11-.25-.24-.23-.59.03-.78,4.73-3.38,10.3-4.37,15.84-3.09,6.3,1.48,11.48,5.74,15.06,10.9,3.55,5.27,5.53,11.24,5.13,18.46-.92,13.8-1.91,26.87-1.41,38.57.01.28-.27.53-.63.56"/>
        <path class="cls-2" d="m27.96,86.97c-.29,0-.54-.28-.56-.64-.73-15.2.33-29.72,1.24-43.26.35-5.53,2.43-11.02,5.98-15.1.22-.25.63-.31.93-.12.3.19.36.54.14.78-3.39,3.81-5.4,8.96-5.78,14.24-1.01,13.49-2.25,28.07-1.45,43.42.02.37-.2.67-.49.68"/>
        <path class="cls-2" d="m31.7,53.62c-.33.02-.57-.24-.54-.58.29-3.52.61-6.97.91-10.36.49-6.01,3.38-11.31,7.43-14.48,4.06-3.21,9.22-4.26,14.52-2.87,2.2.59,4.3,1.59,6.25,2.95,1.88,1.31,3.57,2.92,5.05,4.76.22.27.21.68-.02.91-.23.23-.58.2-.8-.07-2.83-3.6-6.46-6.18-10.53-7.32-4.97-1.36-9.81-.39-13.62,2.58-3.79,2.94-6.51,7.85-7.02,13.51-.32,3.38-.67,6.82-.99,10.34-.03.34-.32.62-.65.63"/>
        <path class="cls-2" d="m31.18,91c-.3,0-.58-.31-.61-.68-1.02-11.54-.51-23.06.29-33.62.03-.34.31-.64.63-.66.32-.02.56.25.53.59-.88,10.53-1.44,22.13-.36,33.71.04.37-.18.66-.48.65"/>
        <path class="cls-2" d="m65.95,95.56c-.34,0-.65-.22-.69-.49-1.03-6.52-1.29-13.74-.95-21.08.32-7.37,1.25-14.87,2.15-22.73,1.01-9.33-4.57-18.33-12.7-20.98-8.12-2.62-16.01,3.21-17.04,12.56-.87,7.64-1.89,15.6-2.4,24.1-.02.36-.29.63-.59.61-.31-.02-.54-.31-.52-.67.48-8.5,1.44-16.49,2.26-24.16.51-4.96,2.93-9.16,6.29-11.66,3.37-2.52,7.68-3.3,12.08-2,8.79,2.82,14.83,12.3,13.83,22.28-.86,7.89-1.73,15.41-2.05,22.76-.33,7.32-.1,14.47.86,20.95.04.27-.2.49-.54.49"/>
        <path class="cls-2" d="m34.59,94.22c-.31-.01-.61-.32-.66-.68-1.05-7.62-1.18-15.73-.88-23.27.01-.36.27-.65.58-.63.3.01.54.32.52.69-.32,7.54-.18,15.68.92,23.27.05.36-.16.64-.47.62"/>
        <path class="cls-2" d="m38.11,96.63c-.32-.01-.64-.3-.7-.64-1.64-8.84-1.78-18.62-1.26-27.55.51-9.04,1.68-17.23,2.67-25.29.96-7.93,7.73-12.74,14.74-10.39,7,2.36,11.81,10.26,10.86,18.23-1.22,9.59-2.42,18.73-2.47,27.78,0,.31-.29.52-.65.47-.35-.05-.64-.34-.64-.65.05-9.12,1.3-18.25,2.56-27.8.92-7.32-3.42-14.65-9.78-16.83-6.36-2.17-12.5,2.18-13.41,9.43-1.03,8.05-2.24,16.2-2.77,25.21-.53,8.91-.37,18.68,1.3,27.45.07.34-.14.6-.46.59"/>
        <path class="cls-2" d="m60.02,98.56c-.33,0-.65-.22-.71-.48-1.7-7.01-2.31-15.41-1.98-23.54.3-8.22,1.55-16.17,2.72-24.53.37-2.59-.17-5.29-1.51-7.63-1.32-2.32-3.26-4.03-5.49-4.81-4.62-1.64-9.04,1.38-9.77,6.63-1.2,8.54-2.62,17.36-3.08,26.99-.02.36-.28.59-.59.54-.31-.06-.55-.4-.53-.75.46-9.67,1.85-18.54,3.02-27.09.39-2.83,1.75-5.21,3.84-6.63,2.11-1.44,4.69-1.73,7.26-.84,2.56.89,4.8,2.83,6.31,5.46,1.5,2.6,2.12,5.6,1.72,8.48-1.15,8.38-2.36,16.34-2.64,24.49-.32,8.07.29,16.33,1.93,23.27.06.26-.15.48-.48.48"/>
        <path class="cls-2" d="m41.64,98.3c-.33,0-.65-.27-.73-.59-1.46-6.21-2.03-13.66-2-20.6,0-.37.26-.62.57-.57.31.05.56.39.56.76-.02,6.9.57,14.31,2.05,20.44.08.32-.12.56-.45.56"/>
        <path class="cls-2" d="m57.02,99.4c-.33,0-.65-.21-.72-.48-1.02-3.77-1.74-8.25-2.11-12.8-.37-4.57-.38-9.21-.13-13.77.02-.32.3-.51.64-.41s.59.42.58.74c-.24,4.52-.23,9.11.14,13.62.36,4.49,1.08,8.89,2.07,12.63.07.26-.14.47-.47.47"/>
        <path class="cls-2" d="m54.86,69.69c-.33-.1-.58-.44-.56-.76.55-6.7,1.6-13.22,2.61-19.9.5-3.32-1.44-6.84-4.32-7.9-2.88-1.06-5.64.78-6.13,4.06-.62,4.16-1.29,8.34-1.86,12.64-.04.33-.33.51-.65.41-.32-.1-.54-.44-.49-.77.57-4.32,1.22-8.52,1.83-12.68.57-3.92,3.93-6.12,7.45-4.83,3.52,1.28,5.9,5.48,5.32,9.44-1,6.7-2.02,13.22-2.56,19.88-.03.32-.32.5-.65.4"/>
        <path class="cls-2" d="m45.1,99.33c-.33,0-.66-.24-.74-.54-1.52-5.59-2.25-12.53-2.36-19.16-.12-6.7.37-13.08,1.09-19.22.04-.33.33-.53.64-.43.32.1.54.44.5.78-.73,6.11-1.21,12.45-1.08,19.09.12,6.57.87,13.45,2.39,18.96.08.29-.11.53-.44.52"/>
        <path class="cls-2" d="m53.97,99.92c-.33,0-.65-.21-.73-.48-2.16-7.38-2.91-16.96-2.53-25.77.33-8.98,1.8-17.18,3.09-25.76.21-1.35-.56-2.81-1.72-3.24-1.16-.44-2.27.31-2.48,1.66-1.31,8.44-2.76,16.96-3.19,26.13-.22,4.57-.17,9.3.23,13.98.4,4.65,1.16,9.24,2.27,12.99.08.28-.11.5-.44.5-.33,0-.66-.22-.74-.5-1.13-3.79-1.88-8.45-2.28-13.15-.4-4.73-.43-9.51-.21-14.12.45-9.24,1.9-17.8,3.2-26.24.3-1.98,2.01-3.05,3.8-2.38,1.79.67,3,2.83,2.7,4.82-1.29,8.58-2.73,16.78-3.05,25.67-.36,8.73.41,18.16,2.52,25.44.08.26-.13.47-.45.47"/>
        <path class="cls-2" d="m48.6,83.93c-.33-.06-.61-.39-.63-.73-.33-6.32-.02-12.53.61-18.49.63-5.98,1.59-11.7,2.49-17.47.05-.32.35-.48.66-.36.32.12.53.48.48.79-.9,5.78-1.85,11.49-2.47,17.43-.63,5.92-.92,12.08-.58,18.32.02.34-.23.57-.56.51"/>
        <path class="cls-2" d="m51.25,100c-.33,0-.66-.21-.74-.49-1.38-4.61-2.24-10.54-2.54-16.32-.02-.35.24-.57.56-.51.33.06.61.39.63.73.3,5.71,1.17,11.55,2.52,16.1.08.27-.12.48-.44.48"/>
      </g>
      <rect class="cls-1" y="0" width="100" height="100"/>
    </g>
  </g>
</svg>