<svg width="64" height="64" viewBox="0 0 64 64" fill="none" xmlns="http://www.w3.org/2000/svg">
<g filter="url(#filter0_d_5383_2202)">
<path d="M19.6253 28.6954C19.8284 28.6954 20.055 28.7266 20.305 28.7891C20.555 28.8516 20.805 28.9376 21.055 29.0469C21.305 29.1563 21.5549 29.2579 21.8049 29.3516C22.0549 29.4454 22.2815 29.5391 22.4846 29.6329L22.1096 29.6797C21.9846 29.6954 21.8518 29.7032 21.7112 29.7032C21.4456 29.7032 21.2034 29.6641 20.9847 29.586C20.7659 29.5079 20.5628 29.4063 20.3753 29.2813C20.1878 29.1563 20.0003 29.0626 19.8128 29.0001C19.6253 28.9376 19.4534 28.8907 19.2972 28.8595C19.1409 28.8595 19.0003 28.8907 18.8753 28.9532C18.7503 29.0157 18.6253 29.086 18.5003 29.1641C18.5003 29.1016 18.4457 29.0704 18.3363 29.0704C18.4457 28.961 18.6488 28.8751 18.9456 28.8126C19.2425 28.7501 19.4691 28.711 19.6253 28.6954ZM22.7893 29.7501C23.4299 29.7501 24.0158 29.8594 24.5471 30.0782C24.3283 30.1563 24.1096 30.2188 23.8908 30.2657C23.6721 30.3125 23.4455 30.3438 23.2112 30.3594C22.8987 30.3594 22.6174 30.3282 22.3674 30.2657C22.4456 30.1407 22.5237 30.0625 22.6018 30.0313C22.6799 30 22.7424 29.9063 22.7893 29.7501ZM32 8.0006C34.2031 8.0006 36.3202 8.28966 38.3514 8.86777C40.3826 9.44588 42.2888 10.2505 44.07 11.2818C45.8512 12.313 47.4762 13.5708 48.9449 15.0551C50.4136 16.5394 51.6636 18.1566 52.6948 19.9066C53.726 21.6565 54.5385 23.5627 55.1322 25.6252C55.726 27.6876 56.015 29.8126 55.9994 32C55.9994 34.2031 55.7103 36.3202 55.1322 38.3514C54.5541 40.3826 53.7495 42.2888 52.7182 44.07C51.687 45.8512 50.4292 47.4762 48.9449 48.9449C47.4606 50.4136 45.8434 51.6636 44.0934 52.6948C42.3435 53.726 40.4373 54.5385 38.3748 55.1322C36.3124 55.726 34.1874 56.015 32 55.9994C29.7969 55.9994 27.6798 55.7103 25.6486 55.1322C23.6174 54.5541 21.7112 53.7495 19.93 52.7182C18.1488 51.687 16.5238 50.4292 15.0551 48.9449C13.5864 47.4606 12.3364 45.8434 11.3052 44.0934C10.274 42.3435 9.4615 40.4373 8.86777 38.3748C8.27403 36.3124 7.98498 34.1874 8.0006 32C8.0006 29.7969 8.28966 27.6798 8.86777 25.6486C9.44588 23.6174 10.2505 21.7112 11.2818 19.93C12.313 18.1488 13.5708 16.5238 15.0551 15.0551C16.5394 13.5864 18.1566 12.3364 19.9066 11.3052C21.6565 10.274 23.5627 9.4615 25.6252 8.86777C27.6876 8.27403 29.8126 7.98498 32 8.0006ZM49.8589 21.0081C49.6402 20.6643 49.4214 20.3362 49.2027 20.0237C48.984 19.7112 48.7574 19.3909 48.523 19.0628C48.4918 19.2034 48.4527 19.305 48.4058 19.3675C48.359 19.43 48.3277 19.5706 48.3121 19.7894C48.3121 19.93 48.3668 20.0628 48.4762 20.1878C48.5855 20.3128 48.7261 20.4378 48.898 20.5628C49.0699 20.6878 49.2418 20.7815 49.4136 20.844C49.5855 20.9065 49.7339 20.9612 49.8589 21.0081ZM48.2418 18.7113C48.2418 18.8363 48.2183 18.9222 48.1715 18.9691H48.3121C48.3746 18.9691 48.4215 18.9769 48.4527 18.9925L48.2418 18.7113ZM32 52.9995C33.7812 52.9995 35.5233 52.7729 37.2264 52.3198C38.9295 51.8667 40.5388 51.2261 42.0544 50.398C43.57 49.5699 44.9762 48.5543 46.2731 47.3512C47.5699 46.1481 48.7027 44.8044 49.6714 43.32C49.4683 42.8513 49.273 42.3747 49.0855 41.8904C48.898 41.406 48.8043 40.906 48.8043 40.3904C48.8043 39.8279 48.8277 39.3748 48.8746 39.0311C48.9215 38.6873 48.9761 38.3827 49.0386 38.117C49.1011 37.8514 49.1324 37.6249 49.1324 37.4374C49.1324 37.2499 49.1089 37.0077 49.0621 36.7108C49.0152 36.414 48.8824 36.0936 48.6636 35.7499C48.4449 35.4062 48.1558 34.9218 47.7965 34.2968C47.8121 34.1874 47.8355 34.039 47.8668 33.8515C47.898 33.664 47.9293 33.4687 47.9605 33.2656C47.9918 33.0625 47.9996 32.875 47.984 32.7031C47.9683 32.5312 47.9293 32.3828 47.8668 32.2578C47.4606 32.2109 47.0387 32.125 46.6012 32C46.1637 31.875 45.7731 31.6875 45.4294 31.4375L45.57 31.3203C45.3669 31.3672 45.1637 31.4297 44.9606 31.5078C44.7575 31.5859 44.5622 31.6719 44.3747 31.7656C44.1872 31.8594 43.9841 31.9219 43.7653 31.9531C43.5466 31.9844 43.3357 32.0156 43.1325 32.0469L42.7575 32L42.8279 31.8359C42.6091 31.8984 42.3747 31.9766 42.1247 32.0703C41.8748 32.1641 41.6326 32.2109 41.3982 32.2109C41.242 32.2109 41.0154 32.1562 40.7185 32.0469C40.4217 31.9375 40.1248 31.8047 39.8279 31.6484C39.5311 31.4922 39.2654 31.3203 39.0311 31.1328C38.7967 30.9453 38.6795 30.7657 38.6795 30.5938L38.7264 30.5235C38.6483 30.4297 38.5467 30.3438 38.4217 30.2657C38.2967 30.1875 38.1795 30.1094 38.0702 30.0313C37.9608 29.9532 37.8592 29.8672 37.7655 29.7735C37.6717 29.6797 37.6327 29.5704 37.6483 29.4454L37.9061 29.2344L37.3671 29.1641L37.1796 28.461C37.2108 28.5391 37.2811 28.5704 37.3905 28.5548C37.4999 28.5391 37.5858 28.5079 37.6483 28.461L36.8046 28.0157L37.3905 26.5158C37.1717 25.7033 37.1171 25.0783 37.2264 24.6408C37.3358 24.2033 37.5467 23.844 37.8592 23.5627C38.1717 23.2815 38.5155 23.0002 38.8905 22.719C39.2654 22.4377 39.6482 22.0549 40.0389 21.5706L39.9685 21.2893L41.5154 19.4144L41.8669 19.3675C42.3044 19.3675 42.7966 19.3519 43.3435 19.3206C43.8903 19.2894 44.445 19.2347 45.0075 19.1566C45.57 19.0784 46.1246 19.0003 46.6715 18.9222C47.2184 18.8441 47.7184 18.7425 48.1715 18.6175C47.6715 18.0238 47.1481 17.4613 46.6012 16.9301C46.0543 16.3988 45.4684 15.891 44.8434 15.4067C44.6716 15.4692 44.4606 15.5551 44.2106 15.6645C43.9606 15.7738 43.7106 15.9145 43.4607 16.0863C43.2107 16.2582 43.0154 16.4457 42.8747 16.6488C42.7341 16.8519 42.6482 17.0629 42.6169 17.2816L42.7575 17.7269C42.4763 18.18 42.1638 18.4613 41.8201 18.5706C41.4763 18.68 41.1248 18.7425 40.7654 18.7581C40.406 18.7738 40.031 18.7738 39.6404 18.7581C39.2498 18.7425 38.8748 18.8128 38.5155 18.9691L38.1405 18.1722L38.492 16.8129L38.0936 16.227L42.1482 14.9614C41.9763 14.5239 41.6951 14.1958 41.3045 13.977C40.9138 13.7583 40.4842 13.6489 40.0154 13.6489V13.4145L41.3279 13.2036C39.8748 12.4849 38.367 11.938 36.8046 11.563C35.2421 11.188 33.6406 11.0005 32 11.0005C30.6407 11.0005 29.2969 11.1333 27.9689 11.399C26.6408 11.6646 25.3595 12.0474 24.1252 12.5474C22.8909 13.0473 21.6956 13.6723 20.5393 14.4223C19.3831 15.1723 18.3285 16.016 17.3754 16.9535C17.7816 16.9535 18.0941 17.0551 18.3128 17.2582C18.5316 17.4613 18.7347 17.6879 18.9222 17.9379C19.1097 18.1878 19.305 18.4144 19.5081 18.6175C19.7112 18.8206 19.9847 18.93 20.3284 18.9456L20.7034 18.6644L20.6565 18.1488L21.43 17.0472L20.8206 15.3129C20.8987 15.266 21.0159 15.1879 21.1721 15.0785C21.3284 14.9692 21.4612 14.9145 21.5706 14.9145C22.0393 14.9145 22.3987 14.9379 22.6487 14.9848C22.8987 15.0317 23.1174 15.1176 23.3049 15.2426C23.4924 15.3676 23.6565 15.5473 23.7971 15.7817C23.9377 16.016 24.1564 16.3129 24.4533 16.6723L25.297 16.016C25.4533 16.0785 25.7033 16.1801 26.047 16.3207C26.3908 16.4613 26.7423 16.6332 27.1017 16.8363C27.4611 17.0394 27.7657 17.2504 28.0157 17.4691C28.2657 17.6879 28.3985 17.891 28.4142 18.0785C28.4142 18.3128 28.3282 18.5003 28.1563 18.641C27.9845 18.7816 27.7579 18.8988 27.4767 18.9925C27.1954 19.0863 26.9064 19.1566 26.6095 19.2034C26.3126 19.2503 26.0158 19.3128 25.7189 19.3909C25.422 19.4691 25.1955 19.5472 25.0392 19.6253C24.883 19.7034 24.7892 19.8362 24.758 20.0237L26.1173 20.469C25.8048 20.7347 25.4689 20.9768 25.1095 21.1956C24.7502 21.4143 24.3752 21.6174 23.9846 21.8049L24.0783 22.2034L21.9221 23.0471V23.7033L21.7581 23.7736L21.8753 22.9534L21.7815 22.9299C21.6721 22.9299 21.6096 22.9534 21.594 23.0002C21.5784 23.0471 21.5706 23.1018 21.5706 23.1643C21.5706 23.2268 21.5862 23.2893 21.6174 23.3518C21.6487 23.4143 21.6565 23.4612 21.6409 23.4924L21.3362 23.3283L21.3831 23.4221C21.3831 23.469 21.4065 23.5393 21.4534 23.633C21.5003 23.7268 21.5628 23.8127 21.6409 23.8908C21.719 23.969 21.7815 24.0471 21.8284 24.1252C21.8753 24.2033 21.9065 24.2424 21.9221 24.2424C21.9221 24.2893 21.8909 24.3361 21.8284 24.383C21.7659 24.4299 21.6878 24.4611 21.594 24.4768C21.5003 24.4924 21.4378 24.5158 21.4065 24.5471C21.3753 24.5783 21.3753 24.5861 21.4065 24.5705C21.6253 24.5705 21.6721 24.5861 21.5471 24.6174C21.4221 24.6486 21.2268 24.7267 20.9612 24.8517C20.6956 24.9767 20.4534 25.1564 20.2347 25.3908C20.0159 25.6252 19.8909 25.9689 19.8597 26.422C19.8597 26.6876 19.8675 26.9454 19.8831 27.1954C19.8987 27.4454 19.8909 27.7032 19.8597 27.9689C19.6409 27.3751 19.3128 26.922 18.8753 26.6095C18.4378 26.297 17.9066 26.1408 17.2816 26.1408L16.2738 26.2345L16.766 26.5626C16.5004 26.5314 16.227 26.5001 15.9457 26.4689C15.6645 26.4376 15.3754 26.4298 15.0785 26.4455C14.7817 26.4611 14.5161 26.5236 14.2817 26.6329C14.0473 26.7423 13.813 26.9064 13.5786 27.1251L13.438 28.1798C13.438 28.6798 13.5473 29.086 13.7661 29.3985C13.9848 29.711 14.3676 29.8751 14.9145 29.8907C15.3832 29.8907 15.8442 29.8204 16.2973 29.6797C16.7504 29.5391 17.1957 29.3751 17.6332 29.1876C17.4926 29.5313 17.3363 29.8594 17.1644 30.1719C16.9926 30.4844 16.8676 30.8282 16.7894 31.2031L17.0941 31.3438C17.4691 31.0938 17.8129 31.0547 18.1253 31.2266C18.4378 31.3985 18.7425 31.6484 19.0394 31.9766C19.3363 32.3047 19.6409 32.6406 19.9534 32.9844C20.2659 33.3281 20.6018 33.5781 20.9612 33.7343L20.1644 34.1562L18.2894 33.1015C18.305 33.1328 18.3207 33.2031 18.3363 33.3125C18.3519 33.4218 18.3441 33.4453 18.3128 33.3828L17.4691 31.9531C16.9691 31.9375 16.4379 31.8594 15.8754 31.7188C15.3129 31.5781 14.7426 31.3906 14.1645 31.1563C13.5864 30.9219 13.0473 30.6641 12.5474 30.3829C12.0474 30.1016 11.5864 29.8047 11.1646 29.4923L11.0005 32C11.0005 33.9062 11.2583 35.7655 11.7739 37.578C12.2896 39.3904 13.0161 41.0935 13.9536 42.6872C14.8911 44.2809 16.0395 45.734 17.3988 47.0465C18.7581 48.359 20.2659 49.4761 21.9221 50.398C21.844 50.0699 21.8362 49.7417 21.8987 49.4136C21.9612 49.0855 22.0393 48.7574 22.1331 48.4293C22.2268 48.1012 22.3284 47.773 22.4377 47.4449C22.5471 47.1168 22.6018 46.7809 22.6018 46.4371C22.6018 45.9372 22.5237 45.4137 22.3674 44.8669C22.2112 44.32 22.0237 43.7653 21.8049 43.2028C21.5862 42.6404 21.344 42.0857 21.0784 41.5388C20.8128 40.992 20.6018 40.4763 20.4456 39.992C20.2894 39.5076 20.1644 39.0545 20.0706 38.6326C19.9769 38.2108 20.0237 37.8436 20.2112 37.5311L19.8597 37.3671C19.9534 37.1483 20.0784 36.9374 20.2347 36.7343C20.3909 36.5311 20.555 36.328 20.7268 36.1249C20.8987 35.9218 21.0315 35.703 21.1253 35.4687C21.219 35.2343 21.2737 34.9999 21.2893 34.7656C21.2893 34.6093 21.2581 34.4453 21.1956 34.2734C21.1331 34.1015 21.0784 33.9375 21.0315 33.7812L21.5237 33.8984C21.7893 33.289 22.1487 32.875 22.6018 32.6562C23.0549 32.4375 23.6252 32.3203 24.3127 32.3047C24.3908 32.3047 24.5549 32.3359 24.8049 32.3984C25.0549 32.4609 25.3205 32.5469 25.6017 32.6562C25.883 32.7656 26.1486 32.8515 26.3986 32.914C26.6486 32.9765 26.8361 33.039 26.9611 33.1015C26.9611 33.2109 27.0236 33.2812 27.1486 33.3125C27.2736 33.3437 27.3439 33.3984 27.3595 33.4765L27.3126 33.664C27.3595 33.6796 27.4689 33.7343 27.6407 33.8281C27.8126 33.9218 28.0001 34.039 28.2032 34.1796C28.4063 34.3203 28.586 34.4453 28.7423 34.5546C28.8985 34.664 29.0079 34.7499 29.0704 34.8124C29.3516 34.8124 29.7344 34.9062 30.2188 35.0937C30.7032 35.2812 31.2344 35.5155 31.8125 35.7968C32.3906 36.078 32.9609 36.414 33.5234 36.8046C34.0859 37.1952 34.6171 37.5858 35.1171 37.9764C35.6171 38.367 35.9999 38.7576 36.2655 39.1483C36.5311 39.5389 36.6874 39.8826 36.7343 40.1795L35.9374 41.0232C35.9999 41.8201 35.9452 42.4294 35.7733 42.8513C35.6015 43.2732 35.3359 43.6247 34.9765 43.906C34.6171 44.1872 34.2031 44.4216 33.7343 44.6091C33.2656 44.7966 32.7578 45.0622 32.2109 45.4059C32.2109 45.7184 32.1328 46.0543 31.9766 46.4137C31.8203 46.7731 31.625 47.1168 31.3906 47.4449C31.1563 47.773 30.875 48.0465 30.5469 48.2652C30.2188 48.484 29.8907 48.5933 29.5626 48.5933L28.5782 47.8434C28.6095 47.8746 28.6095 47.9293 28.5782 48.0074C28.547 48.0855 28.5079 48.1012 28.461 48.0543C28.6173 48.3512 28.6563 48.6949 28.5782 49.0855C28.5001 49.4761 28.3673 49.8746 28.1798 50.2808C27.9923 50.687 27.7814 51.0698 27.547 51.4292C27.3126 51.7886 27.1017 52.0932 26.9142 52.3432C27.7579 52.562 28.6016 52.726 29.4454 52.8354C30.2891 52.9448 31.1406 52.9995 32 52.9995Z" fill="#84CC16"/>
</g>
<defs>
<filter id="filter0_d_5383_2202" x="0" y="0" width="64" height="64" filterUnits="userSpaceOnUse" color-interpolation-filters="sRGB">
<feFlood flood-opacity="0" result="BackgroundImageFix"/>
<feColorMatrix in="SourceAlpha" type="matrix" values="0 0 0 0 0 0 0 0 0 0 0 0 0 0 0 0 0 0 127 0" result="hardAlpha"/>
<feOffset/>
<feGaussianBlur stdDeviation="4"/>
<feComposite in2="hardAlpha" operator="out"/>
<feColorMatrix type="matrix" values="0 0 0 0 0.517647 0 0 0 0 0.8 0 0 0 0 0.0862745 0 0 0 1 0"/>
<feBlend mode="normal" in2="BackgroundImageFix" result="effect1_dropShadow_5383_2202"/>
<feBlend mode="normal" in="SourceGraphic" in2="effect1_dropShadow_5383_2202" result="shape"/>
</filter>
</defs>
</svg>
