<svg width="48" height="48" viewBox="0 0 48 48" fill="none" xmlns="http://www.w3.org/2000/svg">
<path d="M4 1H44C45.6569 1 47 2.34315 47 4V44C47 45.6569 45.6569 47 44 47H4C2.34315 47 1 45.6569 1 44V4C1 2.34315 2.34315 1 4 1Z" fill="#EC4899" stroke="black" stroke-width="2" stroke-linecap="round" stroke-linejoin="round"/>
<path d="M28.7084 10.9793C30.5263 8.09753 31.4371 6.65755 32.6287 6.22195C33.4484 5.92341 34.347 5.92341 35.1667 6.22195C36.3583 6.65755 37.269 8.09753 39.087 10.9793C41.1336 14.221 42.1578 15.8428 41.9778 17.1802C41.8536 18.0982 41.391 18.937 40.6818 19.531C39.6486 20.3986 37.7316 20.3986 33.8977 20.3986C30.0637 20.3986 28.1468 20.3986 27.1118 19.531C26.402 18.9364 25.9404 18.0979 25.8176 17.1802C25.6376 15.8428 26.6618 14.221 28.7084 10.9793ZM5.99805 13.1987C5.99805 10.1981 5.99805 8.69872 6.76124 7.64753C7.00963 7.30554 7.30483 7.01034 7.64683 6.76194C8.69801 5.99875 10.1974 5.99875 13.198 5.99875C16.1985 5.99875 17.6979 5.99875 18.7491 6.76194C19.0911 7.01034 19.3863 7.30554 19.6347 7.64753C20.3979 8.69872 20.3979 10.1981 20.3979 13.1987C20.3979 16.1992 20.3979 17.6986 19.6347 18.7498C19.3883 19.0901 19.0894 19.389 18.7491 19.6354C17.6979 20.3986 16.1985 20.3986 13.198 20.3986C10.1974 20.3986 8.69801 20.3986 7.64683 19.6354C7.30652 19.389 7.00759 19.0901 6.76124 18.7498C5.99805 17.6986 5.99805 16.1992 5.99805 13.1987Z" stroke="black" stroke-width="3" stroke-linecap="round" stroke-linejoin="round"/>
<path d="M33.8991 41.9994C37.8755 41.9994 41.099 38.7759 41.099 34.7995C41.099 30.8231 37.8755 27.5996 33.8991 27.5996C29.9227 27.5996 26.6992 30.8231 26.6992 34.7995C26.6992 38.7759 29.9227 41.9994 33.8991 41.9994Z" stroke="black" stroke-width="3" stroke-linecap="round" stroke-linejoin="round"/>
<path d="M19.5002 28.5L6.90039 41.0998M6.90039 28.5L19.5002 41.0998" stroke="black" stroke-width="3" stroke-linecap="round" stroke-linejoin="round"/>
</svg>
