<svg width="68" height="68" viewBox="0 0 68 68" fill="none" xmlns="http://www.w3.org/2000/svg">
<g filter="url(#filter0_d_5726_1857)">
<path d="M28.5006 39.5005L13.1008 54.9003M13.1008 39.5005L28.5006 54.9003M39.757 18.0882C41.979 14.566 43.0922 12.8061 44.5486 12.2737C45.5504 11.9088 46.6488 11.9088 47.6505 12.2737C49.1069 12.8061 50.2201 14.566 52.4421 18.0882C54.9435 22.0503 56.1952 24.0325 55.9752 25.6671C55.8234 26.7891 55.258 27.8143 54.3913 28.5403C53.1285 29.6006 50.7855 29.6006 46.0996 29.6006C41.4136 29.6006 39.0707 29.6006 37.8057 28.5403C36.9382 27.8136 36.374 26.7887 36.2239 25.6671C36.0039 24.0325 37.2557 22.0503 39.757 18.0882ZM12 20.8008C12 17.1334 12 15.3008 12.9328 14.016C13.2364 13.598 13.5972 13.2372 14.0152 12.9337C15.3 12.0009 17.1325 12.0009 20.7999 12.0009C24.4672 12.0009 26.2998 12.0009 27.5846 12.9337C28.0026 13.2372 28.3634 13.598 28.667 14.016C29.5998 15.3008 29.5998 17.1334 29.5998 20.8008C29.5998 24.4681 29.5998 26.3007 28.667 27.5855C28.3659 28.0014 28.0005 28.3668 27.5846 28.6679C26.2998 29.6006 24.4672 29.6006 20.7999 29.6006C17.1325 29.6006 15.3 29.6006 14.0152 28.6679C13.5992 28.3668 13.2339 28.0014 12.9328 27.5855C12 26.3007 12 24.4681 12 20.8008ZM54.8986 47.1996C54.8986 52.0596 50.9588 55.9994 46.0987 55.9994C41.2387 55.9994 37.2988 52.0596 37.2988 47.1996C37.2988 42.3395 41.2387 38.3997 46.0987 38.3997C50.9588 38.3997 54.8986 42.3395 54.8986 47.1996Z" stroke="#EC4899" stroke-width="4.39994" stroke-linecap="round" stroke-linejoin="round"/>
</g>
<defs>
<filter id="filter0_d_5726_1857" x="0.200781" y="0.200781" width="67.5984" height="67.5984" filterUnits="userSpaceOnUse" color-interpolation-filters="sRGB">
<feFlood flood-opacity="0" result="BackgroundImageFix"/>
<feColorMatrix in="SourceAlpha" type="matrix" values="0 0 0 0 0 0 0 0 0 0 0 0 0 0 0 0 0 0 127 0" result="hardAlpha"/>
<feOffset/>
<feGaussianBlur stdDeviation="4.8"/>
<feColorMatrix type="matrix" values="0 0 0 0 0.92549 0 0 0 0 0.282353 0 0 0 0 0.6 0 0 0 1 0"/>
<feBlend mode="normal" in2="BackgroundImageFix" result="effect1_dropShadow_5726_1857"/>
<feBlend mode="normal" in="SourceGraphic" in2="effect1_dropShadow_5726_1857" result="shape"/>
</filter>
</defs>
</svg>
