<svg width="63" height="64" viewBox="0 0 63 64" fill="none" xmlns="http://www.w3.org/2000/svg">
<g filter="url(#filter0_d_5383_2214)">
<path d="M29.5207 8.00108C26.7803 8.03102 24.1978 8.58855 21.8323 9.61875L26.8883 20.3426C27.865 19.7657 28.9197 19.2542 30.0536 18.817L31.7855 8.09619C31.0328 8.02524 30.2768 7.99356 29.5207 8.00108ZM33.6631 8.34688L32.0834 18.1381C33.7985 17.6482 35.6751 17.3093 37.7196 17.1424L37.9608 17.1232L44.8657 12.8762C41.0214 10.4608 37.2454 8.97353 33.6631 8.34688ZM20.1321 10.4624C18.2332 11.5245 16.4989 12.914 14.9717 14.6049C14.0905 15.5806 13.2781 16.663 12.5422 17.8432L21.252 25.3824C22.3923 23.8603 23.7531 22.5166 25.2895 21.3956L20.1321 10.4624ZM37.3867 19.0866C27.3983 20.0511 22.2867 25.0841 19.8848 32.0497C17.514 38.9243 17.9682 47.7391 19.7007 56L43.2704 55.9998C41.9357 50.7917 39.5339 48.3325 37.634 46.2023C36.615 45.0597 35.6897 43.9825 35.325 42.5514C35.0232 41.3682 35.1818 40.0406 35.8483 38.4915C34.6402 38.1048 33.2025 38.0883 31.4712 38.5106L31.024 36.6678C33.9938 35.9434 36.6334 36.3153 38.6235 37.8127C40.4748 39.2057 41.6885 41.4818 42.3218 44.4291C44.9702 44.8767 47.9349 45.2192 51.4154 45.3933C51.8759 42.2875 52.9873 39.2145 54.5491 36.1698C47.7651 31.0916 42.3044 25.2206 37.3867 19.0866ZM11.581 19.521C10.3321 21.9123 9.37497 24.6495 8.76447 27.698L18.2321 31.0441C18.7541 29.6079 19.3977 28.2396 20.1799 26.9619L11.581 19.521ZM34.0056 23.8188C35.4161 23.8188 36.5589 24.9617 36.5589 26.3721C36.5589 27.7827 35.416 28.9254 34.0056 28.9254C32.5951 28.9254 31.4523 27.7827 31.4523 26.3721C31.4523 24.9615 32.5952 23.8188 34.0056 23.8188ZM8.4347 29.5915C8.11529 31.7671 7.96578 34.0861 8.00659 36.5378L16.6085 38.1998C16.8189 36.3556 17.1555 34.5634 17.6456 32.8489L8.4347 29.5915ZM8.07946 38.4821C8.17771 40.2355 8.36934 42.0521 8.66307 43.9279L16.3452 44.0771C16.3202 42.7373 16.3503 41.407 16.4371 40.0994L8.07946 38.4821ZM8.99294 45.831C9.3089 47.501 9.70494 49.2165 10.1825 50.9724L16.8052 50.278C16.626 48.8416 16.4952 47.4041 16.4181 45.9738L8.99294 45.831ZM17.065 52.1587L10.7121 52.8246C11.0254 53.8698 11.3606 54.9083 11.7175 55.9395H17.7408C17.4841 54.6851 17.2587 53.4244 17.065 52.1587Z" fill="#FB923C"/>
</g>
<defs>
<filter id="filter0_d_5383_2214" x="0" y="0" width="62.5488" height="64" filterUnits="userSpaceOnUse" color-interpolation-filters="sRGB">
<feFlood flood-opacity="0" result="BackgroundImageFix"/>
<feColorMatrix in="SourceAlpha" type="matrix" values="0 0 0 0 0 0 0 0 0 0 0 0 0 0 0 0 0 0 127 0" result="hardAlpha"/>
<feOffset/>
<feGaussianBlur stdDeviation="4"/>
<feComposite in2="hardAlpha" operator="out"/>
<feColorMatrix type="matrix" values="0 0 0 0 0.917647 0 0 0 0 0.345098 0 0 0 0 0.0470588 0 0 0 1 0"/>
<feBlend mode="normal" in2="BackgroundImageFix" result="effect1_dropShadow_5383_2214"/>
<feBlend mode="normal" in="SourceGraphic" in2="effect1_dropShadow_5383_2214" result="shape"/>
</filter>
</defs>
</svg>
