<svg width="48" height="48" viewBox="0 0 48 48" fill="none" xmlns="http://www.w3.org/2000/svg">
<path d="M4 1H44C45.6569 1 47 2.34315 47 4V44C47 45.6569 45.6569 47 44 47H4C2.34315 47 1 45.6569 1 44V4C1 2.34315 2.34315 1 4 1Z" fill="#FB923C" stroke="black" stroke-width="2" stroke-linecap="round" stroke-linejoin="round"/>
<path d="M22.0355 4.0009C19.7518 4.02585 17.5997 4.49046 15.6285 5.34896L19.8418 14.2855C20.6557 13.8048 21.5346 13.3785 22.4796 13.0142L23.9229 4.08016C23.2955 4.02103 22.6656 3.99463 22.0355 4.0009ZM25.4875 4.28907L24.1711 12.4484C25.6003 12.0402 27.1642 11.7578 28.8679 11.6187L29.0689 11.6026L34.823 8.0635C31.6194 6.05064 28.4727 4.81127 25.4875 4.28907ZM14.2117 6.05199C12.6293 6.93705 11.1839 8.09497 9.91134 9.50409C9.177 10.3172 8.50002 11.2191 7.88672 12.2027L15.1449 18.4853C16.0951 17.2169 17.2291 16.0971 18.5095 15.163L14.2117 6.05199ZM28.5905 13.2389C20.2668 14.0425 16.0072 18.2368 14.0056 24.0414C12.0299 29.7702 12.4084 37.1159 13.8521 44L33.4935 43.9998C32.3813 39.6597 30.3798 37.6104 28.7966 35.8352C27.9474 34.8831 27.1763 33.9854 26.8724 32.7928C26.6209 31.8069 26.7531 30.7005 27.3085 29.4096C26.3017 29.0873 25.1037 29.0735 23.6609 29.4255L23.2882 27.8898C25.7631 27.2862 27.9627 27.5961 29.6212 28.8439C31.1639 30.0048 32.1753 31.9015 32.703 34.3576C34.9101 34.7306 37.3806 35.016 40.2811 35.1611C40.6648 32.5729 41.591 30.0121 42.8925 27.4748C37.2391 23.243 32.6886 18.3505 28.5905 13.2389ZM7.08574 13.6009C6.04497 15.5936 5.24737 17.8746 4.73862 20.415L12.6283 23.2034C13.0633 22.0066 13.5997 20.8663 14.2514 19.8016L7.08574 13.6009ZM25.7729 17.1824C26.9483 17.1824 27.9006 18.1347 27.9006 19.3101C27.9006 20.4856 26.9482 21.4378 25.7729 21.4378C24.5975 21.4378 23.6452 20.4856 23.6452 19.3101C23.6452 18.1346 24.5976 17.1824 25.7729 17.1824ZM4.46381 21.9929C4.19764 23.8059 4.07305 25.7384 4.10705 27.7815L11.2753 29.1665C11.4506 27.6297 11.7312 26.1362 12.1395 24.7074L4.46381 21.9929ZM4.16778 29.4017C4.24965 30.8629 4.40934 32.3768 4.65412 33.9399L11.0559 34.0643C11.0351 32.9478 11.0601 31.8392 11.1325 30.7495L4.16778 29.4017ZM4.92901 35.5258C5.19231 36.9175 5.52234 38.3471 5.9203 39.8104L11.4392 39.2317C11.2899 38.0347 11.1809 36.8367 11.1166 35.6448L4.92901 35.5258ZM11.6557 40.7989L6.36164 41.3538C6.62275 42.2248 6.9021 43.0903 7.1995 43.9496H12.2189C12.005 42.9042 11.8171 41.8537 11.6557 40.7989Z" fill="black"/>
</svg>
