<svg width="64" height="64" viewBox="0 0 64 64" fill="none" xmlns="http://www.w3.org/2000/svg">
<g filter="url(#filter0_d_5383_2200)">
<path d="M20 8H15.2V15.3059H8V20.1766H15.2V27.4825H20V20.1766H27.2V15.3059H20V8ZM36.8 15.3059H56V20.1766H36.8V15.3059ZM36.8 39.6591H56V44.5297H36.8V39.6591ZM36.8 49.4003H56V54.2709H36.8V49.4003ZM23.096 37.93L17.6 43.5312L12.104 37.93L8.696 41.3881L14.216 46.965L8.696 52.5419L12.104 56L17.6 50.3988L23.096 56L26.504 52.5419L20.984 46.965L26.504 41.3881L23.096 37.93Z" fill="#99F6E4"/>
</g>
<defs>
<filter id="filter0_d_5383_2200" x="0" y="0" width="64" height="64" filterUnits="userSpaceOnUse" color-interpolation-filters="sRGB">
<feFlood flood-opacity="0" result="BackgroundImageFix"/>
<feColorMatrix in="SourceAlpha" type="matrix" values="0 0 0 0 0 0 0 0 0 0 0 0 0 0 0 0 0 0 127 0" result="hardAlpha"/>
<feOffset/>
<feGaussianBlur stdDeviation="4"/>
<feComposite in2="hardAlpha" operator="out"/>
<feColorMatrix type="matrix" values="0 0 0 0 0.6 0 0 0 0 0.964706 0 0 0 0 0.894118 0 0 0 1 0"/>
<feBlend mode="normal" in2="BackgroundImageFix" result="effect1_dropShadow_5383_2200"/>
<feBlend mode="normal" in="SourceGraphic" in2="effect1_dropShadow_5383_2200" result="shape"/>
</filter>
</defs>
</svg>
