<svg width="68" height="63" viewBox="0 0 68 63" fill="none" xmlns="http://www.w3.org/2000/svg">
<g filter="url(#filter0_d_5383_2212)">
<path d="M57.2562 19.8438C58.0248 20.9125 58.1977 22.1219 57.775 23.4719L49.8486 48.9531C49.4835 50.1531 48.7485 51.1609 47.6437 51.9766C46.5388 52.7922 45.3618 53.2 44.1128 53.2H17.5091C16.0295 53.2 14.6027 52.6984 13.2288 51.6953C11.8549 50.6922 10.8989 49.4594 10.3609 47.9969C9.89975 46.7406 9.88053 45.55 10.3033 44.425C10.3033 44.35 10.3321 44.0969 10.3897 43.6656C10.4474 43.2344 10.4858 42.8875 10.505 42.625C10.5242 42.475 10.4954 42.2734 10.4186 42.0203C10.3417 41.7672 10.3129 41.5844 10.3321 41.4719C10.3705 41.2656 10.4474 41.0688 10.5627 40.8813C10.678 40.6938 10.8365 40.4734 11.0383 40.2203C11.24 39.9672 11.3985 39.7469 11.5138 39.5594C11.9558 38.8469 12.3881 37.9891 12.8109 36.9859C13.2336 35.9828 13.5219 35.125 13.6756 34.4125C13.7332 34.225 13.738 33.9438 13.69 33.5688C13.642 33.1938 13.6371 32.9313 13.6756 32.7812C13.7332 32.575 13.8966 32.3125 14.1656 31.9938C14.4346 31.675 14.5979 31.4594 14.6556 31.3469C15.0591 30.6719 15.4626 29.8094 15.8661 28.7594C16.2697 27.7094 16.5099 26.8656 16.5867 26.2281C16.6059 26.0594 16.5819 25.7594 16.5147 25.3281C16.4474 24.8969 16.4522 24.6344 16.5291 24.5406C16.6059 24.2969 16.8173 24.0109 17.1632 23.6828C17.5091 23.3547 17.7204 23.1438 17.7973 23.05C18.1624 22.5625 18.5707 21.7703 19.0223 20.6734C19.4738 19.5766 19.738 18.6719 19.8149 17.9594C19.8341 17.8094 19.8053 17.5703 19.7284 17.2422C19.6516 16.9141 19.6324 16.6656 19.6708 16.4969C19.7092 16.3469 19.7957 16.1781 19.9302 15.9906C20.0647 15.8031 20.2376 15.5875 20.449 15.3438C20.6604 15.1 20.8237 14.9031 20.939 14.7531C21.0927 14.5281 21.2513 14.2422 21.4146 13.8953C21.5779 13.5484 21.722 13.2203 21.8469 12.9109C21.9718 12.6016 22.1256 12.2641 22.3081 11.8984C22.4907 11.5328 22.678 11.2328 22.8702 10.9984C23.0623 10.7641 23.3169 10.5438 23.634 10.3375C23.951 10.1313 24.2969 10.0234 24.6716 10.0141C25.0463 10.0047 25.5027 10.0563 26.0407 10.1688L26.0119 10.2531C26.7421 10.0844 27.2321 10 27.4819 10H49.4163C50.8382 10 51.9335 10.525 52.7021 11.575C53.4707 12.625 53.6437 13.8438 53.2209 15.2313L45.3234 40.7125C44.6316 42.9438 43.9447 44.3828 43.2625 45.0297C42.5804 45.6766 41.3458 46 39.5588 46H14.5114C13.9926 46 13.6275 46.1406 13.4162 46.4219C13.2048 46.7219 13.1952 47.125 13.3873 47.6313C13.8485 48.9438 15.232 49.6 17.5379 49.6H44.1416C44.6989 49.6 45.2369 49.4547 45.7557 49.1641C46.2746 48.8734 46.6108 48.4844 46.7646 47.9969L55.4115 20.2375C55.546 19.825 55.594 19.2906 55.5556 18.6344C56.2858 18.9156 56.8527 19.3188 57.2562 19.8438ZM26.5883 19.9C26.5115 20.1438 26.5307 20.3547 26.646 20.5328C26.7613 20.7109 26.9534 20.8 27.2225 20.8H44.7469C44.9967 20.8 45.2417 20.7109 45.4819 20.5328C45.7221 20.3547 45.8806 20.1438 45.9575 19.9L46.5628 18.1C46.6397 17.8563 46.6204 17.6453 46.5051 17.4672C46.3899 17.2891 46.1977 17.2 45.9287 17.2H28.4042C28.1544 17.2 27.9094 17.2891 27.6692 17.4672C27.429 17.6453 27.2705 17.8563 27.1936 18.1L26.5883 19.9ZM24.196 27.1C24.1192 27.3438 24.1384 27.5547 24.2537 27.7328C24.369 27.9109 24.5611 28 24.8301 28H42.3546C42.6044 28 42.8494 27.9109 43.0896 27.7328C43.3298 27.5547 43.4883 27.3438 43.5652 27.1L44.1705 25.3C44.2473 25.0563 44.2281 24.8453 44.1128 24.6672C43.9975 24.4891 43.8054 24.4 43.5364 24.4H26.0119C25.7621 24.4 25.5171 24.4891 25.2769 24.6672C25.0367 24.8453 24.8782 25.0563 24.8013 25.3L24.196 27.1Z" fill="#34D399"/>
</g>
<defs>
<filter id="filter0_d_5383_2212" x="0.400001" y="0.400001" width="67.2" height="62.3992" filterUnits="userSpaceOnUse" color-interpolation-filters="sRGB">
<feFlood flood-opacity="0" result="BackgroundImageFix"/>
<feColorMatrix in="SourceAlpha" type="matrix" values="0 0 0 0 0 0 0 0 0 0 0 0 0 0 0 0 0 0 127 0" result="hardAlpha"/>
<feOffset/>
<feGaussianBlur stdDeviation="4.8"/>
<feComposite in2="hardAlpha" operator="out"/>
<feColorMatrix type="matrix" values="0 0 0 0 0.203922 0 0 0 0 0.827451 0 0 0 0 0.6 0 0 0 1 0"/>
<feBlend mode="normal" in2="BackgroundImageFix" result="effect1_dropShadow_5383_2212"/>
<feBlend mode="normal" in="SourceGraphic" in2="effect1_dropShadow_5383_2212" result="shape"/>
</filter>
</defs>
</svg>
