<svg width="48" height="48" viewBox="0 0 48 48" fill="none" xmlns="http://www.w3.org/2000/svg">
<path d="M4 1H44C45.6569 1 47 2.34315 47 4V44C47 45.6569 45.6569 47 44 47H4C2.34315 47 1 45.6569 1 44V4C1 2.34315 2.34315 1 4 1Z" fill="#34D399" stroke="black" stroke-width="2" stroke-linecap="round" stroke-linejoin="round"/>
<path d="M43.3801 14.2031C44.0207 15.0938 44.1648 16.1016 43.8125 17.2266L37.2072 38.4609C36.9029 39.4609 36.2905 40.3008 35.3697 40.9805C34.449 41.6602 33.4682 42 32.4273 42H10.2575C9.02456 42 7.8356 41.582 6.69068 40.7461C5.54576 39.9102 4.74912 38.8828 4.30076 37.6641C3.91645 36.6172 3.90044 35.625 4.25272 34.6875C4.25272 34.625 4.27674 34.4141 4.32478 34.0547C4.37282 33.6953 4.40485 33.4062 4.42086 33.1875C4.43687 33.0625 4.41285 32.8945 4.3488 32.6836C4.28475 32.4727 4.26073 32.3203 4.27674 32.2266C4.30877 32.0547 4.37282 31.8906 4.4689 31.7344C4.56498 31.5781 4.69708 31.3945 4.86522 31.1836C5.03335 30.9727 5.16546 30.7891 5.26153 30.6328C5.62983 30.0391 5.99012 29.3242 6.3424 28.4883C6.69469 27.6523 6.93488 26.9375 7.06298 26.3438C7.11102 26.1875 7.11502 25.9531 7.07499 25.6406C7.03496 25.3281 7.03096 25.1094 7.06298 24.9844C7.11102 24.8125 7.24713 24.5937 7.47131 24.3281C7.69549 24.0625 7.8316 23.8828 7.87964 23.7891C8.21591 23.2266 8.55218 22.5078 8.88845 21.6328C9.22472 20.7578 9.42488 20.0547 9.48893 19.5234C9.50494 19.3828 9.48493 19.1328 9.42888 18.7734C9.37284 18.4141 9.37684 18.1953 9.44089 18.1172C9.50494 17.9141 9.68108 17.6758 9.96932 17.4023C10.2575 17.1289 10.4337 16.9531 10.4977 16.875C10.802 16.4687 11.1423 15.8086 11.5186 14.8945C11.8949 13.9805 12.115 13.2266 12.1791 12.6328C12.1951 12.5078 12.1711 12.3086 12.107 12.0352C12.043 11.7617 12.027 11.5547 12.059 11.4141C12.091 11.2891 12.1631 11.1484 12.2752 10.9922C12.3873 10.8359 12.5314 10.6563 12.7075 10.4531C12.8837 10.25 13.0198 10.0859 13.1158 9.96094C13.2439 9.77344 13.3761 9.53516 13.5122 9.24609C13.6483 8.95703 13.7684 8.68359 13.8724 8.42578C13.9765 8.16797 14.1046 7.88672 14.2568 7.58203C14.4089 7.27734 14.565 7.02734 14.7251 6.83203C14.8853 6.63672 15.0974 6.45313 15.3616 6.28125C15.6259 6.10937 15.9141 6.01953 16.2263 6.01172C16.5386 6.00391 16.9189 6.04688 17.3673 6.14062L17.3432 6.21094C17.9517 6.07031 18.3601 6 18.5682 6H36.8469C38.0318 6 38.9446 6.4375 39.5851 7.3125C40.2256 8.1875 40.3697 9.20313 40.0174 10.3594L33.4362 31.5938C32.8597 33.4531 32.2872 34.6523 31.7188 35.1914C31.1503 35.7305 30.1215 36 28.6323 36H7.75954C7.32719 36 7.02295 36.1172 6.84681 36.3516C6.67067 36.6016 6.66266 36.9375 6.82279 37.3594C7.2071 38.4531 8.36002 39 10.2816 39H32.4514C32.9157 39 33.3641 38.8789 33.7964 38.6367C34.2288 38.3945 34.509 38.0703 34.6371 37.6641L41.8429 14.5312C41.955 14.1875 41.995 13.7422 41.963 13.1953C42.5715 13.4297 43.0439 13.7656 43.3801 14.2031ZM17.8236 14.25C17.7596 14.4531 17.7756 14.6289 17.8717 14.7773C17.9677 14.9258 18.1279 15 18.352 15H32.9558C33.1639 15 33.3681 14.9258 33.5683 14.7773C33.7684 14.6289 33.9005 14.4531 33.9646 14.25L34.469 12.75C34.533 12.5469 34.517 12.3711 34.421 12.2227C34.3249 12.0742 34.1647 12 33.9406 12H19.3368C19.1287 12 18.9245 12.0742 18.7243 12.2227C18.5242 12.3711 18.3921 12.5469 18.328 12.75L17.8236 14.25ZM15.83 20.25C15.766 20.4531 15.782 20.6289 15.8781 20.7773C15.9741 20.9258 16.1343 21 16.3584 21H30.9622C31.1703 21 31.3745 20.9258 31.5747 20.7773C31.7748 20.6289 31.9069 20.4531 31.971 20.25L32.4754 18.75C32.5394 18.5469 32.5234 18.3711 32.4273 18.2227C32.3313 18.0742 32.1711 18 31.947 18H17.3432C17.1351 18 16.9309 18.0742 16.7307 18.2227C16.5306 18.3711 16.3985 18.5469 16.3344 18.75L15.83 20.25Z" fill="black"/>
</svg>
