<svg width="64" height="64" viewBox="0 0 64 64" fill="none" xmlns="http://www.w3.org/2000/svg">
<g filter="url(#filter0_d_5383_2207)">
<path fill-rule="evenodd" clip-rule="evenodd" d="M37.1039 48.8106C38.0059 49.2254 38.9323 49.585 39.8779 49.8876C44.4158 51.32 47.4037 50.6091 49.0072 49.0057C50.6106 47.4048 51.3215 44.4143 49.8891 39.8791C49.5864 38.9314 49.2258 38.0032 48.8094 37.0997C47.1297 39.3016 45.3019 41.3865 43.3388 43.34C41.3864 45.3024 39.3024 47.1293 37.1012 48.8079L37.1039 48.8106ZM31.9994 45.8975C34.712 44.0252 37.2432 41.9029 39.5599 39.5584C41.9024 37.2423 44.0229 34.712 45.8937 32.0006C44.0231 29.2882 41.9026 26.757 39.5599 24.4401C37.2429 22.0975 34.7117 19.977 31.9994 18.1063C29.288 19.9771 26.7577 22.0976 24.4416 24.4401C22.0971 26.7568 19.9748 29.288 18.1025 32.0006C19.9733 34.7119 22.0938 37.2423 24.4363 39.5584C27.0099 42.132 29.5568 44.2353 31.9994 45.8975ZM15.1894 37.1024C15 36 18.5942 41.2715 20.6627 43.34C22.6142 45.3023 24.6974 47.1292 26.8976 48.8079C25.995 49.2242 25.0677 49.5848 24.1209 49.8876C19.5857 51.32 16.5952 50.6091 14.9917 49.0083C13.3882 47.4048 12.68 44.417 14.1124 39.8791C14.393 38.9892 15 38 15 38L15.1894 37.1024ZM11.8061 32.0718C10.5874 34.2178 9.65738 36.2498 9.01866 38.2676C7.2949 43.7275 7.60224 49.1713 11.2154 52.7872C14.8313 56.4031 20.2752 56.7104 25.7351 54.984C27.915 54.2757 30.0146 53.3405 31.9994 52.1939C34.1454 53.4126 36.2487 54.3453 38.2664 54.984C43.729 56.7078 49.1702 56.4004 52.7861 52.7872C56.4019 49.1713 56.7093 43.7275 54.9828 38.2676C54.2746 36.0867 53.3394 33.9862 52.1928 32.0006C53.4114 29.8546 54.3441 27.7513 54.9828 25.7336C56.7093 20.2737 56.4019 14.8298 52.7861 11.2139C49.1728 7.59806 43.7263 7.29073 38.2664 9.01716C36.0855 9.72533 33.985 10.6605 31.9994 11.8072C30.0138 10.6605 27.9133 9.72533 25.7324 9.01716C20.2725 7.29073 14.8287 7.59806 11.2128 11.2139C7.59689 14.8298 7.29223 20.2737 9.01598 25.7336C9.72416 27.9145 10.6593 30.015 11.8061 32.0006V32.0718ZM15.1948 26.8988C17.6691 24.4401 18.9315 22.0685 21 20C22.9516 18.0377 24.7001 16.872 26.9003 15.1933C25.9976 14.7771 25.0703 14.4165 24.1236 14.1136C19.5884 12.6811 16.5978 13.392 14.9943 14.9928C13.3909 16.5963 12.6826 19.5842 14.1151 24.1221C14.3957 25.012 15 28 15.1948 26.9015V26.8988ZM37.1039 15.1933C38.0065 14.777 38.9338 14.4165 39.8806 14.1136C44.4185 12.6811 47.4063 13.392 49.0098 14.9928C50.6133 16.5963 51.3242 19.5842 49.8917 24.1221C49.6085 25.012 49.2504 25.9394 48.8121 26.9015C47.1327 24.6993 45.3049 22.6144 43.3415 20.6612C41.389 18.6988 39.305 16.8719 37.1039 15.1933ZM36.0082 32.0006C36.008 32.527 35.9041 33.0483 35.7025 33.5346C35.5009 34.0209 35.2054 34.4627 34.8331 34.8348C34.4607 35.2069 34.0187 35.5021 33.5323 35.7034C33.0458 35.9046 32.5245 36.0082 31.9981 36.008C31.4716 36.0078 30.9504 35.9039 30.4641 35.7023C29.9778 35.5007 29.536 35.2053 29.1639 34.8329C28.7917 34.4605 28.4966 34.0185 28.2953 33.5321C28.094 33.0457 27.9905 32.5243 27.9907 31.9979C27.9907 30.9347 28.413 29.9151 29.1648 29.1633C29.9166 28.4115 30.9362 27.9892 31.9994 27.9892C33.0626 27.9892 34.0822 28.4115 34.834 29.1633C35.5858 29.9151 36.0082 30.9347 36.0082 31.9979V32.0006Z" fill="#F43F5E"/>
</g>
<circle cx="32" cy="32" r="2" fill="#F43F5E"/>
<defs>
<filter id="filter0_d_5383_2207" x="0" y="0" width="64" height="64.002" filterUnits="userSpaceOnUse" color-interpolation-filters="sRGB">
<feFlood flood-opacity="0" result="BackgroundImageFix"/>
<feColorMatrix in="SourceAlpha" type="matrix" values="0 0 0 0 0 0 0 0 0 0 0 0 0 0 0 0 0 0 127 0" result="hardAlpha"/>
<feOffset/>
<feGaussianBlur stdDeviation="4"/>
<feComposite in2="hardAlpha" operator="out"/>
<feColorMatrix type="matrix" values="0 0 0 0 0.956863 0 0 0 0 0.247059 0 0 0 0 0.368627 0 0 0 1 0"/>
<feBlend mode="normal" in2="BackgroundImageFix" result="effect1_dropShadow_5383_2207"/>
<feBlend mode="normal" in="SourceGraphic" in2="effect1_dropShadow_5383_2207" result="shape"/>
</filter>
</defs>
</svg>
