<svg width="48" height="48" viewBox="0 0 48 48" fill="none" xmlns="http://www.w3.org/2000/svg">
<path d="M4 1H44C45.6569 1 47 2.34315 47 4V44C47 45.6569 45.6569 47 44 47H4C2.34315 47 1 45.6569 1 44V4C1 2.34315 2.34315 1 4 1Z" fill="#F97316" stroke="black" stroke-width="2" stroke-linecap="round" stroke-linejoin="round"/>
<path d="M10 44V39.7895H20.5263V35.5789C17.614 35.5789 15.1312 34.5523 13.0779 32.4989C11.0246 30.4456 9.9986 27.9635 10 25.0526C10 23.0526 10.5088 21.2105 11.5263 19.5263C12.5439 17.8421 13.9474 16.5614 15.7368 15.6842C15.5965 16.4561 15.6232 17.2105 15.8168 17.9474C16.0105 18.6842 16.3172 19.386 16.7368 20.0526C15.9298 20.614 15.3067 21.3333 14.8674 22.2105C14.4281 23.0877 14.2091 24.0351 14.2105 25.0526C14.2105 26.807 14.8246 28.2982 16.0526 29.5263C17.2807 30.7544 18.7719 31.3684 20.5263 31.3684H37.3684V35.5789H26.8421V39.7895H39.4737V44H10ZM28.9474 25.2632L28.3158 23.2632L26.3158 24L25.2632 21.2105C25.9649 20.6491 26.5088 19.9733 26.8947 19.1832C27.2807 18.393 27.4737 17.5425 27.4737 16.6316C27.4737 14.9825 26.8947 13.5874 25.7368 12.4463C24.5789 11.3053 23.1579 10.7354 21.4737 10.7368L20.5263 8.10526L22.5263 7.36842L21.7895 5.47368L25.7895 4L26.4211 6L28.4211 5.26316L34.2105 21.0526L32.2105 21.7895L32.9474 23.7895L28.9474 25.2632ZM21.5789 20.4211C20.5263 20.4211 19.6316 20.0526 18.8947 19.3158C18.1579 18.5789 17.7895 17.6842 17.7895 16.6316C17.7895 15.5789 18.1579 14.6842 18.8947 13.9474C19.6316 13.2105 20.5263 12.8421 21.5789 12.8421C22.6316 12.8421 23.5263 13.2105 24.2632 13.9474C25 14.6842 25.3684 15.5789 25.3684 16.6316C25.3684 17.6842 25 18.5789 24.2632 19.3158C23.5263 20.0526 22.6316 20.4211 21.5789 20.4211Z" fill="black"/>
</svg>
