<?xml version="1.0" encoding="UTF-8"?>
<svg id="katman_2" data-name="katman 2" xmlns="http://www.w3.org/2000/svg" xmlns:xlink="http://www.w3.org/1999/xlink" viewBox="0 0 100.05 100">
  <defs>
    <style>
      .cls-1 {
        fill: #38007d;
      }

      .cls-1, .cls-2, .cls-3, .cls-4, .cls-5, .cls-6, .cls-7, .cls-8 {
        stroke-width: 0px;
      }

      .cls-2 {
        fill: url(#Adsız_degrade_4);
      }

      .cls-9 {
        opacity: .7;
      }

      .cls-3 {
        fill: #0794bc;
      }

      .cls-4 {
        fill: url(#Adsız_degrade_4-4);
      }

      .cls-5 {
        fill: #3d2770;
      }

      .cls-6 {
        fill: url(#Adsız_degrade_4-2);
      }

      .cls-7 {
        fill: #ffa600;
      }

      .cls-8 {
        fill: url(#Adsız_degrade_4-3);
      }
    </style>
    <linearGradient id="Adsız_degrade_4" data-name="Adsız degrade 4" x1="73.23" y1="1850.76" x2="85.34" y2="1895.99" gradientTransform="translate(0 -1807)" gradientUnits="userSpaceOnUse">
      <stop offset="0" stop-color="#3e89fb"/>
      <stop offset=".62" stop-color="#153281"/>
      <stop offset="1" stop-color="#000744"/>
    </linearGradient>
    <linearGradient id="Adsız_degrade_4-2" data-name="Adsız degrade 4" x1="27.74" y1="1864.17" x2="39.57" y2="1908.32" xlink:href="#Adsız_degrade_4"/>
    <linearGradient id="Adsız_degrade_4-3" data-name="Adsız degrade 4" x1="14.7" y1="1818" x2="26.82" y2="1863.24" xlink:href="#Adsız_degrade_4"/>
    <linearGradient id="Adsız_degrade_4-4" data-name="Adsız degrade 4" x1="60.51" y1="1805.7" x2="72.34" y2="1849.81" xlink:href="#Adsız_degrade_4"/>
  </defs>
  <g id="katman_2-2" data-name="katman 2">
    <g>
      <g class="cls-9">
        <path class="cls-7" d="m60.44,89.05c-.23.06-.47.12-.71.16l-3.16.68c-.88.12-1.47.18-1.48.18h-.07l-.05-.04s-.86-.83-1.63-1.66c-.4-.42-.77-.83-1.04-1.14,0,0-.28-.31-.42-.49h-1.72c-.19.02-.4.02-.6.02-.38,0-.81.02-1.25-.01l-3.18-.28c-.23-.03-.46-.07-.68-.11-.12-.02-.24-.05-.36-.07l-1.81-.35c-.61-.1-1.02-.19-1.3-.3l-.47-.14.09-.29.48.14c.27.09.66.18,1.25.28l1.81.35c.12.02.24.04.36.07.21.04.43.09.65.11l3.17.28c.42.03.82.02,1.22,0h.62l1.92-.02.02.09c.05.06.2.27.43.51.28.31.65.73,1.04,1.14.66.7,1.38,1.41,1.57,1.6.18-.02.69-.07,1.39-.17l3.15-.67c.58-.1,1.13-.28,1.65-.45l2.78-.9c.04-.07.12-.2.21-.4l.5-1.04.7-1.53,1.28-.56c.45-.21.98-.52,1.55-.84.33-.19.67-.38,1.01-.57.73-.37,1.39-.84,1.98-1.25.16-.12.32-.23.47-.33l1.14-.8.47.05c.18.02.41.04.62.05l.98.03,1.16-1c.12-.11.25-.23.4-.35.26-.22.53-.45.79-.73l1.29-1.35c.15-.17.31-.33.47-.48.29-.29.56-.57.79-.87l2.02-2.56.48-.1.88-.24,1.26-.38,1.13-1.76,1.01-1.95c.1-.2.2-.4.31-.61.27-.53.56-1.08.77-1.66l.2-.51c.58-1.44,1.13-2.81,1.4-3.92l.59-2.02c-.03-.07-.11-.24-.23-.45l-.62-1.13c-.45-.79-.91-1.55-.92-1.56l-.03-.05.23-1.24c.06-.45.11-1.01.16-1.61.03-.33.06-.67.09-1.01.01-.17.03-.34.05-.51.03-.31.06-.6.06-.89l-.02-2.37-1.11-1.16-1.3-1.16-.11-1.02c-.03-.19-.05-.4-.07-.63-.05-.45-.09-.97-.22-1.46l-.65-3.05.3-.06.65,3.05c.14.51.19,1.04.23,1.51.02.22.04.43.06.62l.1.91,1.22,1.08,1.2,1.26.03,2.5c0,.3-.04.61-.07.91-.02.17-.04.34-.05.51-.03.34-.06.68-.09,1.01-.05.6-.1,1.16-.16,1.62l-.21,1.13c.11.18.51.84.89,1.52l.62,1.13c.18.32.26.53.26.53v.05l-.6,2.12c-.27,1.13-.83,2.5-1.42,3.96l-.21.5c-.21.59-.51,1.15-.78,1.69-.1.2-.21.4-.31.6l-1.02,1.96-1.2,1.88-2.26.66-.38.08-1.95,2.48c-.24.31-.53.6-.81.89-.15.16-.31.32-.46.48l-1.29,1.35c-.26.29-.56.54-.82.76-.14.11-.27.22-.39.34l-1.25,1.08-1.09-.03c-.22,0-.46-.03-.65-.05l-.36-.04-1.05.73c-.15.1-.3.21-.47.33-.59.42-1.26.9-2.01,1.28-.34.18-.67.38-1,.56-.57.32-1.11.63-1.57.86l-1.17.52-.66,1.43-.5,1.04c-.14.3-.25.46-.25.47l-.03.05-2.89.93c-.31.11-.64.21-.98.3v-.02h0Z"/>
        <path class="cls-7" d="m40.52,85.5l-1.89-.55c-.39-.1-.75-.23-1.1-.38l-2.63-1.05c-.1-.03-.16-.06-.21-.09l-1.51.44-1.7.44-.35-.18c-.07-.04-.14-.07-.21-.11-.16-.08-.36-.18-.56-.31l-2.22-1.43c-.61-.35-1.15-.79-1.63-1.17-.18-.15-.35-.28-.51-.4l-.9-.71-.52.03c-.32.02-.75.02-1.26,0-.88-.03-1.82-.09-1.83-.09-.02,0-.1.01-1.64-1.55l-1.45-1.68c-.1-.12-.2-.24-.3-.35-.45-.51-.9-1.04-1.29-1.63l-1.79-2.55-1.89-3.35.1-.47.26-.94.38-1.27-.61-1.4c-.22-.45-.41-1.03-.56-1.54l-.57-1.77c-.32-.87-.51-1.77-.68-2.57-.06-.29-.12-.57-.18-.82l-.33-1.53c-.04-.07,0-.13.19-.42l.99-1.42-.14-1.27c-.01-.14-.03-.29-.05-.44-.04-.28-.07-.6-.08-.94l-.02-1.98c-.01-.94-.03-1.83.08-2.54l.11-1.26-.94-1.28c-.18-.24-.32-.48-.45-.69-.06-.09-.1-.18-.16-.26l-.3-.49.28-1.51c.03-.15.06-.31.09-.47.06-.32.12-.66.21-1.02l.97-3.33c.1-.35.23-.69.36-.98.07-.16.13-.31.18-.44l.58-1.44.77-.22c.11-.03.23-.06.35-.09.35-.09.75-.21,1.19-.29.97-.2,1.91-.37,2.2-.41l.79-1.53.24-.39c.54-.86,1.21-1.93,1.93-2.96l1.91-2.44c.13-.16.27-.3.4-.44.07-.07.14-.14.2-.21l1.25-1.3.22.21-1.25,1.3c-.06.07-.13.14-.2.21-.13.13-.26.27-.39.42l-1.91,2.43c-.71,1.01-1.37,2.08-1.91,2.93l-.23.38-.85,1.65-.06.02c-.13.02-1.19.19-2.27.43-.43.08-.82.19-1.16.29-.12.03-.25.07-.35.09l-.62.18-.52,1.3c-.05.14-.12.3-.18.45-.12.3-.25.6-.35.94l-.97,3.32c-.08.34-.14.69-.2,1-.03.17-.06.32-.09.47l-.26,1.39.23.39c.05.08.1.17.16.27.12.21.26.44.43.67l1,1.38-.13,1.39c-.1.69-.08,1.57-.07,2.5l.02,1.99c0,.31.04.61.08.9.02.16.04.31.05.45l.15,1.38-1.06,1.52c-.06.09-.11.17-.14.21l.32,1.5c.06.25.12.53.18.83.16.78.34,1.67.66,2.53l.57,1.78c.15.5.34,1.06.55,1.5l.66,1.51-.67,2.3-.08.35,1.82,3.23,1.79,2.55c.38.58.83,1.1,1.26,1.6.1.12.2.24.3.36l1.44,1.67c.78.79,1.35,1.32,1.49,1.45.26.01,1.03.07,1.76.09.49.03.92.02,1.23,0l.63-.03.99.78c.16.12.33.26.52.4.47.38,1,.8,1.59,1.15l2.23,1.44c.19.13.37.22.53.29.09.04.16.08.23.12l.23.12,1.59-.41,1.72-.51.02.09s.09.04.16.07l2.65,1.06c.33.15.69.27,1.06.36l1.89.55-.09.29h0l.05-.04Z"/>
        <path class="cls-7" d="m85.25,40.58l-1.12-3.47c-.15-.38-.33-.78-.51-1.18-.11-.25-.22-.5-.33-.74-.11-.23-.21-.47-.31-.71-.18-.43-.35-.83-.56-1.19l-1.55-2.75-.32-.46.03-.08s.38-1.05.71-2.13c.28-.9.53-1.83.62-2.18l-.19-.27c-.1-.13-.23-.28-.39-.46-.09-.1-.19-.22-.29-.34-.2-.22-.41-.48-.64-.75-.45-.52-.96-1.12-1.48-1.68l-2.34-2.24c-.2-.2-.4-.36-.57-.49-.09-.07-.17-.13-.24-.19l-.27-.21-1.59.07-1.66.12-.05-.05s-.09-.08-.27-.19l-.82-.52c-.23-.15-.5-.32-.78-.5-.51-.34-1.09-.72-1.7-1.05l-2.6-1.34c-.23-.13-.44-.21-.62-.28-.1-.04-.18-.07-.26-.1l-.39-.15-.48-.99-.45-.89-.35-.14c-.06-.02-.13-.05-.21-.08-.23-.1-.52-.21-.85-.29-.31-.09-.66-.19-1.03-.3-.71-.21-1.52-.45-2.33-.67l-3.42-.65c-.3-.05-.57-.07-.8-.09-.12-.01-.24-.02-.33-.03l-.49-.04-.99-1.03-.96-.95c-.08-.01-.26-.03-.52-.03l-3.77.04c-.52.03-1.06.09-1.63.16-.29.03-.58.07-.87.09-1.38.1-2.75.4-3.85.64-.28.06-.54.12-.79.17-1.04.2-1.76.43-2.01.51-.12.18-.55.86-.95,1.52-.4.66-.77,1.3-.87,1.49l.02.09-.15.04c-.12.03-.53.16-1.09.43l-2.43,1.07c-.38.15-.73.35-1.07.54l-2.25,1.27c-.08.24-.28.88-.43,1.56l-.43,1.97-.12-.18c-.68.44-4.37,3.46-4.56,3.84l-.12-.06-.14.13-.04-.18c.11-.31,4.02-3.6,4.76-4.03l.34-1.56c.15-.71.36-1.37.44-1.61l-.02-.07,2.4-1.36c.34-.2.7-.4,1.1-.55l2.42-1.06c.51-.24.91-.38,1.08-.43.11-.19.48-.84.88-1.5.47-.77.98-1.57.98-1.57l.08-.12.07.03c.28-.09,1.01-.33,2.04-.52.24-.05.51-.11.79-.17,1.11-.25,2.49-.55,3.89-.65.28-.03.58-.06.86-.09.58-.07,1.12-.13,1.66-.16l3.78-.04c.6.01.69.04.73.11l.97.96.91.95.37.03c.1.01.2.02.32.03.23.02.51.04.83.1l3.43.65c.82.22,1.63.46,2.35.67.37.11.71.21,1.02.3.36.09.65.21.89.31.08.03.14.06.2.08l.46.19.94,1.87.28.11c.07.03.16.07.25.1.19.07.42.16.66.3l2.6,1.34c.62.33,1.2.72,1.72,1.06.28.18.54.35.78.5l.82.53c.13.07.22.14.26.19l1.53-.11,1.71-.08.36.29c.07.06.15.12.23.18.17.13.39.3.61.52l2.34,2.24c.54.57,1.06,1.17,1.5,1.7.23.27.44.52.64.75.11.12.2.24.29.34.16.19.3.35.41.48l.28.4-.02.07c-.08.3-.34,1.3-.64,2.26-.28.92-.6,1.81-.69,2.07l.24.34,1.55,2.75c.23.37.41.8.59,1.22.1.24.2.47.31.71.11.26.22.5.33.74.18.4.36.81.52,1.2l1.12,3.48-.29.1v-.03h-.01Z"/>
      </g>
      <path class="cls-5" d="m59.14,84c-3.62.88-7.05,1.27-10.22,1.18-.55-.01-1.1-.06-1.63-.12-.3-.03-.59-.06-.88-.08l-1.25-.11-1.26-.24c-.29-.06-.58-.12-.86-.17-.52-.09-1.05-.18-1.57-.34l-2.32-.68c-3.48-1.21-6.22-2.54-8.41-4.06-.9-.52-1.71-1.17-2.5-1.8-.31-.26-.63-.5-.95-.75-.38-.28-.7-.61-1.02-.92-.17-.16-.33-.33-.5-.48-.18-.18-.36-.34-.53-.5-.31-.29-.62-.58-.91-.89-4.05-4.4-5.97-8.46-6.75-10.48l-.42-.95c-.09-.23-.15-.43-.21-.62l-.93-2.87.84-.27.93,2.88c.06.18.12.37.19.56l.42.95c.77,1.99,2.63,5.93,6.58,10.21.27.29.56.57.86.85.18.17.35.33.53.5.17.15.35.32.52.5.31.31.6.6.93.84.32.25.65.5.97.76.76.61,1.55,1.24,2.42,1.75,2.15,1.49,4.82,2.78,8.2,3.96l2.3.67c.48.14.97.22,1.48.31.3.05.59.11.88.17l1.21.23,1.2.11c.3.02.59.05.9.08.52.05,1.05.1,1.57.11,3.09.09,6.44-.3,9.97-1.15,3.46-1.02,6.56-2.36,9.18-3.98.45-.27.88-.58,1.31-.89.25-.18.49-.35.74-.52l1.01-.71.91-.78c.22-.2.45-.39.68-.58.4-.34.79-.66,1.13-1.02l1.67-1.75c2.32-2.69,3.99-5.15,5.09-7.49.52-.91.89-1.84,1.24-2.75.15-.39.3-.77.46-1.14.17-.39.27-.78.39-1.2.06-.24.13-.48.2-.7.06-.22.13-.45.2-.68.12-.39.23-.78.32-1.16,1.27-5.69.92-10.03.59-12.12l-.12-1.07c-.03-.18-.07-.37-.12-.55l-.63-2.96.86-.19.63,2.95c.05.2.09.4.13.62l.12,1.08c.34,2.12.7,6.59-.6,12.43-.09.41-.22.81-.34,1.23-.07.23-.13.45-.2.68-.08.23-.14.46-.2.68-.12.43-.24.87-.43,1.31-.15.36-.3.74-.45,1.12-.37.94-.74,1.91-1.28,2.84-1.12,2.38-2.83,4.9-5.22,7.67l-1.69,1.76c-.38.39-.8.74-1.2,1.08-.22.19-.45.38-.66.57l-.94.81-1.05.74c-.25.17-.49.34-.73.51-.43.31-.89.64-1.36.92-2.69,1.66-5.86,3.03-9.41,4.08v.02h0Z"/>
      <path class="cls-5" d="m59.8,86.5l-.06.02c-2.62.6-6.06,1.29-9.38,1.23-.22,0-.46,0-.7.01-.49.01-1,.02-1.54-.02l-2.05-.18c-.98-.05-1.96-.24-2.83-.41-.34-.07-.67-.14-.99-.19l-.87-.16c-.27-.06-.48-.12-.68-.18l-3.46-1.06-2.67-1.06,1.31-3.26,3.36,1.3,2.47.73c.12.04.25.08.38.11l.78.15c.32.05.69.12,1.06.2.77.15,1.58.31,2.37.35l2.1.19c.34.03.74.02,1.17.01.27,0,.54-.01.82-.01,2.92.05,6.05-.58,8.48-1.13,2.38-.73,5.4-1.76,7.9-3.25.25-.15.49-.28.72-.41.37-.21.72-.4,1.03-.61l1.65-1.16c.74-.47,1.35-1.01,1.94-1.53.29-.25.57-.5.85-.73l.61-.53c.05-.05.14-.15.24-.25l2.08-2.18,1.95-2.48,2.76,2.17-2.11,2.66-2.13,2.23c-.15.15-.29.31-.46.46l-.69.6c-.28.23-.53.45-.8.68-.66.58-1.41,1.23-2.3,1.81l-1.61,1.13c-.46.31-.9.56-1.34.8-.21.11-.42.23-.62.35-2.82,1.7-6.15,2.82-8.73,3.61l-.06.02h.02l.03-.03Z"/>
      <path class="cls-1" d="m83.18,41.15l-.93-2.88c-.05-.18-.12-.37-.19-.56l-.42-.95c-.77-1.99-2.63-5.93-6.58-10.22-.27-.29-.56-.57-.86-.85-.18-.16-.35-.33-.53-.5-.17-.15-.35-.32-.52-.5-.31-.3-.6-.6-.93-.84-.32-.25-.65-.5-.97-.76-.76-.61-1.55-1.24-2.42-1.75-2.15-1.49-4.82-2.79-8.2-3.96l-2.3-.67c-.48-.14-.97-.22-1.48-.31-.3-.05-.59-.11-.88-.17l-1.21-.23-1.2-.11c-.3-.02-.59-.05-.9-.08-.52-.05-1.05-.1-1.57-.11-3.09-.09-6.44.3-9.97,1.15-3.46,1.02-6.56,2.36-9.18,3.98-.45.27-.88.58-1.31.89-.25.17-.49.35-.74.52l-1.01.71-.91.78c-.22.2-.45.39-.68.58-.4.34-.78.66-1.13,1.01l-1.67,1.75c-2.32,2.69-3.99,5.15-5.09,7.49-.52.91-.89,1.84-1.24,2.75-.15.39-.3.77-.46,1.14-.16.38-.28.78-.39,1.19-.07.24-.13.48-.21.7-.06.22-.13.45-.2.68-.12.39-.24.78-.32,1.16-1.27,5.69-.92,10.03-.59,12.12l.12,1.07c.03.18.07.37.12.55l.63,2.96-.86.19-.63-2.95c-.04-.2-.09-.4-.12-.62l-.12-1.08c-.33-2.12-.7-6.59.6-12.42.09-.41.22-.81.34-1.23.07-.23.14-.45.2-.68.08-.23.14-.46.2-.68.12-.43.24-.87.43-1.31.16-.36.3-.74.45-1.12.37-.94.74-1.91,1.28-2.84,1.12-2.38,2.83-4.89,5.22-7.67l1.69-1.76c.38-.39.8-.74,1.2-1.08.22-.19.45-.38.66-.57l.94-.81,1.05-.74c.25-.17.49-.34.73-.52.43-.31.89-.64,1.36-.92,2.69-1.66,5.86-3.03,9.41-4.08,3.62-.88,7.05-1.27,10.22-1.18.55,0,1.1.06,1.64.12.3.03.59.06.88.08l1.25.11,1.25.24c.29.06.59.11.87.16.52.09,1.05.19,1.57.34l2.33.68c3.48,1.21,6.21,2.54,8.41,4.06.9.52,1.71,1.17,2.5,1.8.32.25.63.5.95.75.38.28.7.61,1.02.92.16.16.33.33.5.48.18.18.36.34.53.5.31.29.62.58.91.89,4.05,4.4,5.97,8.46,6.74,10.48l.42.95c.09.23.15.43.21.62l.93,2.87-.84.27h-.03l.03.02Z"/>
      <path class="cls-5" d="m64.15,18.79l-3.36-1.3-2.47-.72c-.12-.04-.25-.08-.39-.1l-.77-.15c-.32-.05-.69-.12-1.06-.2-.77-.15-1.58-.31-2.37-.35l-2.1-.19c-.34-.03-.74-.02-1.17,0-.27,0-.54.01-.82.01-2.92-.05-6.06.58-8.48,1.13-2.38.73-5.4,1.76-7.9,3.25-.25.15-.49.28-.72.41-.37.21-.72.4-1.03.61l-1.65,1.16c-.74.47-1.35,1.01-1.94,1.53-.29.25-.57.5-.85.73l-.61.53c-.06.05-.14.15-.24.25l-2.08,2.18-1.95,2.48-2.76-2.17,2.11-2.66,2.13-2.23c.15-.15.29-.31.46-.46l.69-.6c.28-.23.53-.46.79-.69.66-.58,1.41-1.23,2.3-1.81l1.61-1.13c.46-.31.9-.56,1.34-.8.21-.11.42-.23.62-.35,2.82-1.7,6.15-2.82,8.72-3.61l.06-.02.06-.02c2.62-.6,6.06-1.29,9.38-1.23.23,0,.46,0,.7-.01.49-.01,1-.02,1.54.02l2.05.18c.98.05,1.96.24,2.82.41.34.07.67.14.99.19l.87.16c.27.06.48.12.68.18l3.46,1.06,2.67,1.06-1.31,3.26h-.02Z"/>
      <path class="cls-3" d="m61.04,91.46c-3.26.87-6.1,1.24-8.2,1.4-3.9.17-7.5-.04-10.15-.57-.44-.08-.85-.16-1.23-.23-.63-.12-1.16-.22-1.56-.31l-.98-.29.18-.63.96.28c.38.09.89.18,1.52.3.38.07.79.15,1.23.23,2.6.53,6.15.73,9.98.56,3.2-.23,8.18-.98,13.72-3.3,4.96-2.07,9.59-5.19,13.39-9.01,3.8-3.8,6.93-8.43,9.02-13.39,1.94-4.59,3.07-9.33,3.27-13.72.1-.82.1-1.59.08-2.34v-.64c-.02-.34-.02-.68-.02-1.01,0-.59,0-1.13-.05-1.66l-.26-2.36c-.03-.24-.06-.48-.08-.71-.04-.45-.09-.87-.19-1.24l-.81-3.77.64-.14.8,3.75c.11.41.15.85.2,1.33.02.23.05.45.08.69l.26,2.37c.06.56.06,1.13.06,1.73v1.64c.02.77.03,1.58-.08,2.41-.2,4.43-1.35,9.25-3.32,13.92-2.13,5.05-5.3,9.75-9.16,13.6-3.86,3.89-8.56,7.05-13.6,9.15-2,.84-3.93,1.47-5.73,1.96h.03Z"/>
      <path class="cls-3" d="m64.49,92.44l-.81-2.51.42-.14c.07-.02.2-.07.34-.11.22-.06.48-.15.77-.26.29-.13.69-.3,1.13-.5.85-.37,1.81-.78,2.89-1.3,3.77-1.94,7.66-4.78,10.62-7.76l1.49-1.56c.34-.35.65-.67.89-1.01l2.21-2.82,2.28-3.59.88-1.71c.72-1.28,1.17-2.44,1.54-3.36l.72-1.8c.07-.18.11-.28.11-.3l2.53.73s-.05.2-.21.57l-.7,1.76c-.38.95-.89,2.25-1.67,3.65l-1.16,2.22-2.2,3.42-2.22,2.83c-.32.45-.72.85-1.1,1.25l-1.5,1.57c-3.17,3.19-7.3,6.2-11.34,8.28-1.16.56-2.19,1-3.02,1.36-.44.19-.82.36-1.15.5-.43.17-.75.27-1.01.35-.11.03-.2.06-.28.09l-.46.15h.01Z"/>
      <path class="cls-3" d="m38.91,91.46l-2.85-.83-3.78-1.51c-.25-.12-.49-.24-.73-.37l-2.81-1.45c-.54-.32-1.07-.66-1.61-1.01-.31-.2-.63-.41-.95-.61-2.81-1.88-6.88-5.11-10.44-9.82-3.29-4.31-5.79-9.41-7.21-14.74-1.43-5.33-1.82-10.99-1.12-16.37.72-5.86,2.64-10.69,4.13-13.72.18-.35.35-.68.52-1.01.29-.58.58-1.14.88-1.67l1.72-2.67c.15-.23.29-.45.43-.66l2.67-3.36,1.92-2,.47.45-2.05,2.15-2.47,3.15c-.13.19-.27.41-.41.63l-1.71,2.66c-.29.51-.57,1.06-.86,1.62-.17.33-.34.67-.52,1.01-1.45,2.97-3.35,7.73-4.06,13.5-.68,5.3-.3,10.87,1.1,16.12,1.41,5.25,3.86,10.27,7.1,14.51,3.51,4.64,7.52,7.82,10.28,9.67.32.2.63.4.95.61.53.35,1.05.68,1.57.99l2.79,1.44c.23.12.46.24.69.35l3.89,1.54,2.66.77-.18.63v.02-.02Z"/>
      <path class="cls-3" d="m16.25,79.51l-1.3-1.51c-.15-.17-.31-.35-.46-.56l-2.09-2.96c-1.49-2.34-4.17-7.06-5.74-12.85-1.54-5.8-1.57-11.23-1.46-13.94l.32-3.65c.03-.28.08-.51.12-.74l.37-1.95,2.59.49-.32,1.68c-.01.08-.04.19-.06.31-.03.15-.06.31-.08.48l-.32,3.57c-.18,4.3.32,9.09,1.37,13.08,1.08,3.97,3.04,8.37,5.38,12.07l2.04,2.9c.09.12.2.24.3.35.08.09.15.17.22.26l1.1,1.27-2,1.72h0l.02-.02Z"/>
      <path class="cls-3" d="m90.88,39.07l-1.18-3.65c-.1-.39-.28-.78-.46-1.19-.1-.21-.2-.43-.29-.66l-.95-2.17c-.21-.48-.49-.96-.78-1.46-.17-.29-.34-.58-.5-.89l-.31-.55c-.37-.66-.74-1.33-1.22-1.96-2.38-3.72-5.73-7.26-9.71-10.27-4.3-3.25-9.32-5.7-14.51-7.09-5.21-1.42-10.77-1.8-16.1-1.11-5.95.76-10.64,2.6-13.54,4.01-3.4,1.77-6.37,3.72-8.36,5.47-.35.3-.67.58-.95.82-.48.41-.88.75-1.17,1.03l-.68.71-.47-.45.69-.72c.32-.29.72-.64,1.22-1.06.29-.25.61-.52.95-.81,2.02-1.79,5.04-3.76,8.49-5.57,2.94-1.43,7.71-3.29,13.75-4.07,5.42-.7,11.07-.31,16.36,1.13,5.27,1.4,10.37,3.9,14.74,7.2,4.04,3.05,7.44,6.65,9.84,10.42.5.64.89,1.34,1.27,2.02l.31.55c.16.31.34.6.49.88.3.52.59,1.02.81,1.53l.96,2.18c.09.23.19.44.28.64.2.44.39.85.5,1.27l1.17,3.63-.63.2h-.02Z"/>
      <path class="cls-3" d="m78.89,18.51l-1.1-.34s-.1-.09-.24-.2l-1.54-1.21c-.78-.62-1.75-1.4-2.98-2.13l-2.5-1.53-2.92-1.5-3.27-1.32c-.42-.19-.85-.31-1.31-.44l-2.11-.61c-4.04-1.09-8.82-1.61-13.1-1.4-1.15.09-2.2.21-3.12.32-.48.05-.91.11-1.29.14-.25.04-.52.1-.74.15-.15.03-.27.06-.39.08l-.4.09-.55-2.58.44-.09c.12-.03.21-.04.33-.07.27-.06.6-.14,1-.19.43-.05.84-.09,1.31-.15.9-.1,2.02-.23,3.26-.33,4.58-.22,9.66.32,13.98,1.49l2.12.62c.53.15,1.07.31,1.61.55l3.39,1.37,4.44,2.38,1.23.79c1.34.79,2.44,1.67,3.23,2.3l1.51,1.18c.25.19.39.32.42.35l-.89.97.2,1.3h-.02Z"/>
      <path class="cls-1" d="m58.38,81.46c-2.48.66-4.63.94-6.23,1.06-2.95.13-5.69-.03-7.71-.43-.33-.06-.64-.12-.92-.18-.48-.09-.89-.17-1.19-.24l-.74-.22.12-.42.73.21c.29.07.69.14,1.16.23.28.05.59.11.93.17,1.99.4,4.68.55,7.59.42,2.43-.17,6.22-.75,10.42-2.51,3.77-1.57,7.29-3.94,10.18-6.85,2.89-2.89,5.26-6.41,6.86-10.18,1.47-3.48,2.33-7.09,2.48-10.43.08-.62.07-1.21.06-1.79v-.48c0-.26-.01-.51,0-.76,0-.45,0-.87-.04-1.27-.06-.46-.1-.91-.15-1.33-.07-.75-.14-1.4-.26-1.97l-.61-2.84.43-.09.61,2.85c.12.59.19,1.28.26,2.01.04.42.09.86.15,1.32.05.43.05.86.05,1.32v1.23c0,.59.02,1.2-.06,1.83-.16,3.37-1.02,7.03-2.52,10.56-1.62,3.82-4.02,7.39-6.95,10.32-2.93,2.95-6.5,5.35-10.32,6.95-1.51.63-2.98,1.12-4.34,1.48h0v.03Z"/>
      <path class="cls-5" d="m82.52,56.89l-1.73-.33.43-2.34.22-2.4c.06-.43.05-.83.04-1.25l-.02-2.01c0-.32-.02-.59-.05-.81l-.07-.61,1.75-.2.07.61c.03.26.07.62.06,1.04l.02,1.97c0,.45.02.96-.05,1.47l-.28,2.83-.39,2.04h0Z"/>
      <path class="cls-5" d="m75.58,71.23l-1.38-1.09.94-1.2c.41-.46.8-1.09,1.22-1.76.2-.32.4-.64.62-.96.25-.36.45-.75.64-1.13l.9-1.73c.14-.25.23-.48.3-.67.04-.11.08-.2.12-.29l.14-.36,1.63.65-.15.39c-.04.09-.06.16-.09.24-.09.23-.21.54-.4.88l-.88,1.7c-.21.42-.45.88-.76,1.33-.19.29-.39.6-.58.9-.46.73-.89,1.41-1.36,1.94l-.91,1.16h0Z"/>
      <path class="cls-5" d="m62.75,80.69l-.71-1.61,1.39-.61c.55-.2,1.17-.56,1.82-.93.35-.2.71-.41,1.08-.61.4-.21.79-.48,1.15-.74l1.53-1.08c.29-.19.51-.38.68-.53l.43-.37,1.15,1.33-.43.37c-.21.17-.48.42-.85.66l-1.5,1.06c-.4.28-.85.61-1.35.86-.34.18-.68.38-1.01.57-.72.41-1.39.8-2.03,1.04l-1.35.59h0Z"/>
      <path class="cls-5" d="m56.92,82.48l-1.49.32c-.69.09-1.45.18-2.26.27l-1.25.13c-.43,0-.87,0-1.29.01-.77.01-1.49.02-2.09,0l-1.58-.14.16-1.75,1.52.14c.52.01,1.22,0,1.96,0,.41,0,.84,0,1.26-.02l1.11-.12c.8-.09,1.54-.17,2.15-.25l1.42-.3.37,1.72h.01Z"/>
      <path class="cls-1" d="m41.6,81.45l-2.16-.63-2.87-1.14-2.68-1.37c-.41-.24-.82-.5-1.24-.78-.23-.15-.46-.3-.7-.45-2.13-1.43-5.22-3.88-7.92-7.45-2.5-3.27-4.39-7.14-5.47-11.18-1.08-4.05-1.38-8.34-.85-12.42.55-4.45,2.01-8.11,3.13-10.41.13-.26.26-.51.39-.75.23-.45.45-.88.68-1.28l1.8-2.75,1.71-2.17,1.59-1.67.32.3-1.56,1.63-1.88,2.39-1.61,2.5c-.22.39-.44.82-.67,1.26-.12.25-.25.5-.39.75-1.1,2.26-2.54,5.88-3.09,10.26-.52,4.03-.23,8.26.84,12.25,1.07,3.99,2.94,7.81,5.4,11.03,2.67,3.53,5.72,5.94,7.81,7.35.24.15.47.3.7.45.41.27.82.53,1.21.76l2.88,1.45,2.57,1.03,2.17.64-.13.42h0v-.02Z"/>
      <path class="cls-5" d="m36.09,80.18l-1.8-.93c-.3-.15-.63-.32-.96-.51l-1.55-1c-.82-.48-1.59-1.09-2.2-1.58-.19-.16-.38-.31-.56-.44-.14-.11-.26-.21-.37-.29-.23-.18-.42-.33-.57-.47l-.3-.29,1.21-1.27.3.29c.1.1.25.21.43.35.12.09.25.19.38.3.17.13.36.28.57.45.6.48,1.28,1.02,2.02,1.46l1.54.99c.27.15.57.31.86.45l1.81.93-.8,1.56h-.01Z"/>
      <path class="cls-5" d="m23.64,70.22l-.88-1.25c-.09-.14-.19-.27-.29-.41-.2-.28-.41-.58-.62-.91l-.9-1.6c-.52-.84-.93-1.78-1.25-2.53l-.69-1.57c-.13-.34-.18-.52-.18-.52l1.69-.47s.03.13.11.32l.43.97c.08.17.16.37.25.57.32.73.68,1.57,1.15,2.33l.9,1.59c.16.26.37.54.55.79.1.15.2.29.3.42l.87,1.24-1.44,1.01h0v.02Z"/>
      <path class="cls-5" d="m19,55.26l-1.7.44s-.05-.18-.1-.5l-.2-1.75c-.1-.81-.21-1.83-.18-2.86l-.02-1.75c.02-.43.05-.81.08-1.15.02-.17.03-.33.04-.48l.14-1.53,1.75.16-.14,1.52c0,.15-.03.32-.05.5-.03.32-.06.65-.08,1.01l.02,1.75c-.03.94.08,1.84.16,2.64.03.22.05.43.07.62l.12,1.09c.02.15.05.27.06.29h.03Z"/>
      <path class="cls-5" d="m20.11,40.25l-1.69-.49.12-.4c.05-.18.15-.42.25-.68.05-.13.11-.27.17-.42.09-.23.18-.44.27-.68.29-.73.65-1.65,1.13-2.5l.81-1.56c.22-.37.42-.69.61-.97l1.09-1.71,1.48.95-1.1,1.71c-.17.27-.36.56-.54.86l-.8,1.54c-.44.78-.76,1.59-1.04,2.31-.1.25-.19.48-.27.69-.05.14-.11.29-.17.43-.08.2-.15.37-.19.51l-.12.4h0Z"/>
      <path class="cls-1" d="m81.08,41.7l-.89-2.77c-.18-.55-.45-1.14-.76-1.83-.17-.39-.36-.79-.54-1.23-.16-.37-.37-.73-.6-1.12-.13-.22-.25-.44-.37-.67-.07-.13-.16-.27-.23-.41-.28-.5-.57-1.02-.94-1.5-1.81-2.83-4.36-5.52-7.37-7.81-3.27-2.47-7.09-4.34-11.03-5.38-3.96-1.08-8.19-1.37-12.24-.84-4.52.58-8.09,1.98-10.28,3.05-2.58,1.34-4.84,2.82-6.35,4.16-.26.23-.5.43-.72.62-.37.31-.67.58-.9.79l-.52.54-.32-.31.53-.55c.24-.22.55-.49.92-.81.22-.18.46-.39.71-.61,1.54-1.37,3.83-2.86,6.45-4.22,2.23-1.08,5.85-2.5,10.43-3.09,4.11-.53,8.4-.23,12.41.85,4,1.07,7.86,2.95,11.18,5.46,3.06,2.31,5.64,5.04,7.47,7.9.38.49.68,1.02.96,1.54.07.14.16.28.23.41.13.23.25.44.37.66.23.4.45.78.62,1.16.18.43.36.84.54,1.22.3.67.58,1.3.78,1.87l.89,2.77-.42.14h-.01Z"/>
      <path class="cls-5" d="m31.86,24.33l-1.01-1.44,1.25-.88c.56-.34,1.19-.7,1.86-1.07.37-.21.74-.42,1.12-.63l.08-.04,1.07-.47c.74-.33,1.44-.64,2.02-.88l1.52-.5.54,1.67-1.44.47c-.5.21-1.19.51-1.92.84l-1.03.45c-.37.21-.74.42-1.1.62-.65.36-1.26.7-1.75,1.01l-1.2.84h-.01Z"/>
      <path class="cls-5" d="m55.34,19l-.56-.11c-.24-.04-.51-.1-.83-.12l-1.9-.17c-.45-.04-.91-.08-1.35-.06-.43.01-.85.01-1.26.02-.75,0-1.46,0-1.99.09l-1.57.17-.19-1.75,1.51-.17c.63-.11,1.41-.11,2.23-.11.39,0,.79,0,1.18-.01.55-.03,1.1.02,1.59.07l1.86.17c.41.02.77.09,1.03.15l.55.1-.33,1.73h.03Z"/>
      <path class="cls-5" d="m69.17,25.05l-.33-.26s-.13-.1-.22-.18c-.17-.13-.35-.28-.57-.41l-1.68-1.08c-.36-.23-.73-.47-1.1-.64-.36-.18-.7-.35-1.03-.53-.7-.37-1.36-.71-1.9-.89l-1.46-.59.65-1.63,1.41.57c.62.21,1.34.59,2.1.99.32.17.65.34.97.5.47.22.91.5,1.3.76l1.64,1.06c.31.18.56.39.76.54.06.05.12.1.18.14l.35.28-1.09,1.38h.02Z"/>
      <path class="cls-5" d="m78.58,36.83l-.25-.56c-.09-.21-.2-.45-.35-.7l-.78-1.39c-.07-.12-.14-.26-.23-.39-.21-.37-.4-.72-.63-1.03l-1.53-2.16-1.43-1.65,1.33-1.14,2,2.44,1.03,1.47c.29.38.54.83.76,1.21l.98,1.75c.2.33.35.66.45.89l.24.56-1.61.7h.02Z"/>
      <path class="cls-3" d="m87.25,40.02l.33,1.55.39-.08-.33-1.55-.39.08Z"/>
      <path class="cls-3" d="m88.87,47.47l-.4.04c0-.07-.02-.16-.03-.26l-.22-2,.4-.04.22,1.99c.01.09.02.18.03.26h0Zm-.44-3.77l-.39.09-.16-.74.39-.08.16.74h0Z"/>
      <path class="cls-3" d="m62.31,86.9l-.13-.38.38-.12c.11-.04.25-.09.41-.14.3-.09.66-.2,1.06-.38.08-.03.16-.08.25-.12l.17.37c-.09.04-.17.08-.25.12-.43.18-.81.3-1.12.4-.15.04-.29.09-.4.13l-.39.13h.02Zm3.53-1.36l-.16-.37c.22-.1.45-.2.69-.3l.16.37c-.24.11-.47.21-.69.31h0Zm2.06-.96l-.18-.35c.49-.25.95-.51,1.39-.78.4-.23.8-.46,1.21-.72l.21.34c-.41.25-.82.5-1.22.72-.44.28-.91.53-1.41.79h0Zm3.59-2.13l-.22-.33c.61-.41,1.23-.85,1.84-1.3l.24.32c-.61.46-1.23.9-1.86,1.31Zm3.05-2.25l-.25-.31c.19-.16.39-.32.58-.48l.26.3c-.2.17-.39.33-.58.48h-.01Zm1.73-1.48l-.27-.29c.74-.68,1.47-1.38,2.15-2.1l.29.28c-.68.72-1.41,1.44-2.17,2.12h0Zm2.93-2.96l-.3-.27c.5-.56.99-1.14,1.45-1.72l.32.24c-.47.59-.96,1.18-1.46,1.75h0Zm2.37-2.96l-.33-.23c.13-.18.26-.36.38-.55l.04-.07.34.21-.04.07c-.13.19-.26.38-.39.56h0Zm1.25-1.9l-.34-.22c.59-.89,1.11-1.71,1.51-2.58l.37.17c-.42.89-.94,1.72-1.54,2.63Zm2.05-3.63l-.36-.18.55-1.07.39-.97.37.15-.51,1.21-.45.86h0Zm1.52-3.47l-.37-.15c.09-.23.19-.46.27-.7l.38.14c-.09.24-.18.48-.28.71Zm.75-2.16l-.38-.11.21-.75c.08-.27.15-.54.23-.8l.28-.95c.03-.12.05-.25.08-.39l.39.07c-.03.14-.05.27-.09.41l-.28.96c-.08.27-.16.53-.23.8l-.21.75h0Zm1.03-4.04l-.39-.07.23-1.23c.07-.31.13-.63.18-.99l.4.05c-.05.37-.11.7-.18,1.02l-.23,1.22h-.01Zm.55-3.75l-.4-.03c.02-.23.04-.46.07-.67v-.08l.41.04v.08c-.03.22-.05.44-.07.67h-.01Zm.2-2.26l-.4-.02c.02-.33.02-.61,0-.85l-.02-2.16h.4l.02,2.14c.01.24.01.54,0,.88h0Z"/>
      <path class="cls-3" d="m60.11,87.61l-.13-.38,1.51-.49.12.38-1.51.49h.01Z"/>
      <path class="cls-3" d="m60.09,87.61l-1.55.33-.08-.39,1.55-.33.08.39Z"/>
      <path class="cls-3" d="m57.08,88.26l-.74.16-.09-.39.74-.16.08.39h0Zm-2.25.34l-1.99.22c-.09.01-.18.02-.27.03l-.04-.4c.08,0,.16-.02.25-.03l2-.22.04.4h.01Z"/>
      <path class="cls-3" d="m51.46,88.88l-2.14.02c-.25.02-.54.01-.88,0l.02-.4c.33.02.61.02.85,0l2.16-.02v.4h0Zm-4.54-.11h-.08c-.22-.03-.44-.06-.67-.07l.03-.4c.23.02.46.04.67.07h.08l-.04.41h.01Zm-2.26-.21c-.37-.05-.7-.11-1.02-.18l-1.22-.23.08-.39,1.23.23c.32.07.63.13.99.18l-.05.4h-.01Zm-3.35-.62c-.14-.03-.27-.05-.41-.08l-.96-.28c-.26-.08-.53-.15-.8-.23-.25-.07-.5-.14-.75-.22l.11-.38c.25.07.5.14.75.22.27.08.54.15.8.23l.95.28c.12.03.25.05.38.08l-.07.39h0Zm-4.37-1.29c-.24-.09-.48-.18-.71-.28l.15-.37c.23.09.46.19.7.27,0,0-.14.38-.14.38Zm-2.11-.85l-1.21-.51-.86-.45.18-.36,1.07.55.97.39-.15.37h0Zm-3.07-1.47c-.89-.42-1.72-.94-2.63-1.54l.22-.34c.89.59,1.71,1.11,2.58,1.51l-.17.36h0Zm-3.89-2.36l-.07-.04c-.19-.13-.38-.26-.56-.39l.23-.33c.18.13.36.26.55.38l.07.04-.21.34h-.01Zm-1.85-1.35c-.59-.47-1.18-.96-1.75-1.46l.27-.3c.56.5,1.14.99,1.72,1.45,0,0-.24.31-.24.31Zm-2.58-2.23c-.72-.68-1.44-1.41-2.12-2.17l.29-.27c.68.74,1.39,1.47,2.11,2.15,0,0-.28.29-.28.29Zm-3.12-3.3c-.17-.2-.33-.39-.48-.58l.31-.25c.16.19.32.39.48.58l-.31.26h0Zm-1.42-1.78c-.46-.61-.9-1.23-1.32-1.86l.33-.22c.41.61.85,1.24,1.3,1.84l-.32.24h.01Zm-1.93-2.82c-.25-.41-.5-.82-.72-1.22-.28-.44-.53-.91-.79-1.41l.35-.18c.25.49.51.95.78,1.39.23.4.46.8.72,1.21l-.34.21h0Zm-2.17-4c-.11-.24-.21-.47-.31-.69l.37-.16c.1.22.2.45.3.69l-.37.16h.01Zm-.9-2.08c-.04-.09-.08-.17-.12-.25-.18-.43-.31-.81-.39-1.12-.04-.15-.09-.29-.13-.4l-.12-.39.38-.12.12.38c.04.11.09.25.14.41.09.3.2.66.37,1.07.04.08.08.16.12.25l-.37.17h0Z"/>
      <path class="cls-3" d="m12.8,59.97l-.38.12.49,1.51.38-.12-.49-1.51Z"/>
      <path class="cls-3" d="m12.08,58.52l.33,1.55.39-.08-.33-1.55-.39.08Z"/>
      <path class="cls-3" d="m12.16,56.98l-.39.09-.16-.74.39-.08.16.74h0Zm-.34-2.22l-.4.04-.22-1.99c-.01-.09-.02-.18-.03-.26l.4-.04c0,.08.02.16.03.25l.22,2h0Z"/>
      <path class="cls-3" d="m11.54,51.45h-.4l-.02-2.14c-.01-.24-.01-.54,0-.88l.4.02c-.02.33-.02.61,0,.85l.02,2.16h0Zm.11-4.5l-.4-.04v-.08c.03-.22.05-.44.07-.67l.4.03c-.02.23-.04.46-.07.67v.08h0Zm.21-2.24l-.4-.05c.05-.37.11-.7.18-1.02l.23-1.21.39.07-.23,1.22c-.07.31-.13.63-.18.99h0Zm.62-3.32l-.39-.07c.03-.14.05-.27.09-.41l.28-.96c.08-.27.15-.53.23-.8.07-.25.14-.5.22-.75l.38.11c-.07.25-.14.5-.21.75-.08.27-.15.54-.23.8l-.28.95c-.02.12-.05.25-.08.39h-.01Zm1.27-4.31l-.38-.13c.09-.24.18-.48.28-.71l.37.15c-.09.23-.19.46-.27.7h0Zm.84-2.09l-.37-.15.51-1.2.45-.87.36.18-.55,1.07-.39.97h0Zm1.46-3.05l-.36-.17c.42-.89.94-1.71,1.54-2.63l.34.22c-.59.89-1.11,1.71-1.51,2.58h-.01Zm2.33-3.85l-.34-.21.04-.07c.13-.19.26-.38.39-.56l.33.23c-.13.18-.26.36-.38.55l-.04.07h0Zm1.32-1.82l-.32-.24c.47-.59.96-1.18,1.46-1.75l.3.27c-.5.56-.99,1.14-1.44,1.72Zm2.21-2.56l-.29-.27c.68-.72,1.41-1.44,2.17-2.12l.27.29c-.74.68-1.47,1.38-2.14,2.1h-.01Zm3.28-3.09l-.26-.31c.19-.17.39-.32.58-.48l.25.31c-.19.15-.39.32-.58.48h.01Zm1.76-1.4l-.24-.32c.61-.46,1.24-.9,1.86-1.32l.22.33c-.61.41-1.24.85-1.84,1.3h0Zm2.79-1.91l-.21-.34c.42-.26.82-.5,1.22-.72.44-.28.91-.53,1.41-.79l.18.35c-.49.25-.95.51-1.39.78-.4.23-.8.46-1.21.71h0Zm3.95-2.15l-.16-.37c.24-.11.47-.21.69-.31l.16.37c-.22.1-.45.2-.69.3h0Zm2.08-.9l-.17-.36c.09-.04.17-.08.25-.12.43-.18.81-.31,1.12-.39.15-.04.29-.09.4-.13l.39-.12.13.38-.38.12c-.11.04-.25.09-.41.14-.29.09-.66.2-1.06.38-.07.04-.16.08-.25.12h0l-.02-.02Z"/>
      <path class="cls-3" d="m38.55,13.27l-.13-.38,1.51-.49.13.38-1.51.49Z"/>
      <path class="cls-3" d="m41.59,12.45l-1.56.33-.08-.39,1.55-.33.08.39h.01Z"/>
      <path class="cls-3" d="m47.52,11.56c-.08,0-.17.02-.26.03l-2,.22-.04-.4,1.98-.22c.09-.01.18-.02.27-.03l.04.4h0Zm-3.73.42l-.74.16-.09-.39.74-.16.09.39Z"/>
      <path class="cls-3" d="m86.54,37.85l-.13-.38c-.04-.11-.09-.25-.14-.41-.09-.3-.2-.66-.38-1.06-.04-.08-.08-.16-.12-.25l.36-.17c.04.08.08.17.12.25.19.43.3.81.4,1.12.04.15.09.29.13.4l.13.39-.38.12h0Zm-1.35-3.5c-.1-.22-.2-.45-.3-.69l.37-.16c.11.24.21.47.31.69l-.37.16h0Zm-.95-2.04c-.25-.49-.51-.95-.78-1.39-.23-.4-.46-.8-.72-1.21l.34-.21c.25.41.5.82.72,1.22.28.44.53.91.79,1.41l-.35.18h0Zm-2.11-3.55c-.4-.62-.85-1.24-1.3-1.84l.32-.24c.46.61.9,1.23,1.31,1.86,0,0-.33.22-.33.22Zm-2.22-3.02c-.16-.19-.32-.39-.48-.58l.3-.26c.17.2.33.39.48.58l-.31.25h0Zm-1.47-1.71c-.68-.74-1.38-1.47-2.1-2.15l.28-.29c.72.68,1.44,1.41,2.12,2.17l-.3.27Zm-2.93-2.91c-.56-.5-1.14-.99-1.73-1.44l.25-.31c.59.47,1.18.96,1.75,1.46l-.27.3h0Zm-2.93-2.34c-.18-.13-.36-.26-.55-.38l-.07-.04.21-.34.07.04c.19.13.38.26.56.39l-.23.33h.01Zm-1.88-1.24c-.89-.59-1.71-1.11-2.58-1.51l.17-.36c.89.42,1.72.94,2.63,1.54l-.22.34h0Zm-3.59-2.03l-1.07-.55-.97-.39.15-.37,1.2.51.87.45-.18.36h0Zm-3.44-1.51c-.23-.1-.47-.18-.7-.27l.14-.38c.24.09.48.18.71.28,0,0-.15.37-.15.37Zm-2.12-.73c-.25-.07-.5-.14-.75-.21-.27-.08-.54-.15-.8-.23l-.95-.28c-.12-.02-.25-.05-.39-.08l.08-.39c.13.03.27.05.41.08l.96.28c.26.08.53.15.8.23.25.07.5.14.75.21l-.11.38h0Zm-4-1.02l-1.22-.23c-.31-.07-.63-.13-.99-.18l.05-.4c.37.05.7.11,1.02.18l1.21.23-.08.39h.01Zm-3.71-.55c-.23-.02-.46-.04-.67-.07h-.08l.04-.41h.08c.22.03.44.06.67.07l-.03.4h-.01Zm-2.25-.19c-.33-.02-.61-.02-.85,0l-2.16.02v-.4l2.14-.02c.24-.01.54-.01.88,0l-.02.4h0Z"/>
      <path class="cls-3" d="m87.15,38.4l-.38.12.49,1.51.38-.12-.49-1.51Z"/>
      <path class="cls-2" d="m63.29,94.9l-.14-.42,1.67-.54.14.42-1.67.54h0Zm3.35-1.09l-.14-.42.11-.03,1.49-.66.18.4-1.63.7h-.01Zm3.24-1.41l-.18-.4.71-.31c.26-.11.52-.24.87-.43l.21.38c-.36.2-.63.34-.91.45l-.7.31h0Zm3.14-1.62l-.22-.38,1.53-.86.22.38-1.53.86Zm3.02-1.84l-.25-.36,1.43-1,.25.35-1.43,1.01h0Zm2.88-2.05l-.27-.34c.18-.15.36-.3.53-.46.14-.12.27-.24.42-.36l.38-.33.28.33-.38.33c-.14.12-.28.24-.41.36-.18.16-.36.32-.54.47h0Zm2.67-2.3l-.28-.33.69-.59.59-.59.32.31c-.2.21-.4.4-.61.61l-.7.6h-.01Zm2.52-2.48l-.32-.3c.39-.43.78-.86,1.16-1.31l.33.29c-.38.45-.78.89-1.17,1.32Zm2.31-2.67l-.34-.27c.36-.45.73-.91,1.07-1.38l.35.26c-.36.47-.72.94-1.08,1.39Zm2.12-2.82l-.36-.25c.33-.47.66-.96.98-1.45l.37.24c-.32.5-.65.98-.99,1.46h0Zm1.94-2.96l-.38-.22.15-.25c.23-.42.47-.85.7-1.28l.39.2c-.23.44-.46.87-.7,1.3l-.14.24h-.02Zm1.64-3.12l-.4-.19c.25-.53.49-1.06.73-1.59l.4.18c-.23.54-.48,1.07-.74,1.6h0Zm1.42-3.23l-.41-.16c.22-.54.42-1.09.62-1.64l.41.15c-.2.55-.41,1.1-.62,1.65Zm1.2-3.32l-.42-.13c.18-.56.35-1.12.51-1.67l.42.12c-.16.56-.34,1.12-.51,1.69h0Zm.95-3.41l-.43-.08.33-1.73.43.08-.33,1.73Zm.66-3.45l-.43-.09c.05-.27.11-.55.14-.82l.08-.9.44.04-.08.9c-.04.29-.09.57-.15.86h0Zm.38-3.51l-.44-.04.15-1.73h.44l-.02.29s-.13,1.48-.13,1.48Zm.13-3.53h-.44v-.85c-.01-.3-.01-.6,0-.9h.44v1.75h0Zm-.1-3.53l-.43.05-.19-1.75.44-.05.19,1.75h-.01Zm-.39-3.5l-.43.05-.05-.47-.26-1.24.43-.09.27,1.26.05.48h0Zm-.69-3.47l-.43.09-.37-1.72.43-.09.37,1.72h0Z"/>
      <path class="cls-6" d="m62.14,95.27l-1.72.37-.09-.43,1.72-.37.09.43Zm-3.44.74l-1.26.27-.48.05-.05-.43.47-.05,1.24-.26.09.43h-.01Zm-3.49.51l-1.74.2-.05-.43,1.75-.19.05.44h0v-.02Zm-3.52.28c-.29,0-.59,0-.89.01h-.86v-.43h.86c.3-.02.6-.02.9-.02v.44h-.01Zm-3.51.03l-.3-.02-1.48-.13.04-.44,1.73.15v.44h0Zm-3.52-.31l-.9-.08c-.29-.03-.58-.09-.86-.15l.09-.43c.27.05.55.11.82.14l.9.08-.04.44h0Zm-3.49-.55l-1.73-.33.08-.43,1.73.33-.08.43Zm-3.45-.77c-.56-.16-1.12-.34-1.69-.51l.13-.42c.56.18,1.12.35,1.67.51l-.12.42h0Zm-3.35-1.09c-.55-.2-1.1-.41-1.65-.62l.16-.41c.54.21,1.09.42,1.64.62,0,0-.15.41-.15.41Zm-3.27-1.3c-.54-.23-1.07-.48-1.61-.73l.19-.4c.53.25,1.06.49,1.59.73l-.18.4h.01Zm-3.18-1.52c-.44-.23-.87-.46-1.3-.7l-.24-.14.22-.38.25.15c.42.24.85.47,1.28.7l-.2.39h0v-.02Zm-3.05-1.79c-.5-.32-.98-.65-1.46-.99l.25-.36c.47.33.96.66,1.45.98l-.24.37h0Zm-2.89-2.03c-.47-.35-.94-.72-1.39-1.08l.27-.34c.45.36.91.73,1.38,1.07l-.27.35h.01Zm-2.74-2.22c-.44-.39-.89-.78-1.32-1.17l.3-.33c.43.39.86.78,1.3,1.16l-.29.34h.01Zm-2.6-2.39c-.21-.2-.4-.4-.6-.61l-.6-.7.33-.28.59.68c.19.19.39.39.59.59l-.31.31h0Zm-2.35-2.64l-.33-.38c-.12-.14-.24-.28-.36-.41-.16-.18-.32-.36-.47-.54l.34-.28c.14.18.3.36.46.53l.36.42.33.38s-.33.28-.33.28Zm-2.18-2.79l.18-.12-.19.12-1.01-1.43.36-.25,1,1.43-.35.26h.01Zm-1.97-2.93l-.86-1.53.38-.22.87,1.53-.38.22h-.01Zm-1.73-3.06c-.2-.36-.34-.64-.45-.91l-.31-.7.4-.18.31.71c.11.26.24.52.43.87l-.38.22h0Zm-1.47-3.22l-.7-1.63.42-.14.03.11.66,1.49-.4.18h-.01Zm-1.24-3.3l-.54-1.67.42-.14.54,1.67-.42.14h0Z"/>
      <path class="cls-8" d="m5.19,62.03l-.43.09-.37-1.72.43-.09.37,1.72h0Zm-.74-3.44l-.43.09-.27-1.26-.05-.48.44-.05.05.47.26,1.24h0Zm-.51-3.45l-.44.05-.19-1.75.43-.05.19,1.75h0Zm-.28-3.48h-.44v-1.75h.43v.86c.02.3.02.6.02.9h0Zm-.03-3.52h-.44l.02-.29.13-1.48.44.04-.15,1.73h0Zm.3-3.48l-.44-.04.08-.9c.04-.29.09-.57.15-.86l.43.09c-.05.27-.11.55-.14.82l-.08.9h0Zm.54-3.45l-.43-.08.33-1.73.43.08-.33,1.73Zm.76-3.41l-.42-.12c.16-.56.33-1.12.51-1.69l.42.13c-.18.56-.35,1.12-.51,1.67h0Zm1.08-3.33l-.41-.15c.2-.55.41-1.1.62-1.65l.41.16c-.21.54-.42,1.09-.62,1.64Zm1.3-3.25l-.4-.18c.23-.54.48-1.07.74-1.6l.4.19c-.25.53-.5,1.06-.73,1.59h0Zm1.51-3.16l-.39-.2c.23-.44.46-.87.7-1.3l.14-.24.38.22-.15.25c-.23.42-.47.85-.7,1.28h.02Zm1.77-3.01l-.37-.24c.32-.5.65-.98.99-1.46l.36.26c-.33.47-.66.96-.98,1.45h0Zm2.01-2.86l-.35-.27c.35-.47.72-.94,1.08-1.39l.34.27c-.36.45-.73.91-1.08,1.38h.01Zm2.2-2.73l-.34-.29c.38-.45.78-.89,1.17-1.32l.33.3c-.4.43-.78.86-1.16,1.3h0Zm2.37-2.57l-.31-.31c.2-.2.4-.4.61-.61l.7-.6.28.33-.68.59-.59.59h-.01Zm2.6-2.32l-.28-.33.38-.33c.14-.12.28-.24.41-.36.18-.16.36-.32.54-.47l.27.34c-.18.15-.35.3-.53.46-.14.12-.28.24-.42.36l-.38.33h.01Zm2.75-2.16l-.25-.36,1.43-1.01.25.36-1.43,1.01h0Zm2.88-1.95l-.22-.38,1.53-.86.22.38-1.53.86Zm3.05-1.73l-.22-.38c.36-.2.63-.34.91-.45l.7-.31.18.4-.71.31c-.26.11-.52.24-.87.43h0Zm3.18-1.44l-.18-.4,1.63-.7.14.42-.11.03-1.49.66h.01Zm3.26-1.23l-.14-.42,1.67-.54.14.42-1.67.54Z"/>
      <path class="cls-4" d="m94.51,36.87l-.54-1.67.42-.14.54,1.67-.42.14h0Zm-1.08-3.34l-.03-.11-.66-1.49.4-.18.7,1.63-.42.14h.01Zm-1.39-3.2l-.31-.71c-.11-.26-.24-.52-.43-.87l.38-.22c.2.36.34.64.45.91l.31.7-.4.18h0Zm-1.61-3.1l-.86-1.53.38-.22.86,1.53-.38.22h0Zm-1.81-2.98l-1-1.43.35-.26,1.01,1.43-.36.25h0Zm-2.03-2.85c-.15-.18-.3-.36-.46-.53-.12-.14-.24-.28-.36-.42l-.33-.38.33-.28.33.38c.12.14.24.28.36.41.16.18.32.36.47.54,0,0-.34.28-.34.28Zm-2.29-2.66l-.59-.69c-.19-.19-.39-.39-.59-.59l.31-.31c.21.2.4.4.6.61l.6.7-.33.28h0Zm-2.45-2.48c-.43-.39-.87-.78-1.31-1.16l.29-.34c.45.38.89.78,1.32,1.17l-.3.33Zm-2.65-2.28c-.45-.36-.91-.73-1.38-1.07l.27-.35c.47.35.94.72,1.39,1.08l-.27.34h-.01Zm-2.8-2.11c-.47-.33-.96-.66-1.45-.98l.24-.37c.5.32.98.65,1.46.99l-.25.36h0Zm-2.93-1.91l-.25-.15c-.42-.23-.85-.47-1.28-.7l.2-.39c.44.23.87.46,1.3.7l.25.14-.22.38h0v.02Zm-3.09-1.62c-.53-.25-1.06-.49-1.59-.73l.18-.4c.54.23,1.07.48,1.61.73l-.19.4h-.01Zm-3.2-1.4c-.54-.21-1.09-.43-1.64-.62l.15-.41c.55.2,1.1.41,1.65.62l-.16.41Zm-3.29-1.19c-.56-.18-1.11-.35-1.67-.51l.12-.42c.56.16,1.12.34,1.69.52l-.13.42h0Zm-3.35-.94l-1.73-.33.08-.43,1.73.33-.08.43Zm-3.45-.66c-.27-.05-.55-.11-.82-.14l-.9-.08.04-.44.9.08c.29.03.58.09.86.15l-.09.43h0Zm-3.47-.38l-1.73-.15v-.44l.29.02,1.48.13-.04.44h0Zm-3.48-.13h-.86c-.3.02-.6.02-.9.02v-.44c.29,0,.59,0,.89,0h.86v.43h.01Zm-3.49.1l-1.75.19-.05-.43,1.74-.2.05.43h0Zm-3.49.39l-.46.06-1.24.26-.09-.43,1.26-.27.48-.05s.05.43.05.43Zm-3.42.68l-1.72.37-.09-.43,1.72-.37.09.43Z"/>
      <g class="cls-9">
        <path class="cls-7" d="m94.91,71.82c-.08.02-.17.02-.24-.02-.07-.04-.13-.11-.17-.19-.02-.08-.02-.18.03-.26l.17-.32c.03-.06.06-.12.09-.18.06-.1.11-.21.17-.34.07-.16.27-.22.44-.16.16.08.23.27.15.43-.07.14-.13.28-.19.38-.03.05-.05.1-.08.16l-.18.33c-.04.09-.12.14-.2.16h.01Zm2.81-7.31c-.06.02-.12.03-.18,0-.08-.02-.15-.08-.2-.15-.04-.08-.05-.17-.03-.26.04-.17.24-.27.41-.22.18.05.27.23.23.41h-.01c-.03.11-.12.19-.23.22h0Zm1.74-8.21s-.08,0-.12,0c-.09,0-.17-.05-.22-.12-.06-.07-.08-.15-.08-.23.01-.09.01-.19.02-.3l.27-3.09c.06-.46.06-.92.05-1.41v-.05c-.01-.47-.01-.94-.02-1.39v-.09c0-.35-.01-.7-.01-1.05,0-.6,0-1.17-.04-1.71-.07-.6-.13-1.18-.19-1.73l-.1-.9c-.07-.72-.15-1.38-.22-1.96-.06-.38-.14-.74-.22-1.05-.04-.18-.08-.35-.11-.52-.18-.89-.29-1.4-.29-1.4-.04-.17.06-.33.23-.38h.02c.18-.05.35.07.38.25,0,0,.12.53.3,1.39.03.16.07.32.11.49.07.33.16.7.24,1.12v.02c.05.43.09.89.14,1.38l.37,3.22c.04.59.03,1.18.04,1.81,0,.33,0,.66.02,1v1.53c.02.48.03.98-.04,1.49-.07.74-.13,1.48-.2,2.22l-.07.84c-.01.1-.01.19-.02.3,0,.14-.11.26-.24.29h0v.02Z"/>
        <path class="cls-7" d="m62.97,98.29c-4.31,1.15-8.73,1.73-13.18,1.71-.08,0-.16-.03-.23-.09-.06-.07-.1-.14-.1-.24,0-.17.15-.32.33-.33,4.37.01,8.75-.55,12.98-1.69l.07-.02c1-.27,2.01-.58,3.01-.91l.06-.02c.1-.04.2-.07.3-.11.19-.06.36.03.42.21.03.08.02.16-.02.25-.04.07-.11.14-.19.17-.11.04-.23.07-.34.11h-.02c-1,.36-2.05.67-3.1.96h0Zm4.89-1.58c-.17.05-.34-.05-.4-.2-.06-.17.02-.36.2-.42h0c.15-.06.35.02.42.19.06.17-.02.35-.18.42-.01.02-.03.02-.04.02h0Zm6.24-2.9c-.15.04-.3-.03-.37-.15-.05-.08-.05-.17-.03-.26.02-.08.08-.15.15-.2.16-.09.37-.02.46.13.09.16.02.36-.13.45h-.01s-.04.03-.06.03h-.01Zm7-4.66c-.12.03-.26-.01-.34-.12-.06-.07-.08-.15-.07-.23.01-.09.05-.17.12-.22.21-.16.41-.33.61-.49,3.86-3.06,6.43-6.36,8.31-8.76l.35-.45h0c.56-.83,1.03-1.56,1.41-2.15.13-.22.26-.42.38-.59h0c.09-.14.3-.19.45-.1.15.1.19.3.1.46-.12.18-.23.37-.37.58-.39.6-.85,1.35-1.44,2.2h0c-.13.18-.25.33-.38.49-1.89,2.42-4.48,5.73-8.39,8.82-.21.17-.41.34-.62.5-.04.03-.08.05-.12.06h.01,0Zm-39.59,10.1h-.14c-.09-.01-.16-.06-.21-.13-.05-.08-.07-.16-.05-.25.04-.17.21-.3.38-.27.09.01.16.06.21.13.06.07.07.16.05.25-.02.13-.11.23-.24.27Zm-6.68-1.66c-.07.02-.13.02-.19,0-.17-.05-.27-.24-.21-.42.06-.16.25-.27.42-.21.17.05.27.25.21.42-.03.11-.12.19-.23.22h0Zm-1.45-.49c-.07.02-.13.02-.2,0-2.55-.91-5.02-2.03-7.34-3.31-2.57-1.4-5.05-3.08-7.36-4.97-.07-.06-.12-.13-.12-.22s.02-.17.07-.24c.11-.14.33-.16.47-.05,2.28,1.87,4.72,3.51,7.26,4.91,2.27,1.26,4.72,2.37,7.24,3.26.08.04.15.09.18.17.04.08.05.17,0,.25-.04.1-.12.18-.22.2h.01Zm59.68-21.75c-.09.02-.19.01-.26-.04-.15-.1-.19-.3-.1-.45.09-.14.3-.19.46-.1.15.1.19.3.1.45h0c-.04.07-.11.11-.19.13h0Zm-80.35,7.69c-.12.03-.25,0-.33-.1-.12-.14-.1-.35.03-.46.13-.12.34-.1.46.03.12.14.1.35-.03.46-.03.03-.08.06-.14.07h.01Zm-4.18-5.47c-.14.04-.27-.01-.35-.13-.06-.07-.07-.16-.06-.25.01-.09.06-.16.13-.21.14-.1.36-.06.46.09h0c.04.07.06.15.04.23-.02.09-.06.16-.14.22-.03.02-.07.04-.1.04h.02Zm-.82-1.29c-.15.04-.3-.03-.37-.17-.25-.45-.5-.89-.74-1.3l-.51-.91c-.07-.12-.13-.24-.2-.36-.38-.67-.74-1.3-.99-1.93l-1.43-3.27c-.2-.43-.3-.74-.35-.91l-.04-.14c-.03-.1-.06-.15-.06-.17h0c-.02-.09,0-.17.03-.25.04-.07.11-.14.2-.16.17-.05.36.04.41.21,0,0,.04.11.1.32.05.18.14.46.32.83.27.62.65,1.47,1.12,2.55l.32.74c.22.6.58,1.24.98,1.91l.43.77c.31.55.65,1.14.99,1.75.09.17.03.36-.13.45-.02.01-.05.03-.07.04h-.01Z"/>
        <path class="cls-7" d="m1.64,61.1h-.02c-.18.05-.35-.07-.39-.24l-.03-.13-.26-1.27c-.03-.15-.07-.32-.11-.49-.08-.33-.16-.7-.24-1.12v-.02c-.07-.63-.15-1.34-.24-2.11-.05-.42-.09-.85-.14-1.3l-.14-1.2c-.04-.59-.03-1.19-.04-1.82,0-.33,0-.66-.02-1,0-.49,0-.98,0-1.48v-.06c0-.48,0-.98.05-1.49l.27-3.05c0-.1,0-.19.02-.3,0-.17.18-.31.35-.3.17.02.31.17.3.35,0,.09,0,.18-.03.28v.17c-.1.98-.19,1.96-.27,2.94-.06.46-.06.94-.05,1.44v.02c0,.26.02.53,0,.79v.68c0,.36.02.71.02,1.05,0,.61,0,1.17.04,1.72l.29,2.63c.08.71.15,1.38.22,1.97.07.38.14.74.22,1.06.04.18.07.35.11.51.18.88.29,1.38.29,1.38.03.18-.07.35-.24.39h.04Zm.87-24.96c-.06.02-.12,0-.17,0-.09-.02-.16-.08-.2-.15-.05-.08-.05-.17-.03-.26.05-.17.24-.27.41-.22.08.02.15.08.2.15.04.08.06.17.02.25-.03.12-.12.2-.23.23h0Zm2.38-6.46c-.08.02-.16.02-.23-.02-.16-.08-.23-.27-.16-.44.06-.14.12-.25.18-.36.04-.07.07-.12.09-.17l.18-.33c.08-.16.29-.22.45-.14s.22.29.14.44l-.16.33s-.06.12-.09.18c-.06.1-.11.21-.17.34-.04.08-.12.15-.21.17h-.02Z"/>
        <path class="cls-7" d="m96.81,33.32c-.18.05-.35-.04-.4-.21,0,0-.04-.11-.11-.32-.04-.16-.14-.44-.32-.83-.33-.76-.82-1.86-1.45-3.28-.22-.58-.58-1.21-.95-1.88-.07-.11-.14-.23-.2-.34-.39-.69-.81-1.44-1.25-2.22-.05-.08-.05-.17-.03-.24.02-.09.08-.16.15-.2.15-.09.36-.02.45.13l.09.17c.4.73.79,1.41,1.16,2.05.07.13.14.25.21.38.38.66.73,1.28.98,1.91l1.43,3.27c.19.41.3.72.35.91l.05.14c.03.09.05.15.05.16.06.17-.04.36-.21.42v-.02Zm-5.12-10.23c-.14.04-.27-.01-.36-.13-.06-.07-.08-.16-.05-.25s.06-.16.15-.21c.14-.1.36-.06.45.09.1.14.07.35-.08.46-.03.01-.07.04-.11.05h0Zm-4.19-5.47c-.12.03-.25,0-.32-.1-.06-.07-.09-.16-.08-.24,0-.09.04-.17.11-.22.13-.13.35-.1.46.03.06.07.08.15.08.24,0,.08-.04.16-.12.22-.04.03-.08.06-.14.07h.01Zm-6.04-5.85c-.1.03-.21,0-.3-.07-2.29-1.86-4.73-3.51-7.27-4.89-2.27-1.26-4.71-2.36-7.24-3.27-.17-.06-.26-.25-.2-.42.07-.17.26-.27.43-.2,2.56.91,5.03,2.02,7.34,3.31,2.57,1.4,5.04,3.08,7.36,4.97.14.11.17.32.05.46-.05.06-.1.09-.17.11h0ZM7.16,25.31c-.09.03-.19.01-.26-.04-.07-.04-.12-.12-.14-.21-.01-.09,0-.17.05-.25h0c.1-.14.32-.2.46-.1.15.1.19.3.1.46-.04.07-.11.11-.19.13h-.02Zm.83-1.29c-.08.02-.19.01-.26-.04-.15-.1-.2-.3-.1-.45.13-.19.25-.39.4-.62.38-.59.84-1.33,1.42-2.15h.01c.12-.17.24-.32.37-.49,1.88-2.43,4.48-5.74,8.39-8.84.2-.16.41-.33.62-.49.14-.11.35-.08.46.05.11.14.09.35-.05.46-.21.16-.41.33-.61.5-3.86,3.06-6.43,6.34-8.3,8.75l-.35.45c-.57.83-1.04,1.57-1.42,2.16-.13.21-.26.4-.38.59-.04.07-.11.12-.19.14h-.02v-.02ZM65.39,3.06c-.06.02-.12,0-.18,0-.17-.05-.27-.24-.21-.41.05-.17.25-.27.41-.22.17.05.27.24.21.42-.03.11-.13.19-.23.21h0Zm-6.67-1.66s-.1.02-.14,0c-.09-.02-.16-.06-.22-.14-.04-.07-.07-.15-.05-.25.03-.17.2-.3.38-.27h0c.08,0,.15.07.2.13.04.07.07.15.06.24-.02.13-.12.23-.24.27h0Zm-8.38-.75s-.06,0-.08.02c-5.44-.02-10.86.84-16.06,2.62-.12.04-.24.08-.36.12-.17.06-.36-.03-.42-.2-.06-.17.03-.36.2-.42.07-.02.12-.04.19-.06s.12-.04.18-.07C39.2.87,44.75-.02,50.25,0c.18,0,.33.15.33.33,0,.16-.1.28-.24.32h0Zm-24.21,6.18c-.15.04-.31-.02-.38-.15-.09-.16-.02-.37.13-.45.16-.1.36-.03.44.13.09.16.03.36-.13.44-.02.01-.05.02-.08.03h.02Zm6.25-2.89c-.17.05-.34-.05-.4-.2-.06-.17.02-.36.2-.42.16-.07.36.02.42.2.06.17-.02.36-.2.42,0,0-.02,0-.02,0Z"/>
      </g>
      <path class="cls-5" d="m81.54,41.56c4.66,17.4-5.67,35.29-23.07,39.95s-35.29-5.67-39.96-23.07c-4.66-17.4,5.67-35.29,23.07-39.96,17.4-4.66,35.29,5.67,39.95,23.07h0Z"/>
    </g>
  </g>
</svg>