<svg width="48" height="48" viewBox="0 0 48 48" fill="none" xmlns="http://www.w3.org/2000/svg">
<path d="M4 1H44C45.6569 1 47 2.34315 47 4V44C47 45.6569 45.6569 47 44 47H4C2.34315 47 1 45.6569 1 44V4C1 2.34315 2.34315 1 4 1Z" fill="#22D3EE" stroke="black" stroke-width="2" stroke-linecap="round" stroke-linejoin="round"/>
<path d="M10.9231 8.0003C11.2223 8.00045 11.515 8.08786 11.7653 8.25181C12.0156 8.41576 12.2126 8.64914 12.3323 8.92338L17.7169 21.2311C17.8051 21.4172 17.855 21.6192 17.8637 21.8251C17.8724 22.0309 17.8396 22.2364 17.7674 22.4293C17.6951 22.6222 17.5849 22.7987 17.4431 22.9482C17.3014 23.0977 17.1311 23.2172 16.9423 23.2997C16.7535 23.3821 16.5501 23.4258 16.3441 23.4281C16.1381 23.4305 15.9337 23.3914 15.7431 23.3133C15.5525 23.2351 15.3795 23.1195 15.2344 22.9732C15.0893 22.827 14.9751 22.6531 14.8985 22.4618L13.9554 20.308H7.89231L6.94923 22.4618C6.77804 22.8232 6.47289 23.1037 6.09844 23.2439C5.724 23.3841 5.30967 23.373 4.94324 23.213C4.57681 23.053 4.28708 22.7566 4.13542 22.3867C3.98376 22.0167 3.98209 21.6022 4.13077 21.2311L9.51538 8.92338C9.63497 8.64938 9.83179 8.41616 10.0818 8.25223C10.3318 8.0883 10.6241 8.00075 10.9231 8.0003ZM12.6092 17.2311L10.9231 13.3772L9.23692 17.2311H12.6092ZM5.53846 29.5388C5.13044 29.5388 4.73912 29.7008 4.4506 29.9894C4.16209 30.2779 4 30.6692 4 31.0772C4 31.4852 4.16209 31.8766 4.4506 32.1651C4.73912 32.4536 5.13044 32.6157 5.53846 32.6157H42.4615C42.8696 32.6157 43.2609 32.4536 43.5494 32.1651C43.8379 31.8766 44 31.4852 44 31.0772C44 30.6692 43.8379 30.2779 43.5494 29.9894C43.2609 29.7008 42.8696 29.5388 42.4615 29.5388H5.53846ZM5.53846 38.7695C5.13044 38.7695 4.73912 38.9316 4.4506 39.2201C4.16209 39.5086 4 39.9 4 40.308C4 40.716 4.16209 41.1073 4.4506 41.3958C4.73912 41.6844 5.13044 41.8465 5.53846 41.8465H42.4615C42.8696 41.8465 43.2609 41.6844 43.5494 41.3958C43.8379 41.1073 44 40.716 44 40.308C44 39.9 43.8379 39.5086 43.5494 39.2201C43.2609 38.9316 42.8696 38.7695 42.4615 38.7695H5.53846ZM19.3846 9.53876C19.3846 9.13073 19.5467 8.73942 19.8352 8.4509C20.1237 8.16239 20.5151 8.0003 20.9231 8.0003H24.7692C25.6143 8.00015 26.4432 8.23203 27.1656 8.67065C27.8879 9.10928 28.476 9.73782 28.8656 10.4877C29.2553 11.2376 29.4315 12.0801 29.3752 12.9233C29.3188 13.7666 29.0321 14.5781 28.5462 15.2695C29.2608 15.8838 29.7703 16.7022 30.0061 17.6146C30.2419 18.5271 30.1928 19.4898 29.8653 20.3735C29.5378 21.2571 28.9476 22.0193 28.1741 22.5577C27.4006 23.0961 26.4809 23.3847 25.5385 23.3849H20.9231C20.5151 23.3849 20.1237 23.2228 19.8352 22.9343C19.5467 22.6458 19.3846 22.2545 19.3846 21.8465V9.53876ZM22.4615 17.2311V20.308H25.5385C25.9465 20.308 26.3378 20.1459 26.6263 19.8574C26.9148 19.5689 27.0769 19.1776 27.0769 18.7695C27.0769 18.3615 26.9148 17.9702 26.6263 17.6817C26.3378 17.3932 25.9465 17.2311 25.5385 17.2311H22.4615ZM22.4615 14.1541H24.7692C25.1773 14.1541 25.5686 13.9921 25.8571 13.7035C26.1456 13.415 26.3077 13.0237 26.3077 12.6157C26.3077 12.2077 26.1456 11.8163 25.8571 11.5278C25.5686 11.2393 25.1773 11.0772 24.7692 11.0772H22.4615V14.1541ZM34.7692 15.6926C34.7692 13.8834 35.2215 12.7234 35.7692 12.0449C36.0114 11.7354 36.3225 11.4868 36.6777 11.3187C37.0329 11.1507 37.4225 11.068 37.8154 11.0772C38.8308 11.0772 39.7077 11.5695 40.2831 12.8895C40.3632 13.0757 40.4793 13.2443 40.6248 13.3855C40.7702 13.5267 40.9421 13.6377 41.1307 13.7123C41.3192 13.7868 41.5206 13.8233 41.7233 13.8198C41.9259 13.8162 42.1259 13.7727 42.3117 13.6916C42.4975 13.6105 42.6654 13.4935 42.8059 13.3473C42.9463 13.2011 43.0564 13.0286 43.13 12.8397C43.2035 12.6508 43.239 12.4492 43.2344 12.2465C43.2298 12.0439 43.1851 11.8441 43.1031 11.6588C42.0877 9.33261 40.1754 8.0003 37.8138 8.0003C36.9626 7.99151 36.1206 8.17691 35.3517 8.54239C34.5829 8.90788 33.9075 9.44384 33.3769 10.1095C32.2662 11.4834 31.6923 13.4003 31.6923 15.6926C31.6923 17.9849 32.2662 19.9018 33.3769 21.2757C33.9076 21.9417 34.5832 22.4778 35.3524 22.8433C36.1215 23.2088 36.9639 23.394 37.8154 23.3849C40.1769 23.3849 42.0892 22.0526 43.1046 19.7265C43.1867 19.5411 43.2313 19.3413 43.2359 19.1387C43.2405 18.936 43.2051 18.7344 43.1315 18.5455C43.058 18.3566 42.9478 18.1841 42.8074 18.0379C42.667 17.8917 42.499 17.7747 42.3132 17.6936C42.1275 17.6125 41.9275 17.569 41.7248 17.5654C41.5221 17.5619 41.3207 17.5984 41.1322 17.6729C40.9437 17.7475 40.7718 17.8585 40.6263 17.9997C40.4808 18.1409 40.3647 18.3095 40.2846 18.4957C39.7077 19.8172 38.8308 20.308 37.8154 20.308C37.4228 20.3169 37.0335 20.2341 36.6786 20.0661C36.3236 19.8981 36.0128 19.6496 35.7708 19.3403C35.2231 18.6634 34.7692 17.5018 34.7692 15.6926Z" fill="black"/>
</svg>
