<svg width="48" height="48" viewBox="0 0 48 48" fill="none" xmlns="http://www.w3.org/2000/svg">
<path d="M4 1H44C45.6569 1 47 2.34315 47 4V44C47 45.6569 45.6569 47 44 47H4C2.34315 47 1 45.6569 1 44V4C1 2.34315 2.34315 1 4 1Z" fill="#22D3EE" stroke="black" stroke-width="2" stroke-linecap="round" stroke-linejoin="round"/>
<path d="M43.6118 4C35.6268 4.29342 29.1511 6.02101 24.2005 8.68425L21.7272 12.8203L21.3103 10.4625C20.4261 11.0837 19.6053 11.74 18.85 12.427L17.6173 16.2088L17.195 14.0976C13.7833 17.9169 12.1248 22.4791 12.2484 27.1826C16.216 19.3212 23.3609 12.6858 30.0388 8.6213L30.8544 9.96165C24.5335 13.8088 17.7289 20.134 13.885 27.4399H14.9052C16.5654 26.431 18.1919 25.1857 19.8072 23.794L17.2658 23.9279L21.8163 21.9896C25.7505 18.3272 29.6607 14.0185 33.8444 10.3839L31.7907 9.9483L36.5327 8.18328C38.7864 6.46399 41.132 5.00706 43.6116 4H43.6118ZM6.90059 29.0081V31.5602H18.1865V29.0081H6.90059ZM8.61073 33.1286L5.86994 35.5363L4 42.6675L5.21949 44H20.0934L21.3154 42.6676L19.4455 35.5364L16.8516 33.1287H8.61073V33.1286Z" fill="black"/>
</svg>
