<svg width="24" height="24" viewBox="0 0 24 24" fill="none" xmlns="http://www.w3.org/2000/svg">
<path d="M20.5 12C20.5006 12.2546 20.4353 12.5051 20.3105 12.727C20.1856 12.949 20.0055 13.1348 19.7875 13.2665L6.28 21.5297C6.05227 21.6691 5.79144 21.7452 5.52445 21.7502C5.25746 21.7551 4.99399 21.6887 4.76125 21.5578C4.53073 21.4289 4.3387 21.2409 4.2049 21.0132C4.07111 20.7855 4.00039 20.5263 4 20.2622V3.73779C4.00039 3.47368 4.07111 3.21445 4.2049 2.98673C4.3387 2.75902 4.53073 2.57106 4.76125 2.44217C4.99399 2.31124 5.25746 2.24482 5.52445 2.24977C5.79144 2.25471 6.05227 2.33084 6.28 2.47029L19.7875 10.7334C20.0055 10.8651 20.1856 11.051 20.3105 11.2729C20.4353 11.4949 20.5006 11.7453 20.5 12Z" fill="white"/>
</svg>
