<svg width="24" height="24" viewBox="0 0 24 24" fill="none" xmlns="http://www.w3.org/2000/svg">
<path d="M2 4H22M2 12H7.5M2 20H7.5" stroke="#808080" stroke-width="2" stroke-linecap="round"/>
<path d="M15.75 17.5C16.8772 17.5 17.9582 17.0522 18.7552 16.2552C19.5522 15.4582 20 14.3772 20 13.25C20 12.1228 19.5522 11.0418 18.7552 10.2448C17.9582 9.44777 16.8772 9 15.75 9C14.6228 9 13.5418 9.44777 12.7448 10.2448C11.9478 11.0418 11.5 12.1228 11.5 13.25C11.5 14.3772 11.9478 15.4582 12.7448 16.2552C13.5418 17.0522 14.6228 17.5 15.75 17.5Z" stroke="#808080" stroke-width="2"/>
<path d="M18.5 16.5L22 20.025" stroke="#808080" stroke-width="2" stroke-linecap="round"/>
</svg>
