<svg width="120" height="39" viewBox="0 0 120 39" fill="none" xmlns="http://www.w3.org/2000/svg">
<path d="M0.000633173 9.59312C-0.0055311 9.19168 0.146611 8.80397 0.42414 8.51386C0.561517 8.36614 0.728883 8.24949 0.915021 8.17174C1.10116 8.09399 1.30177 8.05692 1.5034 8.06303C1.7108 8.05935 1.91682 8.09736 2.10926 8.1748C2.30169 8.25224 2.47661 8.36754 2.62364 8.51386C2.77178 8.65162 2.88959 8.81874 2.96956 9.00456C3.04954 9.19038 3.08992 9.39083 3.08814 9.59312C3.09264 9.78981 3.0533 9.98503 2.97295 10.1646C2.89261 10.3442 2.77329 10.5037 2.62364 10.6314C2.31494 10.9038 1.91503 11.0501 1.5034 11.0412C1.30526 11.0484 1.1077 11.0158 0.922354 10.9454C0.737004 10.875 0.567608 10.7682 0.42414 10.6314C0.284944 10.4975 0.175342 10.3359 0.102399 10.1571C0.0294555 9.97829 -0.00521106 9.78616 0.000633173 9.59312ZM0.465125 13.7462H2.65097V27.4077H0.465125V13.7462Z" fill="#0794BC"/>
<path d="M15.4108 27.4077V19.6206C15.4108 18.1998 15.2059 17.1297 14.7961 16.4102C14.3862 15.6907 13.6348 15.3264 12.5419 15.3173C11.6745 15.2903 10.8263 15.5753 10.1511 16.1206C9.53137 16.6268 9.07117 17.3014 8.82598 18.0632V27.4077H6.64014V13.7462H8.17023L8.58007 15.4129H8.68936C9.16197 14.8033 9.77002 14.3122 10.4654 13.9784C11.2891 13.5917 12.1924 13.4045 13.102 13.432C13.7677 13.4258 14.4305 13.5179 15.0693 13.7052C15.6134 13.8611 16.1016 14.1692 16.4764 14.5932C16.8882 15.1092 17.1778 15.7117 17.3234 16.3555C17.5297 17.2742 17.6214 18.2149 17.5967 19.1561V27.4077H15.4108Z" fill="#0794BC"/>
<path d="M31.3948 22.7082C31.3948 23.6372 31.3948 24.4814 31.4221 25.2356C31.4375 25.9837 31.5198 26.7289 31.668 27.4624H30.1926L29.6461 25.5224H29.5368C29.1542 26.1786 28.6082 26.7245 27.9521 27.1072C27.2156 27.5385 26.3736 27.7561 25.5203 27.7356C23.6988 27.7356 22.3463 27.1618 21.4629 26.0143C20.5794 24.8667 20.1377 23.0725 20.1377 20.6316C20.1377 18.3001 20.6842 16.5286 21.7771 15.3173C22.87 14.106 24.3864 13.5003 26.3264 13.5003C26.8613 13.4911 27.3961 13.5277 27.9248 13.6096C28.3569 13.6944 28.7818 13.8132 29.1953 13.9648V8.28162H31.3811L31.3948 22.7082ZM25.8755 25.823C26.6778 25.8663 27.4672 25.608 28.0887 25.0989C28.6352 24.6181 29.0086 23.8894 29.2089 22.9131V16.1206C28.8766 15.864 28.4954 15.6781 28.0887 15.5741C27.5419 15.4515 26.9822 15.3964 26.422 15.4102C25.1651 15.4102 24.1815 15.8246 23.4711 16.6534C22.7607 17.4822 22.4055 18.8083 22.4055 20.6316C22.4 21.3278 22.4595 22.023 22.5831 22.7082C22.6785 23.2856 22.8775 23.841 23.1706 24.3476C23.4341 24.8004 23.8107 25.177 24.2635 25.4405C24.7566 25.7108 25.3135 25.843 25.8755 25.823Z" fill="#0794BC"/>
<path d="M34.9194 9.59312C34.9157 9.39422 34.9511 9.19652 35.0238 9.01133C35.0964 8.82614 35.2049 8.6571 35.343 8.51386C35.4803 8.36614 35.6477 8.24949 35.8338 8.17174C36.02 8.09399 36.2206 8.05692 36.4222 8.06303C36.6296 8.0595 36.8356 8.09758 37.028 8.17502C37.2204 8.25245 37.3953 8.36767 37.5425 8.51386C37.6906 8.65162 37.8084 8.81874 37.8884 9.00456C37.9683 9.19038 38.0087 9.39083 38.0069 9.59312C38.0115 9.78981 37.9721 9.98503 37.8918 10.1646C37.8114 10.3442 37.6921 10.5037 37.5425 10.6314C37.2338 10.9038 36.8338 11.0501 36.4222 11.0412C36.2241 11.0484 36.0265 11.0158 35.8412 10.9454C35.6558 10.875 35.4864 10.7682 35.343 10.6314C35.2029 10.4981 35.0928 10.3367 35.0198 10.1577C34.9468 9.97873 34.9126 9.78629 34.9194 9.59312ZM35.3839 13.7462H37.5698V27.4077H35.3839V13.7462Z" fill="#0794BC"/>
<path d="M45.4935 21.7519L46.2586 24.3475H46.2859L46.969 21.6972L50.0292 13.7462H52.3789L46.5591 27.7083H45.6301L39.701 13.7462H42.2148L45.4935 21.7519Z" fill="#0794BC"/>
<path d="M54.0455 9.59312C54.0418 9.39422 54.0772 9.19652 54.1499 9.01133C54.2225 8.82614 54.331 8.6571 54.4691 8.51386C54.6064 8.36614 54.7738 8.24949 54.9599 8.17174C55.1461 8.09399 55.3467 8.05692 55.5483 8.06303C55.7557 8.0595 55.9617 8.09758 56.1541 8.17502C56.3465 8.25245 56.5214 8.36767 56.6686 8.51386C56.8167 8.65162 56.9345 8.81874 57.0145 9.00456C57.0944 9.19038 57.1348 9.39083 57.133 9.59312C57.1376 9.78981 57.0982 9.98503 57.0179 10.1646C56.9375 10.3442 56.8182 10.5037 56.6686 10.6314C56.3599 10.9038 55.9599 11.0501 55.5483 11.0412C55.3502 11.0484 55.1526 11.0158 54.9673 10.9454C54.7819 10.875 54.6125 10.7682 54.4691 10.6314C54.329 10.4981 54.2189 10.3367 54.1459 10.1577C54.0729 9.97873 54.0387 9.78629 54.0455 9.59312ZM54.51 13.7462H56.6959V27.4077H54.51V13.7462Z" fill="#0794BC"/>
<path d="M67.2972 8.28162H69.4831V15.085H69.5924C70.0179 14.5519 70.5664 14.13 71.1908 13.8555C71.8574 13.5606 72.5794 13.4115 73.3083 13.4183C75.0734 13.4183 76.3985 13.983 77.2838 15.1124C78.1691 16.2417 78.6108 17.9904 78.609 20.3584C78.609 22.7464 78.0261 24.5589 76.8603 25.7957C75.6945 27.0325 74.0551 27.6518 71.9422 27.6536C71.0075 27.6641 70.0753 27.5539 69.1689 27.3258C68.5151 27.1769 67.8851 26.9378 67.2972 26.6154V8.28162ZM72.9258 15.331C72.1176 15.2949 71.3261 15.5686 70.7126 16.096C70.1027 16.6815 69.6756 17.4313 69.4831 18.2545V25.1372C69.8741 25.3561 70.2989 25.5085 70.7399 25.588C71.2436 25.6899 71.7562 25.7403 72.27 25.7383C72.8315 25.7603 73.3905 25.6536 73.9044 25.4262C74.4182 25.1989 74.8732 24.857 75.2346 24.4268C75.9723 23.5525 76.3412 22.1863 76.3412 20.3283C76.3442 19.6588 76.2801 18.9906 76.1499 18.3338C76.0445 17.7742 75.841 17.2377 75.5488 16.749C75.286 16.3239 74.9253 15.9679 74.4969 15.7107C74.0171 15.4445 73.4742 15.3132 72.9258 15.331Z" fill="#EFEFEF"/>
<path d="M80.6036 20.577C80.6036 18.2655 81.1173 16.494 82.1446 15.2627C83.172 14.0313 84.652 13.4166 86.5846 13.4184C87.4991 13.4012 88.4068 13.5772 89.2486 13.9348C89.983 14.256 90.6268 14.7534 91.123 15.3829C91.6365 16.0574 92.0083 16.8288 92.2159 17.6507C92.461 18.6103 92.5804 19.5976 92.5711 20.5879C92.5711 22.9013 92.0556 24.6727 91.0246 25.9023C89.9936 27.1318 88.5136 27.7466 86.5846 27.7466C85.6709 27.7681 84.763 27.5958 83.9206 27.2411C83.1868 26.9214 82.5445 26.4237 82.0517 25.793C81.5366 25.1195 81.1647 24.3477 80.9588 23.5252C80.711 22.5624 80.5916 21.5711 80.6036 20.577ZM82.8714 20.577C82.869 21.2473 82.9377 21.9159 83.0763 22.5716C83.1932 23.1595 83.4094 23.7231 83.7157 24.2383C84.0012 24.7069 84.3947 25.1003 84.8633 25.3859C85.3848 25.6899 85.9812 25.8413 86.5846 25.823C89.0637 25.8413 90.3033 24.0926 90.3033 20.577C90.3064 19.8977 90.2377 19.22 90.0984 18.5551C89.98 17.9668 89.7619 17.4032 89.4535 16.8884C89.1605 16.394 88.739 15.9881 88.2339 15.7139C87.7288 15.4397 87.1589 15.3074 86.5846 15.331C84.1091 15.311 82.8714 17.0596 82.8714 20.577Z" fill="#EFEFEF"/>
<path d="M94.5629 20.577C94.5629 18.2655 95.0775 16.494 96.1067 15.2627C97.1358 14.0313 98.6158 13.4166 100.547 13.4184C101.461 13.4012 102.369 13.5772 103.211 13.9348C103.945 14.2554 104.588 14.7529 105.082 15.3829C105.597 16.0567 105.969 16.8284 106.175 17.6507C106.422 18.61 106.541 19.5975 106.53 20.5879C106.53 22.9013 106.016 24.6727 104.987 25.9023C103.957 27.1318 102.477 27.7466 100.547 27.7466C99.6329 27.7681 98.725 27.5958 97.8827 27.2411C97.1485 26.9207 96.5054 26.4232 96.011 25.793C95.497 25.1188 95.1251 24.3473 94.9181 23.5252C94.6717 22.5621 94.5523 21.571 94.5629 20.577ZM96.8307 20.577C96.8283 21.2473 96.897 21.9159 97.0356 22.5716C97.1534 23.1596 97.3705 23.7233 97.6777 24.2383C97.9633 24.7069 98.3567 25.1003 98.8253 25.3859C99.3468 25.6899 99.9433 25.8413 100.547 25.823C103.024 25.8413 104.263 24.0926 104.263 20.577C104.266 19.8977 104.197 19.22 104.058 18.5551C103.94 17.967 103.723 17.4033 103.416 16.8884C103.123 16.394 102.701 15.9881 102.196 15.7139C101.691 15.4397 101.121 15.3074 100.547 15.331C98.0712 15.311 96.8325 17.0596 96.8307 20.577Z" fill="#EFEFEF"/>
<path d="M112.733 21.2601H111.476V27.4077H109.29V8.28162H111.476V19.9212L112.596 19.5387L116.831 13.7462H119.372L115.192 19.2382L114.072 20.1398L115.438 21.2327L120.001 27.4077H117.298L112.733 21.2601Z" fill="#EFEFEF"/>
<path d="M63.0841 0H61.0731V38.2878H63.0841V0Z" fill="#ED6D13"/>
</svg>
