<svg width="48" height="48" viewBox="0 0 48 48" fill="none" xmlns="http://www.w3.org/2000/svg">
<path d="M4 1H44C45.6569 1 47 2.34315 47 4V44C47 45.6569 45.6569 47 44 47H4C2.34315 47 1 45.6569 1 44V4C1 2.34315 2.34315 1 4 1Z" fill="#F43F5E" stroke="black" stroke-width="2" stroke-linecap="round" stroke-linejoin="round"/>
<path fill-rule="evenodd" clip-rule="evenodd" d="M28.2526 38.008C29.0043 38.3536 29.7763 38.6533 30.5643 38.9055C34.3458 40.0991 36.8356 39.5068 38.1718 38.1705C39.508 36.8366 40.1004 34.3445 38.9067 30.5653C38.6545 29.7755 38.354 29.0021 38.007 28.2492C36.6073 30.084 35.0842 31.8214 33.4483 33.4493C31.8213 35.0846 30.0847 36.6069 28.2504 38.0057L28.2526 38.008ZM23.999 35.5805C26.2594 34.0203 28.3687 32.2517 30.2993 30.298C32.2513 28.368 34.0183 26.2594 35.5773 24C34.0185 21.7397 32.2515 19.6304 30.2993 17.6998C28.3685 15.7477 26.2592 13.9806 23.999 12.4217C21.7396 13.9807 19.631 15.7477 17.701 17.6998C15.7473 19.6303 13.9788 21.7396 12.4185 24C13.9775 26.2594 15.7446 28.3679 17.6966 30.298C19.8412 32.4426 21.9635 34.1953 23.999 35.5805ZM9.99105 28.2514C9.83319 27.3328 12.8283 31.7255 14.552 33.4493C16.1782 35.0845 17.9142 36.6068 19.7476 38.0057C18.9955 38.3526 18.2227 38.6531 17.4338 38.9055C13.6545 40.0991 11.1625 39.5068 9.82625 38.1728C8.49004 36.8366 7.89988 34.3467 9.09356 30.5653C9.3274 29.8237 9.83319 28.9994 9.83319 28.9994L9.99105 28.2514ZM7.17164 24.0593C6.15612 25.8476 5.38112 27.541 4.84886 29.2224C3.41243 33.7722 3.66854 38.3086 6.67947 41.3218C9.69263 44.3349 14.2291 44.591 18.7789 43.1524C20.5955 42.5621 22.3451 41.7828 23.999 40.8274C25.7873 41.8429 27.54 42.6201 29.2214 43.1524C33.7734 44.5888 38.3076 44.3327 41.3208 41.3218C44.334 38.3086 44.5901 33.7722 43.1514 29.2224C42.5612 27.405 41.7819 25.6547 40.8264 24C41.8419 22.2117 42.6192 20.459 43.1514 18.7776C44.5901 14.2278 44.334 9.69138 41.3208 6.67822C38.3099 3.66506 33.7712 3.40895 29.2214 4.84761C27.404 5.43774 25.6537 6.21701 23.999 7.17262C22.3444 6.21701 20.594 5.43774 18.7767 4.84761C14.2268 3.40895 9.69041 3.66506 6.67725 6.67822C3.66408 9.69138 3.4102 14.2278 4.84663 18.7776C5.43676 20.595 6.21604 22.3454 7.17164 24V24.0593ZM9.99551 19.7486C12.0574 17.6998 13.1094 15.7235 14.8331 13.9998C16.4593 12.3646 17.9164 11.3932 19.7499 9.99426C18.9977 9.64741 18.2249 9.34695 17.436 9.09454C13.6567 7.90086 11.1647 8.49324 9.82848 9.82723C8.49227 11.1634 7.90211 13.6533 9.09579 17.4347C9.32963 18.1763 9.83319 20.6663 9.99551 19.7508V19.7486ZM28.2526 9.99426C29.0048 9.6474 29.7776 9.34693 30.5665 9.09454C34.348 7.90086 36.8378 8.49324 38.174 9.82723C39.5102 11.1634 40.1026 13.6533 38.9089 17.4347C38.6729 18.1763 38.3745 18.9491 38.0092 19.7508C36.6098 17.9158 35.0866 16.1784 33.4505 14.5507C31.8235 12.9155 30.0869 11.3931 28.2526 9.99426ZM27.3396 24C27.3394 24.4387 27.2529 24.873 27.0848 25.2783C26.9168 25.6835 26.6707 26.0517 26.3603 26.3618C26.05 26.6719 25.6817 26.9178 25.2764 27.0856C24.871 27.2533 24.4366 27.3396 23.9979 27.3394C23.5592 27.3393 23.1249 27.2527 22.7196 27.0847C22.3144 26.9167 21.9462 26.6705 21.6361 26.3602C21.326 26.0499 21.0801 25.6816 20.9123 25.2762C20.7446 24.8709 20.6583 24.4365 20.6585 23.9978C20.6585 23.1118 21.0104 22.2621 21.6369 21.6357C22.2634 21.0092 23.1131 20.6572 23.999 20.6572C24.885 20.6572 25.7347 21.0092 26.3611 21.6357C26.9876 22.2621 27.3396 23.1118 27.3396 23.9978V24Z" fill="black"/>
</svg>
