<svg width="56" height="64" viewBox="0 0 56 64" fill="none" xmlns="http://www.w3.org/2000/svg">
<g filter="url(#filter0_d_5383_2194)">
<path d="M32.9214 8.00328H32.2015C29.05 8.00328 25.9293 8.62402 23.0177 9.83005C20.1061 11.0361 17.4605 12.8038 15.2321 15.0322C10.7315 19.5328 8.20313 25.6369 8.20312 32.0016C8.20313 38.3664 10.7315 44.4705 15.2321 48.971C17.4605 51.1995 20.1061 52.9672 23.0177 54.1732C25.9293 55.3793 29.05 56 32.2015 56C39.401 56 43.4807 53.6002 47.8004 50.0004C34.6013 53.6002 22.6021 44.0008 22.6021 32.0016C22.6021 20.0025 34.6013 10.4031 47.8004 14.0029C45.8496 12.0558 43.527 10.5213 40.9708 9.49054C38.4146 8.45982 35.6772 7.95403 32.9214 8.00328Z" fill="#EF4444"/>
</g>
<defs>
<filter id="filter0_d_5383_2194" x="0.203125" y="0" width="55.5977" height="64" filterUnits="userSpaceOnUse" color-interpolation-filters="sRGB">
<feFlood flood-opacity="0" result="BackgroundImageFix"/>
<feColorMatrix in="SourceAlpha" type="matrix" values="0 0 0 0 0 0 0 0 0 0 0 0 0 0 0 0 0 0 127 0" result="hardAlpha"/>
<feOffset/>
<feGaussianBlur stdDeviation="4"/>
<feComposite in2="hardAlpha" operator="out"/>
<feColorMatrix type="matrix" values="0 0 0 0 0.937255 0 0 0 0 0.266667 0 0 0 0 0.266667 0 0 0 1 0"/>
<feBlend mode="normal" in2="BackgroundImageFix" result="effect1_dropShadow_5383_2194"/>
<feBlend mode="normal" in="SourceGraphic" in2="effect1_dropShadow_5383_2194" result="shape"/>
</filter>
</defs>
</svg>
