<svg width="48" height="48" viewBox="0 0 48 48" fill="none" xmlns="http://www.w3.org/2000/svg">
<path d="M4 1H44C45.6569 1 47 2.34315 47 4V44C47 45.6569 45.6569 47 44 47H4C2.34315 47 1 45.6569 1 44V4C1 2.34315 2.34315 1 4 1Z" fill="#EF4444" stroke="black" stroke-width="2" stroke-linecap="round" stroke-linejoin="round"/>
<path d="M28.5986 4.00273H27.9986C25.3724 4.00273 22.7718 4.52001 20.3455 5.52504C17.9191 6.53006 15.7145 8.00315 13.8575 9.8602C10.107 13.6107 8 18.6974 8 24.0014C8 29.3053 10.107 34.3921 13.8575 38.1425C15.7145 39.9996 17.9191 41.4727 20.3455 42.4777C22.7718 43.4827 25.3724 44 27.9986 44C33.9982 44 37.398 42.0001 40.9977 39.0003C29.9985 42.0001 19.9992 34.0007 19.9992 24.0014C19.9992 14.002 29.9985 6.0026 40.9977 9.00239C39.3721 7.37986 37.4366 6.10105 35.3064 5.24212C33.1763 4.38318 30.895 3.96169 28.5986 4.00273Z" fill="black"/>
</svg>
