<svg width="52" height="64" viewBox="0 0 52 64" fill="none" xmlns="http://www.w3.org/2000/svg">
<g filter="url(#filter0_d_5383_2192)">
<path d="M8 56V50.9474H20.6316V45.8947C17.1368 45.8947 14.1575 44.6627 11.6935 42.1987C9.22948 39.7347 7.99832 36.7562 8 33.2632C8 30.8632 8.61053 28.6526 9.83158 26.6316C11.0526 24.6105 12.7368 23.0737 14.8842 22.0211C14.7158 22.9474 14.7478 23.8526 14.9802 24.7368C15.2126 25.6211 15.5806 26.4632 16.0842 27.2632C15.1158 27.9368 14.368 28.8 13.8408 29.8526C13.3137 30.9053 13.0509 32.0421 13.0526 33.2632C13.0526 35.3684 13.7895 37.1579 15.2632 38.6316C16.7368 40.1053 18.5263 40.8421 20.6316 40.8421H40.8421V45.8947H28.2105V50.9474H43.3684V56H8ZM30.7368 33.5158L29.9789 31.1158L27.5789 32L26.3158 28.6526C27.1579 27.9789 27.8105 27.168 28.2737 26.2198C28.7368 25.2716 28.9684 24.2509 28.9684 23.1579C28.9684 21.1789 28.2737 19.5048 26.8842 18.1356C25.4947 16.7663 23.7895 16.0825 21.7684 16.0842L20.6316 12.9263L23.0316 12.0421L22.1474 9.76842L26.9474 8L27.7053 10.4L30.1053 9.51579L37.0526 28.4632L34.6526 29.3474L35.5368 31.7474L30.7368 33.5158ZM21.8947 27.7053C20.6316 27.7053 19.5579 27.2632 18.6737 26.3789C17.7895 25.4947 17.3474 24.4211 17.3474 23.1579C17.3474 21.8947 17.7895 20.8211 18.6737 19.9368C19.5579 19.0526 20.6316 18.6105 21.8947 18.6105C23.1579 18.6105 24.2316 19.0526 25.1158 19.9368C26 20.8211 26.4421 21.8947 26.4421 23.1579C26.4421 24.4211 26 25.4947 25.1158 26.3789C24.2316 27.2632 23.1579 27.7053 21.8947 27.7053Z" fill="#F97316"/>
</g>
<defs>
<filter id="filter0_d_5383_2192" x="0" y="0" width="51.3691" height="64" filterUnits="userSpaceOnUse" color-interpolation-filters="sRGB">
<feFlood flood-opacity="0" result="BackgroundImageFix"/>
<feColorMatrix in="SourceAlpha" type="matrix" values="0 0 0 0 0 0 0 0 0 0 0 0 0 0 0 0 0 0 127 0" result="hardAlpha"/>
<feOffset/>
<feGaussianBlur stdDeviation="4"/>
<feComposite in2="hardAlpha" operator="out"/>
<feColorMatrix type="matrix" values="0 0 0 0 0.976471 0 0 0 0 0.45098 0 0 0 0 0.0862745 0 0 0 1 0"/>
<feBlend mode="normal" in2="BackgroundImageFix" result="effect1_dropShadow_5383_2192"/>
<feBlend mode="normal" in="SourceGraphic" in2="effect1_dropShadow_5383_2192" result="shape"/>
</filter>
</defs>
</svg>
