<?xml version="1.0" encoding="UTF-8"?>
<svg id="katman_2" data-name="katman 2" xmlns="http://www.w3.org/2000/svg" xmlns:xlink="http://www.w3.org/1999/xlink" viewBox="0 0 44.58 14.11">
  <defs>
    <style>
      .cls-1 {
        fill: url(#Adsız_degrade_5);
        fill-rule: evenodd;
      }

      .cls-1, .cls-2, .cls-3, .cls-4, .cls-5 {
        stroke-width: 0px;
      }

      .cls-2 {
        fill: none;
      }

      .cls-3 {
        fill: #fff;
      }

      .cls-4 {
        fill: #3d2770;
      }

      .cls-6 {
        clip-path: url(#clippath);
      }

      .cls-5 {
        fill: #e8a834;
      }
    </style>
    <clipPath id="clippath">
      <path class="cls-2" d="m42.16,0H2.42C1.08,0,0,1.08,0,2.4v9.31c0,1.33,1.08,2.4,2.42,2.4h39.74c1.34,0,2.42-1.08,2.42-2.4V2.4c0-1.33-1.08-2.4-2.42-2.4Z"/>
    </clipPath>
    <linearGradient id="Adsız_degrade_5" data-name="Adsız degrade 5" x1="32.76" y1="1811.65" x2="43.15" y2="1824.12" gradientTransform="translate(0 -1807)" gradientUnits="userSpaceOnUse">
      <stop offset="0" stop-color="#3d2770"/>
      <stop offset=".11" stop-color="#3b4086"/>
      <stop offset=".29" stop-color="#3965a6"/>
      <stop offset=".47" stop-color="#3882bf"/>
      <stop offset=".65" stop-color="#3697d1"/>
      <stop offset=".83" stop-color="#36a3dc"/>
      <stop offset="1" stop-color="#36a8e0"/>
    </linearGradient>
  </defs>
  <g id="katman_2-2" data-name="katman 2">
    <g class="cls-6">
      <path class="cls-4" d="m42.16.01H2.42C1.08.01,0,1.09,0,2.41v9.31c0,1.33,1.08,2.4,2.42,2.4h39.74c1.34,0,2.42-1.08,2.42-2.4V2.41C44.58,1.08,43.5.01,42.16.01Z"/>
      <path class="cls-1" d="m44.89,2.59l.02-5.12-7.83,7.38-4.51-.04-1.89,2.21-7.71,7.66,2.07,1.61,20.56-1.22-.7-12.49h0Z"/>
      <path class="cls-5" d="m21.2,11.83c-.18,0-.32-.11-.32-.24V2.52c0-.13.14-.24.32-.24s.32.11.32.24v9.07c0,.13-.14.24-.32.24h0Z"/>
      <path class="cls-3" d="m3.98,8.52v-3.06h-.62v-.61h.62v-1.18h.75v1.18h.92v.61h-.92v2.91c0,.28.14.46.49.46.11,0,.25-.02.42-.08v.59c-.16.12-.41.16-.62.16-.62,0-1.03-.3-1.03-.99h0Z"/>
      <path class="cls-3" d="m6.25,7.15c0-1.58,1.15-2.39,2.27-2.39.87,0,1.52.47,1.74.96h.03v-.87h.75v4.61h-.75v-.87h-.03c-.22.49-.87.96-1.74.96-1.12,0-2.27-.82-2.27-2.39h0Zm2.4,1.71c.84,0,1.67-.58,1.67-1.71s-.83-1.71-1.67-1.71-1.65.57-1.65,1.71.83,1.71,1.65,1.71Z"/>
      <path class="cls-3" d="m15.16,6.8c0-.84-.38-1.36-1.12-1.36s-1.2.51-1.2,1.36v2.66h-.75v-4.61h.75v.72c.22-.43.68-.81,1.42-.81.65,0,1.19.29,1.46.93.22-.47.72-.93,1.58-.93.96,0,1.68.61,1.68,1.98v2.71h-.75v-2.66c0-.84-.38-1.36-1.12-1.36s-1.2.51-1.2,1.36v2.66h-.75v-2.66h0Z"/>
      <path class="cls-3" d="m23.4,7.15c0-1.54,1.2-2.39,2.41-2.39s2.41.85,2.41,2.39-1.2,2.39-2.41,2.39-2.41-.85-2.41-2.39Zm2.41,1.71c.86,0,1.66-.62,1.66-1.71s-.8-1.71-1.66-1.71-1.66.62-1.66,1.71.8,1.71,1.66,1.71Z"/>
      <path class="cls-3" d="m29.05,3.17h.75v4.13l2.23-2.44h.92l-1.95,2.11,2.17,2.5h-.87l-1.77-1.99-.72.78v1.21h-.75V3.18h0Z"/>
      <path class="cls-3" d="m37.83,9.46h-.75v-.75c-.24.44-.75.84-1.55.84-.97,0-1.81-.6-1.81-1.98v-2.71h.75v2.6c0,.93.55,1.41,1.29,1.41s1.32-.48,1.32-1.41v-2.6h.75v4.61h0Z"/>
      <path class="cls-3" d="m38.88,3.17h.75v6.29h-.75V3.17Z"/>
    </g>
  </g>
</svg>