<svg width="48" height="48" viewBox="0 0 48 48" fill="none" xmlns="http://www.w3.org/2000/svg">
<path d="M4 1H44C45.6569 1 47 2.34315 47 4V44C47 45.6569 45.6569 47 44 47H4C2.34315 47 1 45.6569 1 44V4C1 2.34315 2.34315 1 4 1Z" fill="#22C55E" stroke="black" stroke-width="2" stroke-linecap="round" stroke-linejoin="round"/>
<path d="M23.5585 4.00001C22.8967 3.99852 22.2518 4.20854 21.7179 4.59944C21.1839 4.99034 20.7889 5.54164 20.5904 6.17291C20.3919 6.80418 20.4003 7.48236 20.6144 8.1085C20.8285 8.73464 21.2372 9.27597 21.7807 9.65348V12.1424C20.1806 12.3736 18.6873 12.8891 17.3361 13.6714L15.3627 10.8446C15.7005 9.92016 15.6116 8.85346 15.0072 8.00011C14.3849 7.12898 13.4249 6.66674 12.4471 6.66674C11.8249 6.66674 11.2026 6.84452 10.6693 7.23564C9.26479 8.21345 8.90923 10.1513 9.90481 11.5558C10.5093 12.4269 11.4693 12.8891 12.4471 12.8891L14.5449 15.8759C13.7805 16.6403 13.176 17.4937 12.6604 18.4359C12.3049 18.2937 11.9315 18.2226 11.5582 18.2226C10.7582 18.2226 9.95815 18.5248 9.33591 19.1115C8.14477 20.356 8.14477 22.3116 9.33591 23.5561C9.85148 24.0361 10.4737 24.3027 11.1137 24.445C11.1137 25.405 11.2382 26.3295 11.4337 27.2184L9.10479 27.8406C8.55367 27.3784 7.84254 27.1117 7.11363 27.1117C6.84696 27.1117 6.5625 27.1117 6.29583 27.2184C5.49912 27.4355 4.82122 27.9601 4.41117 28.6768C4.00112 29.3936 3.89247 30.2438 4.10911 31.0407C4.48245 32.4452 5.78026 33.3341 7.11363 33.3341C7.3803 33.3341 7.64698 33.3341 7.93143 33.2274C8.94479 32.943 9.70925 32.1963 10.0293 31.2718L12.7138 30.5429C13.5138 31.9474 14.5805 33.1919 15.825 34.223L13.8694 37.7786C12.8916 37.9209 12.0026 38.472 11.4871 39.4142C11.2933 39.7738 11.1722 40.168 11.1308 40.5743C11.0894 40.9806 11.1284 41.3911 11.2456 41.7824C11.3628 42.1736 11.5559 42.538 11.8139 42.8546C12.0719 43.1712 12.3898 43.4339 12.7493 43.6277C13.1089 43.8214 13.5031 43.9425 13.9094 43.9839C14.3157 44.0254 14.7262 43.9864 15.1175 43.8692C15.5087 43.752 15.8731 43.5588 16.1897 43.3008C16.5063 43.0428 16.769 42.725 16.9628 42.3654C17.4606 41.4409 17.4428 40.3743 16.9983 39.5031L18.9006 36.0008C20.3406 36.5697 21.9051 36.8897 23.5585 36.8897H23.8785C23.6474 37.352 23.5585 37.8853 23.5585 38.4542C23.7007 40.0898 25.0519 41.3343 26.6697 41.3343H26.9008C28.6253 41.1921 29.9053 39.6987 29.7809 37.992C29.7098 37.1031 29.2653 36.3208 28.6253 35.8053C29.4609 35.4319 30.2609 34.9519 31.0076 34.4008L35.1677 38.5609C34.9899 39.5565 35.2743 40.5698 36.0032 41.3343C36.6255 41.921 37.4255 42.2232 38.2255 42.2232C39.0255 42.2232 39.8256 41.921 40.4478 41.3343C41.6389 40.0898 41.6389 38.1342 40.4478 36.8897C39.8256 36.303 39.0255 36.0008 38.2255 36.0008C38.0477 36.0008 37.87 36.0008 37.6744 36.0541L33.5143 31.894C34.3854 30.7385 35.061 29.4229 35.4877 28.0006H37.4611C37.8386 28.5441 38.3799 28.9527 39.006 29.1669C39.6322 29.381 40.3104 29.3894 40.9416 29.1909C41.5729 28.9924 42.1242 28.5973 42.5151 28.0634C42.906 27.5294 43.116 26.8845 43.1145 26.2228C43.116 25.561 42.906 24.9161 42.5151 24.3822C42.1242 23.8482 41.5729 23.4532 40.9416 23.2547C40.3104 23.0562 39.6322 23.0646 39.006 23.2787C38.3799 23.4928 37.8386 23.9015 37.4611 24.445H36.0032C36.0032 21.6538 35.1143 19.1115 33.5143 16.9959L35.8966 14.6136C36.0921 14.6669 36.2699 14.6669 36.4477 14.6669C37.2477 14.6669 38.0477 14.3647 38.67 13.778C39.8611 12.5513 39.8611 10.578 38.67 9.33348C38.0477 8.74679 37.2477 8.44456 36.4477 8.44456C35.6477 8.44456 34.8477 8.74679 34.2254 9.33348C33.4965 10.0979 33.2121 11.1113 33.3898 12.1069L31.0076 14.4892C29.372 13.2625 27.4519 12.4447 25.3363 12.1424V9.65348C25.8798 9.27597 26.2884 8.73464 26.5026 8.1085C26.7167 7.48236 26.7251 6.80418 26.5266 6.17291C26.3281 5.54164 25.933 4.99034 25.3991 4.59944C24.8651 4.20854 24.2202 3.99852 23.5585 4.00001ZM23.5585 33.3341C18.6517 33.3341 14.6694 29.3518 14.6694 24.445C14.6694 19.5382 18.6517 15.5559 23.5585 15.5559C28.4653 15.5559 32.4476 19.5382 32.4476 24.445C32.4476 29.3518 28.4653 33.3341 23.5585 33.3341ZM20.8918 19.1115C19.4162 19.1115 18.225 20.3026 18.225 21.7782C18.225 23.2538 19.4162 24.445 20.8918 24.445C22.3673 24.445 23.5585 23.2538 23.5585 21.7782C23.5585 20.3026 22.3673 19.1115 20.8918 19.1115ZM27.1141 26.2228C26.1363 26.2228 25.3363 27.0228 25.3363 28.0006C25.3363 28.9784 26.1363 29.7784 27.1141 29.7784C28.0919 29.7784 28.892 28.9784 28.892 28.0006C28.892 27.0228 28.0919 26.2228 27.1141 26.2228Z" fill="black"/>
</svg>
