<svg width="48" height="48" viewBox="0 0 48 48" fill="none" xmlns="http://www.w3.org/2000/svg">
<path d="M4 1H44C45.6569 1 47 2.34315 47 4V44C47 45.6569 45.6569 47 44 47H4C2.34315 47 1 45.6569 1 44V4C1 2.34315 2.34315 1 4 1Z" fill="#FBBF24" stroke="black" stroke-width="2" stroke-linecap="round" stroke-linejoin="round"/>
<path d="M39.1872 34.8829L28.8572 20.6786V6.85714H31.7143V4H14.5715V6.85714H17.4286V20.6786L7.09861 34.8829C6.47552 35.7392 6.10149 36.7513 6.01791 37.807C5.93433 38.8627 6.14446 39.921 6.62504 40.8648C7.10563 41.8085 7.83794 42.6009 8.74094 43.1542C9.64394 43.7075 10.6824 44.0003 11.7415 44H34.5429C35.6019 44.0003 36.6404 43.7075 37.5434 43.1542C38.4464 42.6009 39.1787 41.8085 39.6593 40.8648C40.1399 39.921 40.35 38.8627 40.2665 37.807C40.1829 36.7513 39.8103 35.7392 39.1872 34.8829ZM20.2858 21.6071V6.85714H26V21.6071L29.8186 26.8571H16.4672L20.2858 21.6071Z" fill="black"/>
</svg>
