<svg width="48" height="48" viewBox="0 0 48 48" fill="none" xmlns="http://www.w3.org/2000/svg">
<path d="M4 1H44C45.6569 1 47 2.34315 47 4V44C47 45.6569 45.6569 47 44 47H4C2.34315 47 1 45.6569 1 44V4C1 2.34315 2.34315 1 4 1Z" fill="#8B5CF6" stroke="black" stroke-width="2" stroke-linecap="round" stroke-linejoin="round"/>
<path d="M16.2244 22.332L15.1133 25.7765H17.3355L16.2244 22.332Z" fill="black"/>
<path d="M37.6658 7.33203H19.888V12.8876H24.3325V15.1098H9.88802C7.99913 15.1098 6.55469 16.5543 6.55469 18.4431V30.6654C6.55469 32.5543 7.99913 33.9987 9.88802 33.9987H10.9991V39.6654L17.9991 33.9987H25.4436V26.2209H37.6658C39.5547 26.2209 40.9991 24.7765 40.9991 22.8876V10.6654C40.9991 8.77648 39.5547 7.33203 37.6658 7.33203ZM18.5547 29.4431L17.9991 27.6654H14.5547L13.888 29.4431H11.2214L14.888 19.5543H17.5547L21.2214 29.4431H18.5547ZM35.4436 20.6654V22.8876C33.9991 22.8876 32.4436 22.4431 31.1102 21.7765C29.7769 22.4431 28.2214 22.7765 26.6658 22.8876L26.5547 20.6654C27.3325 20.6654 28.1102 20.5543 28.888 20.332C27.888 19.332 27.2214 18.1098 26.888 16.7765H29.2214C29.5547 17.7765 30.2214 18.5543 30.9991 19.2209C32.2214 18.2209 32.9991 16.7765 33.1102 15.1098H26.4436V12.8876H29.7769V10.6654H31.9991V12.8876H35.6658L35.7769 13.9987C35.888 16.332 34.9991 18.6654 33.3325 20.332C34.1102 20.5543 34.7769 20.6654 35.4436 20.6654Z" fill="black"/>
</svg>
