<svg width="64" height="62" viewBox="0 0 64 62" fill="none" xmlns="http://www.w3.org/2000/svg">
<path d="M21.4703 28.9023L19.9219 33.7023H23.0186L21.4703 28.9023Z" fill="#8b5cf6"/>
<g filter="url(#filter0_d_5383_2186)">
<path d="M51.3548 8H26.5806V15.7419H32.7742V18.8387H12.6452C10.0129 18.8387 8 20.8516 8 23.4839V40.5161C8 43.1484 10.0129 45.1613 12.6452 45.1613H14.1935V53.0581L23.9484 45.1613H34.3226V34.3226H51.3548C53.9871 34.3226 56 32.3097 56 29.6774V12.6452C56 10.0129 53.9871 8 51.3548 8ZM24.7226 38.8129L23.9484 36.3355H19.1484L18.2194 38.8129H14.5032L19.6129 25.0323H23.329L28.4387 38.8129H24.7226ZM48.2581 26.5806V29.6774C46.2452 29.6774 44.0774 29.0581 42.2194 28.129C40.3613 29.0581 38.1935 29.5226 36.0258 29.6774L35.871 26.5806C36.9548 26.5806 38.0387 26.4258 39.1226 26.1161C37.729 24.7226 36.8 23.0194 36.3355 21.1613H39.5871C40.0516 22.5548 40.9806 23.6387 42.0645 24.5677C43.7677 23.1742 44.8516 21.1613 45.0065 18.8387H35.7161V15.7419H40.3613V12.6452H43.4581V15.7419H48.5677L48.7226 17.2903C48.8774 20.5419 47.6387 23.7935 45.3161 26.1161C46.4 26.4258 47.329 26.5806 48.2581 26.5806Z" fill="#8b5cf6"/>
</g>
<defs>
<filter id="filter0_d_5383_2186" x="0" y="0" width="64" height="61.0586" filterUnits="userSpaceOnUse" color-interpolation-filters="sRGB">
<feFlood flood-opacity="0" result="BackgroundImageFix"/>
<feColorMatrix in="SourceAlpha" type="matrix" values="0 0 0 0 0 0 0 0 0 0 0 0 0 0 0 0 0 0 127 0" result="hardAlpha"/>
<feOffset/>
<feGaussianBlur stdDeviation="4"/>
<feComposite in2="hardAlpha" operator="out"/>
<feColorMatrix type="matrix" values="0 0 0 0 0.545098 0 0 0 0 0.360784 0 0 0 0 0.964706 0 0 0 1 0"/>
<feBlend mode="normal" in2="BackgroundImageFix" result="effect1_dropShadow_5383_2186"/>
<feBlend mode="normal" in="SourceGraphic" in2="effect1_dropShadow_5383_2186" result="shape"/>
</filter>
</defs>
</svg>
