<svg width="48" height="48" viewBox="0 0 48 48" fill="none" xmlns="http://www.w3.org/2000/svg">
<path d="M4 1H44C45.6569 1 47 2.34315 47 4V44C47 45.6569 45.6569 47 44 47H4C2.34315 47 1 45.6569 1 44V4C1 2.34315 2.34315 1 4 1Z" fill="#84CC16" stroke="black" stroke-width="2" stroke-linecap="round" stroke-linejoin="round"/>
<path d="M13.688 21.2466C13.8573 21.2466 14.0461 21.2726 14.2544 21.3247C14.4627 21.3768 14.6711 21.4484 14.8794 21.5396C15.0877 21.6307 15.2961 21.7153 15.5044 21.7935C15.7127 21.8716 15.9015 21.9497 16.0708 22.0278L15.7583 22.0669C15.6541 22.0799 15.5435 22.0864 15.4263 22.0864C15.2049 22.0864 15.0031 22.0539 14.8208 21.9888C14.6385 21.9237 14.4693 21.839 14.313 21.7349C14.1568 21.6307 14.0005 21.5526 13.8443 21.5005C13.688 21.4484 13.5448 21.4094 13.4146 21.3833C13.2844 21.3833 13.1672 21.4094 13.063 21.4614C12.9588 21.5135 12.8547 21.5721 12.7505 21.6372C12.7505 21.5851 12.7049 21.5591 12.6138 21.5591C12.7049 21.4679 12.8742 21.3963 13.1216 21.3443C13.369 21.2922 13.5578 21.2596 13.688 21.2466ZM16.3247 22.1255C16.8586 22.1255 17.3469 22.2166 17.7896 22.3989C17.6073 22.464 17.425 22.5161 17.2427 22.5552C17.0604 22.5943 16.8716 22.6203 16.6763 22.6333C16.4159 22.6333 16.1815 22.6073 15.9732 22.5552C16.0383 22.451 16.1034 22.3859 16.1685 22.3599C16.2336 22.3338 16.2857 22.2557 16.3247 22.1255ZM24.0005 4.0005C25.8364 4.0005 27.6008 4.24139 29.2935 4.72316C30.9862 5.20493 32.5747 5.8755 34.0591 6.73488C35.5435 7.59425 36.8976 8.64243 38.1216 9.87941C39.3456 11.1164 40.3872 12.464 41.2466 13.9224C42.106 15.3807 42.7831 16.9693 43.2778 18.688C43.7726 20.4068 44.0135 22.1776 44.0005 24.0005C44.0005 25.8364 43.7596 27.6008 43.2778 29.2935C42.7961 30.9862 42.1255 32.5747 41.2661 34.0591C40.4068 35.5435 39.3586 36.8976 38.1216 38.1216C36.8846 39.3456 35.537 40.3872 34.0786 41.2466C32.6203 42.106 31.0318 42.7831 29.313 43.2778C27.5943 43.7726 25.8234 44.0135 24.0005 44.0005C22.1646 44.0005 20.4002 43.7596 18.7075 43.2778C17.0148 42.7961 15.4263 42.1255 13.9419 41.2661C12.4575 40.4068 11.1034 39.3586 9.87941 38.1216C8.65545 36.8846 7.61378 35.537 6.75441 34.0786C5.89503 32.6203 5.21795 31.0318 4.72316 29.313C4.22837 27.5943 3.98748 25.8234 4.0005 24.0005C4.0005 22.1646 4.24139 20.4002 4.72316 18.7075C5.20493 17.0148 5.8755 15.4263 6.73488 13.9419C7.59425 12.4575 8.64243 11.1034 9.87941 9.87941C11.1164 8.65545 12.464 7.61378 13.9224 6.75441C15.3807 5.89503 16.9693 5.21795 18.688 4.72316C20.4068 4.22837 22.1776 3.98748 24.0005 4.0005ZM38.8833 14.8403C38.701 14.5539 38.5187 14.2804 38.3364 14.02C38.1541 13.7596 37.9653 13.4927 37.77 13.2193C37.744 13.3364 37.7114 13.4211 37.6724 13.4732C37.6333 13.5252 37.6073 13.6424 37.5943 13.8247C37.5943 13.9419 37.6398 14.0526 37.731 14.1568C37.8221 14.2609 37.9393 14.3651 38.0825 14.4693C38.2258 14.5734 38.369 14.6515 38.5122 14.7036C38.6554 14.7557 38.7791 14.8013 38.8833 14.8403ZM37.5357 12.9263C37.5357 13.0304 37.5161 13.1021 37.4771 13.1411H37.5943C37.6463 13.1411 37.6854 13.1476 37.7114 13.1607L37.5357 12.9263ZM24.0005 41.5005C25.4849 41.5005 26.9367 41.3117 28.356 40.9341C29.7752 40.5565 31.1164 40.0226 32.3794 39.3325C33.6424 38.6424 34.8143 37.7961 35.895 36.7935C36.9758 35.7909 37.9198 34.6711 38.7271 33.4341C38.5578 33.0435 38.395 32.6463 38.2388 32.2427C38.0825 31.839 38.0044 31.4224 38.0044 30.9927C38.0044 30.5239 38.0239 30.1463 38.063 29.8599C38.1021 29.5734 38.1476 29.3195 38.1997 29.0982C38.2518 28.8768 38.2778 28.688 38.2778 28.5318C38.2778 28.3755 38.2583 28.1737 38.2193 27.9263C38.1802 27.6789 38.0695 27.412 37.8872 27.1255C37.7049 26.839 37.464 26.4354 37.1646 25.9146C37.1776 25.8234 37.1971 25.6997 37.2232 25.5435C37.2492 25.3872 37.2752 25.2245 37.3013 25.0552C37.3273 24.8859 37.3338 24.7297 37.3208 24.5864C37.3078 24.4432 37.2752 24.3195 37.2232 24.2153C36.8846 24.1763 36.5331 24.1047 36.1685 24.0005C35.8039 23.8963 35.4784 23.7401 35.1919 23.5318L35.3091 23.4341C35.1398 23.4732 34.9706 23.5252 34.8013 23.5903C34.632 23.6554 34.4693 23.7271 34.313 23.8052C34.1568 23.8833 33.9875 23.9354 33.8052 23.9614C33.6229 23.9875 33.4471 24.0135 33.2778 24.0396L32.9653 24.0005L33.0239 23.8638C32.8416 23.9159 32.6463 23.981 32.438 24.0591C32.2297 24.1372 32.0278 24.1763 31.8325 24.1763C31.7023 24.1763 31.5135 24.1307 31.2661 24.0396C31.0187 23.9484 30.7713 23.8377 30.5239 23.7075C30.2765 23.5773 30.0552 23.4341 29.8599 23.2778C29.6646 23.1216 29.5669 22.9719 29.5669 22.8286L29.606 22.77C29.5409 22.6919 29.4562 22.6203 29.3521 22.5552C29.2479 22.4901 29.1502 22.425 29.0591 22.3599C28.9679 22.2948 28.8833 22.2232 28.8052 22.145C28.7271 22.0669 28.6945 21.9758 28.7075 21.8716L28.9224 21.6958L28.4732 21.6372L28.3169 21.0513C28.3429 21.1164 28.4015 21.1424 28.4927 21.1294C28.5838 21.1164 28.6554 21.0903 28.7075 21.0513L28.0044 20.6802L28.4927 19.4302C28.3104 18.7531 28.2648 18.2323 28.356 17.8677C28.4471 17.5031 28.6229 17.2036 28.8833 16.9693C29.1437 16.7349 29.4302 16.5005 29.7427 16.2661C30.0552 16.0318 30.3742 15.7127 30.6997 15.3091L30.6411 15.0747L31.9302 13.5122L32.2232 13.4732C32.5877 13.4732 32.9979 13.4601 33.4536 13.4341C33.9094 13.4081 34.3716 13.3625 34.8403 13.2974C35.3091 13.2323 35.7713 13.1672 36.2271 13.1021C36.6828 13.037 37.0995 12.9523 37.4771 12.8482C37.0604 12.3534 36.6242 11.8846 36.1685 11.4419C35.7127 10.9992 35.2245 10.576 34.7036 10.1724C34.5604 10.2245 34.3846 10.2961 34.1763 10.3872C33.9679 10.4784 33.7596 10.5956 33.5513 10.7388C33.3429 10.882 33.1802 11.0383 33.063 11.2075C32.9458 11.3768 32.8742 11.5526 32.8482 11.7349L32.9653 12.106C32.731 12.4836 32.4706 12.7179 32.1841 12.8091C31.8976 12.9002 31.6047 12.9523 31.3052 12.9653C31.0057 12.9784 30.6932 12.9784 30.3677 12.9653C30.0422 12.9523 29.7297 13.0109 29.4302 13.1411L29.1177 12.4771L29.4107 11.3443L29.0786 10.856L32.4575 9.80128C32.3143 9.4367 32.0799 9.16326 31.7544 8.98097C31.4289 8.79868 31.0708 8.70753 30.6802 8.70753V8.51222L31.7739 8.33644C30.563 7.73748 29.3065 7.28175 28.0044 6.96925C26.7023 6.65675 25.3677 6.5005 24.0005 6.5005C22.8677 6.5005 21.7479 6.61118 20.6411 6.83253C19.5344 7.05389 18.4666 7.3729 17.438 7.78956C16.4094 8.20623 15.4133 8.72706 14.4497 9.35206C13.4862 9.97706 12.6073 10.6802 11.813 11.4614C12.1515 11.4614 12.412 11.5461 12.5943 11.7153C12.7765 11.8846 12.9458 12.0734 13.1021 12.2818C13.2583 12.4901 13.4211 12.6789 13.5903 12.8482C13.7596 13.0174 13.9875 13.1086 14.2739 13.1216L14.5864 12.8872L14.5474 12.4575L15.1919 11.5396L14.6841 10.0943C14.7492 10.0552 14.8469 9.99008 14.9771 9.89894C15.1073 9.80779 15.2179 9.76222 15.3091 9.76222C15.6997 9.76222 15.9992 9.78175 16.2075 9.82081C16.4159 9.85988 16.5982 9.93149 16.7544 10.0357C16.9107 10.1398 17.0474 10.2896 17.1646 10.4849C17.2818 10.6802 17.464 10.9276 17.7114 11.2271L18.4146 10.6802C18.5448 10.7323 18.7531 10.8169 19.0396 10.9341C19.326 11.0513 19.619 11.1945 19.9185 11.3638C20.2179 11.5331 20.4719 11.7088 20.6802 11.8911C20.8885 12.0734 20.9992 12.2427 21.0122 12.3989C21.0122 12.5943 20.9406 12.7505 20.7974 12.8677C20.6541 12.9849 20.4653 13.0825 20.231 13.1607C19.9966 13.2388 19.7557 13.2974 19.5083 13.3364C19.2609 13.3755 19.0135 13.4276 18.7661 13.4927C18.5187 13.5578 18.3299 13.6229 18.1997 13.688C18.0695 13.7531 17.9914 13.8638 17.9653 14.02L19.0982 14.3911C18.8377 14.6125 18.5578 14.8143 18.2583 14.9966C17.9588 15.1789 17.6463 15.3482 17.3208 15.5044L17.3989 15.8364L15.6021 16.5396V17.0864L15.4653 17.145L15.563 16.4614L15.4849 16.4419C15.3937 16.4419 15.3416 16.4614 15.3286 16.5005C15.3156 16.5396 15.3091 16.5851 15.3091 16.6372C15.3091 16.6893 15.3221 16.7414 15.3482 16.7935C15.3742 16.8456 15.3807 16.8846 15.3677 16.9107L15.1138 16.7739L15.1528 16.8521C15.1528 16.8911 15.1724 16.9497 15.2114 17.0278C15.2505 17.106 15.3026 17.1776 15.3677 17.2427C15.4328 17.3078 15.4849 17.3729 15.5239 17.438C15.563 17.5031 15.589 17.5357 15.6021 17.5357C15.6021 17.5747 15.576 17.6138 15.5239 17.6528C15.4719 17.6919 15.4068 17.7179 15.3286 17.731C15.2505 17.744 15.1984 17.7635 15.1724 17.7896C15.1463 17.8156 15.1463 17.8221 15.1724 17.8091C15.3547 17.8091 15.3937 17.8221 15.2896 17.8482C15.1854 17.8742 15.0226 17.9393 14.8013 18.0435C14.5799 18.1476 14.3781 18.2974 14.1958 18.4927C14.0135 18.688 13.9094 18.9745 13.8833 19.3521C13.8833 19.5734 13.8898 19.7883 13.9028 19.9966C13.9159 20.2049 13.9094 20.4198 13.8833 20.6411C13.701 20.1463 13.4276 19.7687 13.063 19.5083C12.6984 19.2479 12.2557 19.1177 11.7349 19.1177L10.895 19.1958L11.3052 19.4693C11.0838 19.4432 10.856 19.4172 10.6216 19.3911C10.3872 19.3651 10.1463 19.3586 9.89894 19.3716C9.65154 19.3846 9.43019 19.4367 9.23488 19.5278C9.03956 19.619 8.84425 19.7557 8.64894 19.938L8.53175 20.8169C8.53175 21.2336 8.6229 21.5721 8.80519 21.8325C8.98748 22.0929 9.30649 22.2297 9.76222 22.2427C10.1528 22.2427 10.537 22.1841 10.9146 22.0669C11.2922 21.9497 11.6633 21.813 12.0278 21.6568C11.9107 21.9432 11.7804 22.2166 11.6372 22.4771C11.494 22.7375 11.3898 23.0239 11.3247 23.3364L11.5786 23.4536C11.8911 23.2453 12.1776 23.2127 12.438 23.356C12.6984 23.4992 12.9523 23.7075 13.1997 23.981C13.4471 24.2544 13.701 24.5344 13.9614 24.8208C14.2219 25.1073 14.5018 25.3156 14.8013 25.4458L14.1372 25.7974L12.5747 24.9185C12.5877 24.9445 12.6008 25.0031 12.6138 25.0943C12.6268 25.1854 12.6203 25.2049 12.5943 25.1528L11.8911 23.9614C11.4745 23.9484 11.0318 23.8833 10.563 23.7661C10.0943 23.6489 9.61899 23.4927 9.13722 23.2974C8.65545 23.1021 8.20623 22.8872 7.78956 22.6528C7.3729 22.4185 6.98878 22.1711 6.63722 21.9107L6.5005 24.0005C6.5005 25.589 6.71534 27.1385 7.14503 28.6489C7.57472 30.1594 8.18019 31.5786 8.96144 32.9068C9.74269 34.2349 10.6997 35.4458 11.8325 36.5396C12.9653 37.6333 14.2219 38.5643 15.6021 39.3325C15.537 39.0591 15.5304 38.7857 15.5825 38.5122C15.6346 38.2388 15.6997 37.9653 15.7778 37.6919C15.856 37.4185 15.9406 37.145 16.0318 36.8716C16.1229 36.5982 16.1685 36.3182 16.1685 36.0318C16.1685 35.6151 16.1034 35.1789 15.9732 34.7232C15.8429 34.2674 15.6867 33.8052 15.5044 33.3364C15.3221 32.8677 15.1203 32.4054 14.8989 31.9497C14.6776 31.494 14.5018 31.0643 14.3716 30.6607C14.2414 30.257 14.1372 29.8794 14.0591 29.5278C13.981 29.1763 14.02 28.8703 14.1763 28.6099L13.8833 28.4732C13.9614 28.2909 14.0656 28.1151 14.1958 27.9458C14.326 27.7765 14.4627 27.6073 14.606 27.438C14.7492 27.2687 14.8599 27.0864 14.938 26.8911C15.0161 26.6958 15.0617 26.5005 15.0747 26.3052C15.0747 26.175 15.0487 26.0383 14.9966 25.895C14.9445 25.7518 14.8989 25.6151 14.8599 25.4849L15.27 25.5825C15.4914 25.0747 15.7909 24.7297 16.1685 24.5474C16.5461 24.3651 17.0213 24.2674 17.5943 24.2544C17.6594 24.2544 17.7961 24.2804 18.0044 24.3325C18.2127 24.3846 18.4341 24.4562 18.6685 24.5474C18.9028 24.6385 19.1242 24.7101 19.3325 24.7622C19.5409 24.8143 19.6971 24.8664 19.8013 24.9185C19.8013 25.0096 19.8534 25.0682 19.9575 25.0943C20.0617 25.1203 20.1203 25.1659 20.1333 25.231L20.0943 25.3872C20.1333 25.4002 20.2245 25.4458 20.3677 25.5239C20.5109 25.6021 20.6672 25.6997 20.8364 25.8169C21.0057 25.9341 21.1554 26.0383 21.2857 26.1294C21.4159 26.2206 21.507 26.2922 21.5591 26.3443C21.7935 26.3443 22.1125 26.4224 22.5161 26.5786C22.9198 26.7349 23.3625 26.9302 23.8443 27.1646C24.326 27.3989 24.8013 27.6789 25.27 28.0044C25.7388 28.3299 26.1815 28.6554 26.5982 28.981C27.0148 29.3065 27.3338 29.632 27.5552 29.9575C27.7765 30.2831 27.9068 30.5695 27.9458 30.8169L27.2818 31.52C27.3338 32.1841 27.2883 32.6919 27.145 33.0435C27.0018 33.395 26.7804 33.688 26.481 33.9224C26.1815 34.1568 25.8364 34.3521 25.4458 34.5083C25.0552 34.6646 24.632 34.8859 24.1763 35.1724C24.1763 35.4328 24.1112 35.7127 23.981 36.0122C23.8508 36.3117 23.688 36.5982 23.4927 36.8716C23.2974 37.145 23.063 37.3729 22.7896 37.5552C22.5161 37.7375 22.2427 37.8286 21.9693 37.8286L21.1489 37.2036C21.175 37.2297 21.175 37.2752 21.1489 37.3403C21.1229 37.4054 21.0903 37.4185 21.0513 37.3794C21.1815 37.6268 21.214 37.9133 21.1489 38.2388C21.0838 38.5643 20.9732 38.8963 20.8169 39.2349C20.6607 39.5734 20.4849 39.8924 20.2896 40.1919C20.0943 40.4914 19.9185 40.7453 19.7622 40.9536C20.4653 41.1359 21.1685 41.2726 21.8716 41.3638C22.5747 41.4549 23.2844 41.5005 24.0005 41.5005Z" fill="black"/>
</svg>
