<svg width="48" height="48" viewBox="0 0 48 48" fill="none" xmlns="http://www.w3.org/2000/svg">
<path d="M4 1H44C45.6569 1 47 2.34315 47 4V44C47 45.6569 45.6569 47 44 47H4C2.34315 47 1 45.6569 1 44V4C1 2.34315 2.34315 1 4 1Z" fill="#99F6E4" stroke="black" stroke-width="2" stroke-linecap="round" stroke-linejoin="round"/>
<path d="M14 4H10V10H4V14H10V20H14V14H20V10H14V4ZM28 10H44V14H28V10ZM28 30H44V34H28V30ZM28 38H44V42H28V38ZM16.58 28.58L12 33.18L7.42 28.58L4.58 31.42L9.18 36L4.58 40.58L7.42 43.42L12 38.82L16.58 43.42L19.42 40.58L14.82 36L19.42 31.42L16.58 28.58Z" fill="black"/>
</svg>
