<svg width="48" height="64" viewBox="0 0 48 64" fill="none" xmlns="http://www.w3.org/2000/svg">
<g filter="url(#filter0_d_5383_2198)">
<path d="M23.9982 8C21.022 8 18.6072 10.256 18.6072 14.3442C18.6072 17.5004 19.9734 20.519 19.9734 20.519L21.5621 18.5596H22.8967V16.1553H19.9734V13.9417H28.0229V16.1553H25.0997V18.5596H26.4342L28.0229 20.519C28.0229 20.519 29.3892 17.5004 29.3892 14.3442C29.3892 10.256 26.9743 8 23.9982 8ZM16.9125 15.6787C16.7749 16.6002 16.7113 17.564 16.7113 18.5596C16.7113 25.3592 19.9734 29.8288 23.9982 29.8288C28.0229 29.8288 31.285 25.3592 31.285 18.5596C31.285 17.564 31.2215 16.6002 31.0838 15.6787C30.7872 18.6761 29.6328 21.2498 29.6328 21.2498L28.4571 23.8447L25.5975 20.3283H22.3989L19.5392 23.8447L18.3636 21.2498C18.3636 21.2498 17.2091 18.6761 16.9125 15.6787ZM23.1191 21.3663H24.8772V22.7114H23.1191V21.3663ZM15.2285 23.9823L11.3203 24.9673L14.6778 39.9859H21.2232L23.7651 32.0318C20.0899 31.9047 16.6795 28.9709 15.2285 23.9823ZM32.7678 23.9823C31.6557 27.8164 29.3786 30.4431 26.7095 31.5022L23.9982 39.9859H26.2965L28.4889 32.5296L29.7599 32.9003L27.6839 39.9859H29.4739L33.3291 26.662L34.6001 27.0327L30.8508 39.9859H33.3185L36.676 24.9673L32.7678 23.9823ZM17.7493 42.2312V52.1871H19.6557V45.4086H28.3406V52.1871H30.2471V42.2312H17.7493ZM21.5621 47.3151V52.1871H26.4342V47.3151H21.5621ZM14.2223 54.0936L12.7396 56H35.2568L33.774 54.0936H14.2223Z" fill="#C026D3"/>
</g>
<defs>
<filter id="filter0_d_5383_2198" x="3.32031" y="0" width="41.3555" height="64" filterUnits="userSpaceOnUse" color-interpolation-filters="sRGB">
<feFlood flood-opacity="0" result="BackgroundImageFix"/>
<feColorMatrix in="SourceAlpha" type="matrix" values="0 0 0 0 0 0 0 0 0 0 0 0 0 0 0 0 0 0 127 0" result="hardAlpha"/>
<feOffset/>
<feGaussianBlur stdDeviation="4"/>
<feComposite in2="hardAlpha" operator="out"/>
<feColorMatrix type="matrix" values="0 0 0 0 0.752941 0 0 0 0 0.14902 0 0 0 0 0.827451 0 0 0 1 0"/>
<feBlend mode="normal" in2="BackgroundImageFix" result="effect1_dropShadow_5383_2198"/>
<feBlend mode="normal" in="SourceGraphic" in2="effect1_dropShadow_5383_2198" result="shape"/>
</filter>
</defs>
</svg>
