<svg width="48" height="48" viewBox="0 0 48 48" fill="none" xmlns="http://www.w3.org/2000/svg">
<path d="M4 1H44C45.6569 1 47 2.34315 47 4V44C47 45.6569 45.6569 47 44 47H4C2.34315 47 1 45.6569 1 44V4C1 2.34315 2.34315 1 4 1Z" fill="#C026D3" stroke="black" stroke-width="2" stroke-linecap="round" stroke-linejoin="round"/>
<path d="M24.5649 4C22.0847 4 20.0724 5.87996 20.0724 9.28685C20.0724 11.917 21.2109 14.4325 21.2109 14.4325L22.5349 12.7996H23.647V10.7961H21.2109V8.95146H27.9188V10.7961H25.4828V12.7996H26.5949L27.9188 14.4325C27.9188 14.4325 29.0574 11.917 29.0574 9.28685C29.0574 5.87996 27.045 4 24.5649 4ZM18.6602 10.3989C18.5455 11.1668 18.4925 11.97 18.4925 12.7996C18.4925 18.466 21.2109 22.1906 24.5649 22.1906C27.9188 22.1906 30.6372 18.466 30.6372 12.7996C30.6372 11.97 30.5843 11.1668 30.4695 10.3989C30.2224 12.8967 29.2604 15.0415 29.2604 15.0415L28.2807 17.2039L25.8976 14.2736H23.2321L20.8491 17.2039L19.8694 15.0415C19.8694 15.0415 18.9073 12.8967 18.6602 10.3989ZM23.8323 15.1386H25.2974V16.2595H23.8323V15.1386ZM17.2568 17.3186L14 18.1395L16.7979 30.6549H22.2524L24.3707 24.0265C21.308 23.9206 18.466 21.4757 17.2568 17.3186ZM31.8729 17.3186C30.9462 20.5137 29.0485 22.7026 26.8244 23.5852L24.5649 30.6549H26.4801L28.3071 24.4413L29.3663 24.7502L27.6364 30.6549H29.128L32.3407 19.5516L33.3998 19.8605L30.2754 30.6549H32.3319L35.1297 18.1395L31.8729 17.3186ZM19.3575 32.526V40.8226H20.9462V35.1739H28.1836V40.8226H29.7723V32.526H19.3575ZM22.5349 36.7626V40.8226H26.5949V36.7626H22.5349ZM16.4184 42.4113L15.1827 44H33.947L32.7114 42.4113H16.4184Z" fill="black"/>
</svg>
