<svg width="64" height="58" viewBox="0 0 64 58" fill="none" xmlns="http://www.w3.org/2000/svg">
<g filter="url(#filter0_d_5383_2196)">
<path d="M16.3077 8.69176C16.6667 8.69195 17.018 8.79683 17.3183 8.99358C17.6187 9.19032 17.8551 9.47037 17.9988 9.79946L24.4603 24.5687C24.5662 24.7921 24.6261 25.0345 24.6364 25.2815C24.6468 25.5285 24.6075 25.775 24.5208 26.0066C24.4341 26.2381 24.3018 26.4498 24.1318 26.6292C23.9617 26.8086 23.7573 26.9521 23.5307 27.051C23.3042 27.1499 23.0601 27.2024 22.8129 27.2052C22.5657 27.208 22.3204 27.1611 22.0917 27.0673C21.8629 26.9736 21.6554 26.8348 21.4813 26.6593C21.3072 26.4838 21.1701 26.2751 21.0782 26.0456L19.9465 23.461H12.6708L11.5391 26.0456C11.3336 26.4792 10.9675 26.8158 10.5181 26.9841C10.0688 27.1523 9.5716 27.1391 9.13189 26.947C8.69218 26.755 8.34449 26.3994 8.1625 25.9554C7.98051 25.5115 7.97851 25.0141 8.15692 24.5687L14.6185 9.79946C14.762 9.47066 14.9981 9.1908 15.2981 8.99408C15.5981 8.79736 15.9489 8.69231 16.3077 8.69176ZM18.3311 19.7687L16.3077 15.1441L14.2843 19.7687H18.3311ZM9.84615 34.5379C9.35652 34.5379 8.88695 34.7324 8.54073 35.0786C8.1945 35.4249 8 35.8944 8 36.3841C8 36.8737 8.1945 37.3433 8.54073 37.6895C8.88695 38.0357 9.35652 38.2302 9.84615 38.2302H32H54.1538C54.6435 38.2302 55.1131 38.0357 55.4593 37.6895C55.8055 37.3433 56 36.8737 56 36.3841C56 35.8944 55.8055 35.4249 55.4593 35.0786C55.1131 34.7324 54.6435 34.5379 54.1538 34.5379H9.84615ZM9.84615 45.6148C9.35652 45.6148 8.88695 45.8093 8.54073 46.1556C8.1945 46.5018 8 46.9714 8 47.461C8 47.9506 8.1945 48.4202 8.54073 48.7664C8.88695 49.1126 9.35652 49.3071 9.84615 49.3071H54.1538C54.6435 49.3071 55.1131 49.1126 55.4593 48.7664C55.8055 48.4202 56 47.9506 56 47.461C56 46.9714 55.8055 46.5018 55.4593 46.1556C55.1131 45.8093 54.6435 45.6148 54.1538 45.6148H9.84615ZM26.4615 10.5379C26.4615 10.0483 26.656 9.57871 27.0023 9.23249C27.3485 8.88627 27.8181 8.69176 28.3077 8.69176H32.9231C33.9372 8.69158 34.9319 8.96984 35.7987 9.49619C36.6655 10.0225 37.3712 10.7768 37.8387 11.6767C38.3063 12.5766 38.5178 13.5876 38.4502 14.5994C38.3826 15.6113 38.0385 16.5851 37.4554 17.4148C38.313 18.152 38.9243 19.1341 39.2073 20.229C39.4903 21.3239 39.4313 22.4792 39.0383 23.5395C38.6453 24.5999 37.9371 25.5146 37.0089 26.1606C36.0807 26.8067 34.977 27.1531 33.8462 27.1533H28.3077C27.8181 27.1533 27.3485 26.9588 27.0023 26.6126C26.656 26.2664 26.4615 25.7968 26.4615 25.3071V10.5379ZM30.1538 19.7687V23.461H33.8462C34.3358 23.461 34.8054 23.2665 35.1516 22.9203C35.4978 22.574 35.6923 22.1045 35.6923 21.6148C35.6923 21.1252 35.4978 20.6556 35.1516 20.3094C34.8054 19.9632 34.3358 19.7687 33.8462 19.7687H30.1538ZM30.1538 16.0764H32.9231C33.4127 16.0764 33.8823 15.8819 34.2285 15.5357C34.5747 15.1894 34.7692 14.7199 34.7692 14.2302C34.7692 13.7406 34.5747 13.271 34.2285 12.9248C33.8823 12.5786 33.4127 12.3841 32.9231 12.3841H30.1538V16.0764ZM44.9231 17.9225C44.9231 15.7515 45.4658 14.3595 46.1231 13.5453C46.4137 13.1739 46.787 12.8755 47.2132 12.6739C47.6395 12.4723 48.107 12.373 48.5785 12.3841C49.7969 12.3841 50.8492 12.9748 51.5397 14.5588C51.6358 14.7823 51.7752 14.9846 51.9497 15.154C52.1243 15.3234 52.3306 15.4567 52.5568 15.5461C52.783 15.6356 53.0247 15.6794 53.2679 15.6752C53.5111 15.6709 53.7511 15.6186 53.9741 15.5213C54.197 15.424 54.3985 15.2836 54.567 15.1082C54.7355 14.9327 54.8677 14.7257 54.956 14.499C55.0442 14.2723 55.0868 14.0304 55.0813 13.7873C55.0757 13.5441 55.0222 13.3044 54.9237 13.0819C53.7052 10.2905 51.4105 8.69176 48.5766 8.69176C47.5551 8.68122 46.5447 8.90369 45.6221 9.34228C44.6995 9.78086 43.889 10.424 43.2523 11.2228C41.9194 12.8715 41.2308 15.1718 41.2308 17.9225C41.2308 20.6733 41.9194 22.9736 43.2523 24.6222C43.8891 25.4214 44.6999 26.0648 45.6228 26.5034C46.5458 26.942 47.5566 27.1643 48.5785 27.1533C51.4123 27.1533 53.7071 25.5545 54.9255 22.7631C55.024 22.5407 55.0776 22.301 55.0831 22.0578C55.0886 21.8146 55.0461 21.5727 54.9578 21.346C54.8696 21.1194 54.7374 20.9123 54.5689 20.7369C54.4004 20.5615 54.1988 20.4211 53.9759 20.3238C53.7529 20.2264 53.513 20.1742 53.2697 20.1699C53.0265 20.1656 52.7849 20.2095 52.5586 20.2989C52.3324 20.3884 52.1261 20.5216 51.9516 20.6911C51.777 20.8605 51.6377 21.0628 51.5415 21.2862C50.8492 22.8721 49.7969 23.461 48.5785 23.461C48.1073 23.4717 47.6402 23.3723 47.2143 23.1707C46.7883 22.9692 46.4153 22.6709 46.1249 22.2998C45.4677 21.4875 44.9231 20.0936 44.9231 17.9225Z" fill="#22D3EE"/>
</g>
<defs>
<filter id="filter0_d_5383_2196" x="0" y="0.691406" width="64" height="56.6152" filterUnits="userSpaceOnUse" color-interpolation-filters="sRGB">
<feFlood flood-opacity="0" result="BackgroundImageFix"/>
<feColorMatrix in="SourceAlpha" type="matrix" values="0 0 0 0 0 0 0 0 0 0 0 0 0 0 0 0 0 0 127 0" result="hardAlpha"/>
<feOffset/>
<feGaussianBlur stdDeviation="4"/>
<feComposite in2="hardAlpha" operator="out"/>
<feColorMatrix type="matrix" values="0 0 0 0 0.133333 0 0 0 0 0.827451 0 0 0 0 0.933333 0 0 0 1 0"/>
<feBlend mode="normal" in2="BackgroundImageFix" result="effect1_dropShadow_5383_2196"/>
<feBlend mode="normal" in="SourceGraphic" in2="effect1_dropShadow_5383_2196" result="shape"/>
</filter>
</defs>
</svg>
